<?xml version="1.0" encoding="UTF-8" standalone="no"?>
<!DOCTYPE svg PUBLIC "-//W3C//DTD SVG 1.1//EN" "http://www.w3.org/Graphics/SVG/1.1/DTD/svg11.dtd">
<svg width="100%" height="100%" viewBox="0 0 600 600" version="1.1" xmlns="http://www.w3.org/2000/svg" xmlns:xlink="http://www.w3.org/1999/xlink" xml:space="preserve" xmlns:serif="http://www.serif.com/" style="fill-rule:evenodd;clip-rule:evenodd;stroke-linejoin:round;stroke-miterlimit:1.41421;">
    <circle cx="300" cy="300" r="300" style="fill:rgb(230,98,26);"/>
    <g transform="matrix(51.1626,0,0,51.1626,-10505.7,-17514)">
        <path d="M209.17,346.469C209.17,347.741 210.058,348.149 210.898,348.545C211.678,348.917 212.362,349.241 212.362,350.081C212.362,351.089 211.63,351.401 210.586,351.401C210.094,351.401 209.542,351.257 209.302,351.101L209.554,349.997C209.578,349.853 209.554,349.817 209.398,349.817L208.75,349.817C208.594,349.817 208.558,349.853 208.522,349.997L208.21,351.905C208.174,352.049 208.21,352.097 208.354,352.145C208.894,352.313 209.638,352.433 210.466,352.433C212.386,352.433 213.658,351.425 213.658,349.781C213.658,348.425 212.65,347.909 211.87,347.513C211.126,347.129 210.466,346.865 210.466,346.085C210.466,345.425 210.982,344.981 211.966,344.981C212.338,344.981 212.83,345.113 213.082,345.269L212.89,346.085C212.854,346.229 212.878,346.265 213.034,346.265L213.682,346.265C213.838,346.265 213.886,346.229 213.91,346.085L214.198,344.441C214.234,344.297 214.198,344.249 214.054,344.201C213.514,344.045 212.902,343.937 212.218,343.937C210.202,343.937 209.17,345.113 209.17,346.469Z" style="fill:white;fill-rule:nonzero;"/>
    </g>
</svg>
