<?xml version="1.0" encoding="UTF-8" standalone="no"?>
<!DOCTYPE svg PUBLIC "-//W3C//DTD SVG 1.1//EN" "http://www.w3.org/Graphics/SVG/1.1/DTD/svg11.dtd">
<svg width="100%" height="100%" viewBox="0 0 473 75" version="1.1" xmlns="http://www.w3.org/2000/svg" xmlns:xlink="http://www.w3.org/1999/xlink" xml:space="preserve" xmlns:serif="http://www.serif.com/" style="fill-rule:evenodd;clip-rule:evenodd;stroke-linejoin:round;stroke-miterlimit:1.41421;">
    <g id="Artboard1" transform="matrix(1,0,0,1,-65.7766,-117.676)">
        <rect x="65.777" y="117.676" width="472.447" height="74.689" style="fill:none;"/>
        <clipPath id="_clip1">
            <rect x="65.777" y="117.676" width="472.447" height="74.689"/>
        </clipPath>
        <g clip-path="url(#_clip1)">
            <g transform="matrix(1,0,0,1,0.776622,0.676192)">
                <path d="M106.463,159.142C109.696,161.929 112.16,165.782 112.16,171.689C112.16,184.449 102.288,192.272 87.387,192.272C80.96,192.272 75.186,191.341 70.995,190.037C69.917,189.678 69.619,189.318 69.85,188.291C73.955,189.46 79.387,190.272 85.387,190.272C100.288,190.272 110.16,182.449 110.16,169.689C110.16,165.079 108.659,161.72 106.463,159.142ZM79.098,171.969C80.308,171.969 80.495,172.248 80.308,173.366L78.575,180.961C77.671,180.644 76.905,180.293 76.353,179.934L78.171,171.969L79.098,171.969ZM80.374,155.288C82.796,157.312 85.806,158.713 88.739,160.097C92.614,161.944 96.183,163.639 98.25,166.329C96.216,164.704 93.558,163.441 90.739,162.097C86.928,160.299 82.988,158.471 80.374,155.288ZM88.928,147.904C86.778,146.226 85.387,144.159 85.387,141.004C85.387,135.882 89.391,132.436 97.028,132.436C99.916,132.436 103.734,133.46 105.69,134.671L105.462,135.64C103.493,134.931 101.036,134.436 99.028,134.436C91.391,134.436 87.387,137.882 87.387,143.004C87.387,145.021 87.955,146.594 88.928,147.904ZM114.376,128.142C114.665,128.22 114.95,128.3 115.234,128.382C116.351,128.754 116.631,129.127 116.351,130.245L114.116,143.004C113.93,144.122 113.557,144.401 112.347,144.401L107.317,144.401C106.107,144.401 105.92,144.122 106.2,143.004L106.342,142.401L110.347,142.401C111.557,142.401 111.93,142.122 112.116,141.004L114.351,128.245C114.36,128.21 114.368,128.175 114.376,128.142Z" style="fill:rgb(255,90,0);fill-rule:nonzero;"/>
                <path d="M152.471,181.015C153.065,180.807 153.446,181.037 153.885,181.841L155.375,184.821C156.027,185.846 155.934,186.218 154.909,186.87C150.159,190.223 144.292,192.272 137.493,192.272C131.155,192.272 126.599,190.168 123.673,186.598C126.536,188.94 130.45,190.272 135.493,190.272C142.292,190.272 148.159,188.223 152.909,184.87C153.934,184.218 154.027,183.846 153.375,182.821L152.471,181.015ZM132.364,180.623C129.462,178.609 128.415,175.091 128.415,170.9C128.415,161.773 131.395,150.038 142.292,150.038C145.563,150.038 148.085,150.944 149.372,153.166C148.039,152.382 146.308,152.038 144.292,152.038C133.395,152.038 130.415,163.773 130.415,172.9C130.415,175.932 130.963,178.611 132.364,180.623ZM155.677,146.975C159.393,149.854 160.764,154.577 160.311,159.954C160.218,161.165 159.845,161.445 158.728,161.445L153.698,161.445C152.581,161.445 152.301,161.165 152.301,159.954C152.31,159.781 152.315,159.611 152.317,159.445L156.728,159.445C157.845,159.445 158.218,159.165 158.311,157.954C158.671,153.683 157.88,149.824 155.677,146.975Z" style="fill:rgb(255,90,0);fill-rule:nonzero;"/>
                <path d="M202.492,148.002C205.821,150.729 208.275,155.214 208.275,162.469C208.275,180.165 198.403,192.272 181.08,192.272C175.065,192.272 170.362,190.375 167.336,186.658C170.283,189.054 174.261,190.272 179.08,190.272C196.403,190.272 206.275,178.165 206.275,160.469C206.275,154.765 204.758,150.773 202.492,148.002ZM176.058,181.351C173.285,179.573 172.281,175.975 172.281,171.738C172.281,163.542 174.516,150.131 186.158,150.131C189.608,150.131 192.121,151.16 193.627,153.472C192.203,152.556 190.373,152.131 188.158,152.131C176.516,152.131 174.281,165.542 174.281,173.738C174.281,176.735 174.783,179.412 176.058,181.351Z" style="fill:rgb(255,90,0);fill-rule:nonzero;"/>
                <path d="M238.606,183.742C239.514,183.437 239.872,183.576 240.313,184.635L241.152,187.802C241.524,188.919 241.338,189.292 240.313,189.757C237.426,191.061 233.235,192.272 228.951,192.272C223.451,192.272 220.47,190.781 218.959,188.451C220.699,189.599 223.257,190.272 226.951,190.272C231.235,190.272 235.426,189.061 238.313,187.757C239.338,187.292 239.524,186.919 239.152,185.802L238.606,183.742ZM242.774,145.053L243.666,145.053C244.877,145.053 245.063,145.332 244.877,146.45L244.039,151.386C243.852,152.504 243.48,152.783 242.269,152.69L232.956,152.69L229.044,174.577C228.671,176.719 228.485,178.488 228.485,179.978C228.485,180.982 228.588,181.837 228.836,182.535C227.078,181.933 226.485,180.386 226.485,177.978C226.485,176.488 226.671,174.719 227.044,172.577L230.956,150.69L240.269,150.69C241.48,150.783 241.852,150.504 242.039,149.386L242.774,145.053ZM220.253,152.69L217.402,152.69C216.191,152.783 216.005,152.504 216.191,151.386L216.297,150.69L220.618,150.69L220.253,152.69ZM235.284,131.083C236.495,131.083 236.681,131.362 236.495,132.48L234.693,143.053L232.353,143.053L234.392,131.083L235.284,131.083Z" style="fill:rgb(255,90,0);fill-rule:nonzero;"/>
                <path d="M271.39,183.742C272.298,183.437 272.655,183.576 273.097,184.635L273.935,187.802C274.307,188.919 274.121,189.292 273.097,189.757C270.209,191.061 266.018,192.272 261.734,192.272C256.235,192.272 253.253,190.781 251.743,188.451C253.482,189.599 256.04,190.272 259.734,190.272C264.018,190.272 268.209,189.061 271.097,187.757C272.121,187.292 272.307,186.919 271.935,185.802L271.39,183.742ZM275.558,145.053L276.449,145.053C277.66,145.053 277.846,145.332 277.66,146.45L276.822,151.386C276.636,152.504 276.263,152.783 275.052,152.69L265.739,152.69L261.827,174.577C261.455,176.719 261.269,178.488 261.269,179.978C261.269,180.982 261.372,181.837 261.619,182.535C259.861,181.933 259.269,180.386 259.269,177.978C259.269,176.488 259.455,174.719 259.827,172.577L263.739,150.69L273.052,150.69C274.263,150.783 274.636,150.504 274.822,149.386L275.558,145.053ZM253.036,152.69L250.186,152.69C248.975,152.783 248.789,152.504 248.975,151.386L249.08,150.69L253.401,150.69L253.036,152.69ZM268.067,131.083C269.278,131.083 269.464,131.362 269.278,132.48L267.477,143.053L265.136,143.053L267.175,131.083L268.067,131.083Z" style="fill:rgb(255,90,0);fill-rule:nonzero;"/>
                <path d="M333.99,159.142C337.223,161.929 339.688,165.782 339.688,171.689C339.688,184.449 329.815,192.272 314.914,192.272C308.488,192.272 302.713,191.341 298.522,190.037C297.445,189.678 297.146,189.318 297.377,188.291C301.482,189.46 306.914,190.272 312.914,190.272C327.815,190.272 337.688,182.449 337.688,169.689C337.688,165.079 336.186,161.72 333.99,159.142ZM306.625,171.969C307.836,171.969 308.022,172.248 307.836,173.366L306.102,180.961C305.198,180.644 304.433,180.293 303.88,179.934L305.698,171.969L306.625,171.969ZM307.901,155.288C310.324,157.312 313.333,158.713 316.267,160.097C320.141,161.944 323.71,163.639 325.778,166.329C323.743,164.704 321.086,163.441 318.267,162.097C314.455,160.299 310.516,158.471 307.901,155.288ZM316.455,147.904C314.305,146.226 312.914,144.159 312.914,141.004C312.914,135.882 316.919,132.436 324.556,132.436C327.443,132.436 331.261,133.46 333.217,134.671L332.989,135.64C331.021,134.931 328.563,134.436 326.556,134.436C318.919,134.436 314.914,137.882 314.914,143.004C314.914,145.021 315.483,146.594 316.455,147.904ZM341.903,128.142C342.192,128.22 342.478,128.3 342.761,128.382C343.879,128.754 344.158,129.127 343.879,130.245L341.643,143.004C341.457,144.122 341.085,144.401 339.874,144.401L334.845,144.401C333.634,144.401 333.448,144.122 333.727,143.004L333.869,142.401L337.874,142.401C339.085,142.401 339.457,142.122 339.643,141.004L341.879,128.245C341.887,128.21 341.896,128.175 341.903,128.142Z" style="fill:rgb(255,90,0);fill-rule:nonzero;"/>
                <path d="M418.64,183.882C419.361,183.674 419.68,183.887 420.063,184.728L420.808,186.218C421.367,187.243 421.273,187.615 420.342,188.36C418.014,190.223 414.102,192.365 410.19,192.365C406.787,192.365 404.649,191.305 403.628,189.401C404.767,190.031 406.279,190.365 408.19,190.365C412.102,190.365 416.014,188.223 418.342,186.36C419.273,185.615 419.367,185.243 418.808,184.218L418.64,183.882ZM348.827,189.154L355.197,189.154C356.408,189.154 356.78,188.875 356.966,187.757L361.809,160.655C362.648,156.092 367.211,150.969 373.079,150.969C375.931,150.969 377.478,151.918 378.21,153.533C377.406,153.166 376.378,152.969 375.079,152.969C369.211,152.969 364.648,158.092 363.809,162.655L358.966,189.757C358.78,190.875 358.408,191.154 357.197,191.154L349.932,191.154C348.722,191.154 348.535,190.875 348.722,189.757L348.827,189.154ZM375.743,189.154L382.299,189.154C383.51,189.154 383.882,188.875 384.069,187.757L389.005,159.351C389.75,155.16 394.5,150.969 399.995,150.969C402.863,150.969 404.452,151.929 405.206,153.561C404.382,153.176 403.326,152.969 401.995,152.969C396.5,152.969 391.75,157.16 391.005,161.351L386.069,189.757C385.882,190.875 385.51,191.154 384.299,191.154L376.848,191.154C375.638,191.154 375.451,190.875 375.638,189.757L375.743,189.154ZM414.798,146.177C417.477,148.115 418.852,151.315 418.852,155.577C418.852,157.067 418.572,159.302 418.014,162.097L413.916,181.934C413.856,182.248 413.813,182.535 413.789,182.796C413.632,182.813 413.474,182.821 413.313,182.821C411.823,182.821 411.543,181.89 411.916,179.934L416.014,160.097C416.572,157.302 416.852,155.067 416.852,153.577C416.852,150.551 416.159,148.061 414.798,146.177ZM352.891,152.504L351.236,152.504C350.026,152.597 349.839,152.317 349.932,151.2L350.055,150.504L353.241,150.504L352.891,152.504ZM387.583,146.123C388.717,146.95 389.599,147.988 390.252,149.174C389.957,149.51 389.666,149.861 389.377,150.224C389.044,148.711 388.456,147.317 387.583,146.123ZM364.089,145.053C365.3,145.053 365.579,145.332 365.393,146.45L365.304,147.052C364.353,147.934 363.432,148.955 362.555,150.131L363.304,145.053L364.089,145.053Z" style="fill:rgb(255,90,0);fill-rule:nonzero;"/>
                <path d="M446.207,183.882C446.928,183.674 447.248,183.887 447.63,184.728L448.375,186.218C448.934,187.243 448.841,187.615 447.91,188.36C445.581,190.223 441.67,192.365 437.758,192.365C434.373,192.365 432.298,191.317 431.29,189.432C432.403,190.042 433.879,190.365 435.758,190.365C439.67,190.365 443.581,188.223 445.91,186.36C446.841,185.615 446.934,185.243 446.375,184.218L446.207,183.882ZM446.513,145.053C447.724,145.053 447.91,145.332 447.724,146.45L441.39,181.934C441.33,182.251 441.289,182.541 441.27,182.805C441.141,182.816 441.012,182.821 440.881,182.821C439.39,182.821 439.018,181.89 439.39,179.934L445.616,145.053L446.513,145.053ZM433.738,152.597L432.077,152.597C430.866,152.69 430.68,152.411 430.866,151.293L431,150.597L434.082,150.597L433.738,152.597ZM447.135,124.683C449.045,125.778 449.959,127.789 449.959,129.965C449.959,134.342 446.699,137.136 442.694,137.136C440.184,137.136 438.326,135.986 437.317,134.276C438.245,134.821 439.38,135.136 440.694,135.136C444.699,135.136 447.959,132.342 447.959,127.965C447.959,126.782 447.689,125.647 447.135,124.683Z" style="fill:rgb(255,90,0);fill-rule:nonzero;"/>
                <path d="M480.383,183.742C481.291,183.437 481.649,183.576 482.09,184.635L482.928,187.802C483.301,188.919 483.115,189.292 482.09,189.757C479.203,191.061 475.012,192.272 470.728,192.272C465.228,192.272 462.247,190.781 460.736,188.451C462.475,189.599 465.033,190.272 468.728,190.272C473.012,190.272 477.203,189.061 480.09,187.757C481.115,187.292 481.301,186.919 480.928,185.802L480.383,183.742ZM484.551,145.053L485.443,145.053C486.654,145.053 486.84,145.332 486.654,146.45L485.815,151.386C485.629,152.504 485.257,152.783 484.046,152.69L474.733,152.69L470.821,174.577C470.448,176.719 470.262,178.488 470.262,179.978C470.262,180.982 470.365,181.837 470.613,182.535C468.854,181.933 468.262,180.386 468.262,177.978C468.262,176.488 468.448,174.719 468.821,172.577L472.733,150.69L482.046,150.69C483.257,150.783 483.629,150.504 483.815,149.386L484.551,145.053ZM462.029,152.69L459.179,152.69C457.968,152.783 457.782,152.504 457.968,151.386L458.073,150.69L462.395,150.69L462.029,152.69ZM477.061,131.083C478.272,131.083 478.458,131.362 478.272,132.48L476.47,143.053L474.13,143.053L476.169,131.083L477.061,131.083Z" style="fill:rgb(255,90,0);fill-rule:nonzero;"/>
                <path d="M535.71,183.789C536.431,183.581 536.75,183.794 537.133,184.635L537.878,186.125C538.436,187.15 538.343,187.522 537.412,188.267C535.084,190.13 531.172,192.272 527.26,192.272C523.866,192.272 521.76,191.218 520.746,189.323C521.872,189.944 523.365,190.272 525.26,190.272C529.172,190.272 533.084,188.13 535.412,186.267C536.343,185.522 536.436,185.15 535.878,184.125L535.71,183.789ZM491.136,189.154L497.599,189.154C498.81,189.154 499.183,188.875 499.369,187.757L504.119,160.376C505.05,155.347 510.359,151.249 516.599,151.249C519.788,151.249 521.549,152.256 522.363,153.961C521.423,153.499 520.188,153.249 518.599,153.249C512.359,153.249 507.05,157.347 506.119,162.376L501.369,189.757C501.183,190.875 500.81,191.154 499.599,191.154L492.242,191.154C491.031,191.154 490.845,190.875 491.031,189.757L491.136,189.154ZM532.096,146.115C534.663,147.943 536.015,150.973 536.015,155.205C536.015,156.602 535.642,159.768 535.177,162.003L530.986,181.841C530.926,182.155 530.883,182.442 530.859,182.703C530.702,182.72 530.544,182.728 530.383,182.728C528.893,182.728 528.613,181.797 528.986,179.841L533.177,160.003C533.642,157.768 534.015,154.602 534.015,153.205C534.015,150.259 533.36,147.896 532.096,146.115ZM511.893,121.676C513.104,121.676 513.29,121.956 513.104,123.073L508.931,146.875C507.948,147.714 506.995,148.673 506.075,149.759L510.998,121.676L511.893,121.676ZM499.208,129.127L497.55,129.127C496.34,129.22 496.153,128.941 496.34,127.823L496.463,127.127L499.555,127.127L499.208,129.127Z" style="fill:rgb(255,90,0);fill-rule:nonzero;"/>
            </g>
            <g transform="matrix(1.29353,0,0,1.29353,-58.41,-16.4945)">
                <path d="M102.444,123.039C102.444,130.671 107.772,133.119 112.812,135.495C117.492,137.727 121.596,139.671 121.596,144.711C121.596,150.759 117.204,152.631 110.94,152.631C107.988,152.631 104.676,151.767 103.236,150.831L104.748,144.207C104.892,143.343 104.748,143.127 103.812,143.127L99.924,143.127C98.988,143.127 98.772,143.343 98.556,144.207L96.684,155.655C96.468,156.519 96.684,156.807 97.548,157.095C100.788,158.103 105.252,158.823 110.22,158.823C121.74,158.823 129.372,152.775 129.372,142.911C129.372,134.775 123.324,131.679 118.644,129.303C114.18,126.999 110.22,125.415 110.22,120.735C110.22,116.775 113.316,114.111 119.22,114.111C121.452,114.111 124.404,114.903 125.916,115.839L124.764,120.735C124.548,121.599 124.692,121.815 125.628,121.815L129.516,121.815C130.452,121.815 130.74,121.599 130.884,120.735L132.612,110.871C132.828,110.007 132.612,109.719 131.748,109.431C128.508,108.495 124.836,107.847 120.732,107.847C108.636,107.847 102.444,114.903 102.444,123.039Z" style="fill:white;fill-rule:nonzero;"/>
                <path d="M160.404,133.839C160.404,134.775 160.62,134.991 161.484,134.991L165.372,134.991C166.236,134.991 166.524,134.775 166.596,133.839C167.172,126.999 163.932,121.527 155.076,121.527C141.396,121.527 135.132,133.047 135.132,144.063C135.132,152.703 139.452,158.823 148.956,158.823C154.212,158.823 158.748,157.239 162.42,154.647C163.212,154.143 163.284,153.855 162.78,153.063L161.628,150.759C161.196,149.967 160.836,149.895 160.116,150.327C156.948,152.127 154.788,152.775 151.98,152.775C145.5,152.775 143.484,148.959 143.484,143.847C143.484,136.791 145.788,127.719 154.212,127.719C158.1,127.719 160.62,129.375 160.404,133.839Z" style="fill:white;fill-rule:nonzero;"/>
                <path d="M203.676,135.783C203.676,123.615 194.748,121.527 189.348,121.527C176.1,121.527 169.044,131.535 169.044,144.495C169.044,153.927 174.156,158.823 182.652,158.823C196.044,158.823 203.676,149.463 203.676,135.783ZM195.18,135.927C195.18,141.975 192.804,152.847 183.876,152.847C178.98,152.847 177.396,149.175 177.396,144.495C177.396,138.159 179.124,127.791 188.124,127.791C192.732,127.791 195.18,130.167 195.18,135.927Z" style="fill:white;fill-rule:nonzero;"/>
                <path d="M229.956,128.223C230.892,128.295 231.18,128.079 231.324,127.215L231.972,123.399C232.116,122.535 231.972,122.319 231.036,122.319L223.836,122.319L225.492,112.599C225.636,111.735 225.492,111.519 224.556,111.519L218.796,111.519C217.86,111.519 217.644,111.735 217.428,112.599L215.772,122.319L211.74,122.319C210.804,122.319 210.588,122.535 210.372,123.399L209.796,127.215C209.652,128.079 209.796,128.295 210.732,128.223L214.764,128.223L211.596,145.575C211.236,147.519 210.876,149.607 210.876,151.479C210.876,155.583 212.532,158.823 219.66,158.823C222.972,158.823 226.212,157.887 228.444,156.879C229.236,156.519 229.38,156.231 229.092,155.367L228.444,152.919C228.084,152.055 227.796,151.983 227.004,152.271C225.924,152.703 224.484,153.063 222.684,153.063C220.092,153.063 219.3,151.767 219.3,149.319C219.3,148.167 219.444,146.799 219.732,145.143L222.756,128.223L229.956,128.223Z" style="fill:white;fill-rule:nonzero;"/>
                <path d="M255.3,128.223C256.236,128.295 256.524,128.079 256.668,127.215L257.316,123.399C257.46,122.535 257.316,122.319 256.38,122.319L249.18,122.319L250.836,112.599C250.98,111.735 250.836,111.519 249.9,111.519L244.14,111.519C243.204,111.519 242.988,111.735 242.772,112.599L241.116,122.319L237.084,122.319C236.148,122.319 235.932,122.535 235.716,123.399L235.14,127.215C234.996,128.079 235.14,128.295 236.076,128.223L240.108,128.223L236.94,145.575C236.58,147.519 236.22,149.607 236.22,151.479C236.22,155.583 237.876,158.823 245.004,158.823C248.316,158.823 251.556,157.887 253.788,156.879C254.58,156.519 254.724,156.231 254.436,155.367L253.788,152.919C253.428,152.055 253.14,151.983 252.348,152.271C251.268,152.703 249.828,153.063 248.028,153.063C245.436,153.063 244.644,151.767 244.644,149.319C244.644,148.167 244.788,146.799 245.076,145.143L248.1,128.223L255.3,128.223Z" style="fill:white;fill-rule:nonzero;"/>
                <path d="M278.34,123.039C278.34,130.671 283.668,133.119 288.708,135.495C293.388,137.727 297.492,139.671 297.492,144.711C297.492,150.759 293.1,152.631 286.836,152.631C283.884,152.631 280.572,151.767 279.132,150.831L280.644,144.207C280.788,143.343 280.644,143.127 279.708,143.127L275.82,143.127C274.884,143.127 274.668,143.343 274.452,144.207L272.58,155.655C272.364,156.519 272.58,156.807 273.444,157.095C276.684,158.103 281.148,158.823 286.116,158.823C297.636,158.823 305.268,152.775 305.268,142.911C305.268,134.775 299.22,131.679 294.54,129.303C290.076,126.999 286.116,125.415 286.116,120.735C286.116,116.775 289.212,114.111 295.116,114.111C297.348,114.111 300.3,114.903 301.812,115.839L300.66,120.735C300.444,121.599 300.588,121.815 301.524,121.815L305.412,121.815C306.348,121.815 306.636,121.599 306.78,120.735L308.508,110.871C308.724,110.007 308.508,109.719 307.644,109.431C304.404,108.495 300.732,107.847 296.628,107.847C284.532,107.847 278.34,114.903 278.34,123.039Z" style="fill:white;fill-rule:nonzero;"/>
                <path d="M366.468,130.455C366.468,124.767 363.3,121.527 357.252,121.527C353.004,121.527 348.828,123.327 345.228,127.863C344.436,124.263 341.772,121.527 336.588,121.527C332.628,121.527 328.092,122.967 324.492,127.791L325.14,123.399C325.284,122.535 325.068,122.319 324.132,122.319L315.132,122.319C314.196,122.319 313.98,122.535 313.836,123.399L313.188,127.071C313.116,127.935 313.26,128.151 314.196,128.079L317.292,128.079L312.252,156.879C312.108,157.743 312.252,157.959 313.188,157.959L318.804,157.959C319.74,157.959 320.028,157.743 320.172,156.879L323.916,135.927C324.564,132.399 328.092,128.439 332.628,128.439C336.012,128.439 337.02,130.167 337.02,132.831C337.02,134.055 336.804,135.495 336.516,137.151L333.06,156.879C332.916,157.743 333.06,157.959 333.996,157.959L339.756,157.959C340.692,157.959 340.98,157.743 341.124,156.879L344.94,134.919C345.516,131.679 349.188,128.439 353.436,128.439C356.82,128.439 357.9,130.167 357.9,132.831C357.9,134.055 357.684,135.567 357.324,137.511L354.372,152.055C353.508,156.303 355.092,158.895 359.772,158.895C362.796,158.895 365.82,157.239 367.62,155.799C368.34,155.223 368.412,154.935 367.98,154.143L367.404,152.991C367.044,152.199 366.756,152.127 365.892,152.487C365.1,152.847 364.452,153.063 363.732,153.063C362.58,153.063 362.364,152.343 362.652,150.831L365.82,135.495C366.252,133.335 366.468,131.607 366.468,130.455Z" style="fill:white;fill-rule:nonzero;"/>
                <path d="M377.844,122.319C376.908,122.319 376.62,122.535 376.476,123.399L375.756,127.143C375.612,128.007 375.756,128.223 376.692,128.151L379.788,128.151L375.684,152.055C374.964,156.303 376.404,158.895 381.084,158.895C384.108,158.895 387.132,157.239 388.932,155.799C389.652,155.223 389.724,154.935 389.292,154.143L388.716,152.991C388.356,152.199 388.068,152.127 387.204,152.487C386.412,152.847 385.764,153.063 385.044,153.063C383.892,153.063 383.604,152.343 383.892,150.831L388.788,123.399C388.932,122.535 388.788,122.319 387.852,122.319L377.844,122.319ZM384.9,116.199C387.996,116.199 390.516,114.039 390.516,110.655C390.516,108.135 388.932,105.903 385.548,105.903C382.884,105.903 380.076,108.207 380.076,111.447C380.076,114.039 381.876,116.199 384.9,116.199Z" style="fill:white;fill-rule:nonzero;"/>
                <path d="M416.868,128.223C417.804,128.295 418.092,128.079 418.236,127.215L418.884,123.399C419.028,122.535 418.884,122.319 417.948,122.319L410.748,122.319L412.404,112.599C412.548,111.735 412.404,111.519 411.468,111.519L405.708,111.519C404.772,111.519 404.556,111.735 404.34,112.599L402.684,122.319L398.652,122.319C397.716,122.319 397.5,122.535 397.284,123.399L396.708,127.215C396.564,128.079 396.708,128.295 397.644,128.223L401.676,128.223L398.508,145.575C398.148,147.519 397.788,149.607 397.788,151.479C397.788,155.583 399.444,158.823 406.572,158.823C409.884,158.823 413.124,157.887 415.356,156.879C416.148,156.519 416.292,156.231 416.004,155.367L415.356,152.919C414.996,152.055 414.708,151.983 413.916,152.271C412.836,152.703 411.396,153.063 409.596,153.063C407.004,153.063 406.212,151.767 406.212,149.319C406.212,148.167 406.356,146.799 406.644,145.143L409.668,128.223L416.868,128.223Z" style="fill:white;fill-rule:nonzero;"/>
                <path d="M422.268,156.879C422.124,157.743 422.268,157.959 423.204,157.959L428.892,157.959C429.828,157.959 430.116,157.743 430.26,156.879L433.932,135.711C434.652,131.823 438.756,128.655 443.58,128.655C447.252,128.655 448.476,130.383 448.476,133.047C448.476,134.415 448.188,135.855 447.9,137.367L444.876,151.983C444.084,156.231 445.596,158.823 450.276,158.823C453.3,158.823 456.324,157.167 458.124,155.727C458.844,155.151 458.916,154.863 458.484,154.071L457.908,152.919C457.548,152.127 457.26,152.055 456.396,152.415C455.604,152.775 454.956,152.991 454.236,152.991C453.084,152.991 452.868,152.271 453.156,150.759L456.396,135.423C456.756,133.695 457.044,131.247 457.044,130.167C457.044,124.407 453.804,121.527 447.9,121.527C443.292,121.527 439.044,123.255 435.444,127.503L439.332,105.327C439.476,104.463 439.332,104.247 438.396,104.247L428.388,104.247C427.452,104.247 427.164,104.463 427.02,105.327L426.372,108.999C426.228,109.863 426.372,110.079 427.308,110.007L430.404,110.007L422.268,156.879Z" style="fill:white;fill-rule:nonzero;"/>
            </g>
        </g>
    </g>
</svg>
