<?xml version="1.0" encoding="UTF-8" standalone="no"?>
<!DOCTYPE svg PUBLIC "-//W3C//DTD SVG 1.1//EN" "http://www.w3.org/Graphics/SVG/1.1/DTD/svg11.dtd">
<svg width="100%" height="100%" viewBox="0 0 1200 1200" version="1.1" xmlns="http://www.w3.org/2000/svg" xmlns:xlink="http://www.w3.org/1999/xlink" xml:space="preserve" xmlns:serif="http://www.serif.com/" style="fill-rule:evenodd;clip-rule:evenodd;stroke-linejoin:round;stroke-miterlimit:1.41421;">
    <rect id="Artboard1" x="0" y="0" width="1200" height="1200" style="fill:none;"/>
    <clipPath id="_clip1">
        <rect id="Artboard11" serif:id="Artboard1" x="0" y="0" width="1200" height="1200"/>
    </clipPath>
    <g clip-path="url(#_clip1)">
        <g transform="matrix(1.04348,0,0,1.04348,-26.0879,-26.0878)">
            <path d="M740.603,1140.33L751.637,956.478L782.103,904.472C782.103,904.472 712.763,932.837 596.676,932.837C480.587,932.837 412.297,904.997 412.297,904.997L446.442,961.727L458.521,1140.33C458.521,1159.48 521.667,1175 599.564,1175C677.456,1175 740.603,1159.48 740.603,1140.33M705.799,281.772L728.958,190.233L857.206,55.285L823.404,26.494L687.627,170.247L660.737,279.613C640.5,278.934 620.252,278.597 600.003,278.601C457.004,278.601 341.079,294.899 341.079,314.997C341.079,335.098 457.004,351.393 600.003,351.393C743,351.393 858.921,335.098 858.921,314.997C858.922,300.198 796.052,287.458 705.799,281.772" style="fill:rgb(211,74,71);fill-rule:nonzero;"/>
            <path d="M692.327,333.036C692.327,333.036 687.31,334.16 672.556,334.224C657.798,334.286 647.321,334.128 643.147,330.328C642.024,329.307 641.411,327.28 641.417,325.908C641.43,323.296 643.283,321.757 645.646,320.793L647.88,324.298C646.908,324.633 646.355,325.03 646.352,325.453C646.343,327.437 661.442,328.795 672.991,328.649C684.541,328.505 698.496,327.554 698.508,325.598C698.508,325.007 697.453,324.451 695.617,324.011L697.841,320.532C700.834,321.461 703.446,323.256 703.442,326.363C703.41,331.64 696.688,332.444 692.327,333.036" style="fill:white;fill-rule:nonzero;"/>
            <path d="M856.954,55.55C860.179,51.825 855.285,42.298 846.024,34.275C836.758,26.254 826.633,22.769 823.404,26.494C820.176,30.219 825.074,39.745 834.339,47.765C843.6,55.789 853.728,59.277 856.954,55.55M734.435,691.256C731.396,662.012 798.401,619.66 781.206,618.303C744.187,620.42 725.764,661.686 707.139,704.907C700.315,720.747 676.96,788.29 661.643,779.973C646.33,771.66 681.497,716.119 691.352,683.135C679.979,691.475 638.27,723.879 627.522,693.531C610.241,708.209 573.313,716.16 577.479,677.605C568.286,693.89 547.653,716.626 522.885,707.179C490.361,694.775 541.733,591.167 554.506,596.393C567.281,601.62 551.928,625.22 547.906,634.386C539.062,654.556 528.844,679.911 535.671,685.103C547.364,693.998 579.181,651.462 579.889,650.527C585.84,642.666 602.794,591.231 616.458,597.136C630.122,603.043 582.375,670.953 600.229,684.431C603.83,687.15 618.561,682.753 627.523,673.058C633.322,666.787 631.328,652.892 650.656,606.798C669.984,560.707 687.211,503.304 700.467,507.677C713.723,512.048 702.797,541.509 698.041,552.492C675.727,604.037 637.139,689.2 655.336,682.75C673.534,676.305 683.011,675.928 700.83,655.074C718.65,634.22 717.829,599.871 729.707,600.601C741.588,601.331 739.594,612.345 736.713,620.732C748.402,607.355 792.126,579.18 802.682,607.086C815.187,640.121 740.126,687.84 758.841,685.404C777.088,683.033 806.65,664.31 819.271,647.287L854.012,334.953C854.012,334.953 819.053,363.884 596.646,363.884C374.238,363.884 342.896,335.555 342.896,335.555L372.473,620.641C388.172,576.02 425.453,485.768 484.217,488.798C510.948,490.176 546.633,541.648 516.066,543.392C503.128,544.128 501.814,517.701 486.493,513.82C475.436,511.018 460.045,520.007 450.097,529.745C430.258,549.161 387.59,625.765 393.227,663.956C400.411,712.645 460.416,647.038 470.571,627.56C477.72,613.837 482.551,573.185 498.19,577.45C513.831,581.716 496.827,623.671 485.49,660.763C472.754,702.415 466.058,746.351 450.097,741.298C434.133,736.247 460.136,682.476 459.196,673.056C444.192,686.9 416.55,721.945 381.186,704.599L399.555,881.636C399.555,881.636 448.375,920.208 595.444,920.208C742.51,920.208 793.138,882.237 793.138,882.237L815.949,677.184C797.277,695.361 738.216,727.631 734.435,691.256" style="fill:rgb(211,74,71);fill-rule:nonzero;"/>
        </g>
    </g>
</svg>
