<?xml version="1.0" encoding="UTF-8" standalone="no"?>
<!DOCTYPE svg PUBLIC "-//W3C//DTD SVG 1.1//EN" "http://www.w3.org/Graphics/SVG/1.1/DTD/svg11.dtd">
<svg width="100%" height="100%" viewBox="0 0 462 462" version="1.1" xmlns="http://www.w3.org/2000/svg" xmlns:xlink="http://www.w3.org/1999/xlink" xml:space="preserve" xmlns:serif="http://www.serif.com/" style="fill-rule:evenodd;clip-rule:evenodd;stroke-linejoin:round;stroke-miterlimit:1.41421;">
    <g transform="matrix(1.04437,0,0,1.04437,-81.7804,-29.2676)">
        <g id="Artboard1">
            <g>
                <g transform="matrix(1,0,0,1,173.243,293.389)">
                    <path d="M0,-38.822C0,-40.663 -0.969,-42.355 -2.558,-43.267L-44.913,-67.642C-45.629,-68.064 -46.432,-68.283 -47.244,-68.316L-47.682,-68.316C-48.492,-68.283 -49.294,-68.064 -50.021,-67.642L-92.376,-43.267C-93.955,-42.355 -94.937,-40.663 -94.937,-38.822L-94.844,26.813C-94.844,27.726 -94.37,28.575 -93.567,29.023C-92.781,29.494 -91.809,29.494 -91.026,29.023L-65.854,14.609C-64.262,13.664 -63.293,11.995 -63.293,10.17L-63.293,-20.494C-63.293,-22.322 -62.325,-24.014 -60.739,-24.923L-50.021,-31.096C-49.222,-31.557 -48.349,-31.783 -47.457,-31.783C-46.584,-31.783 -45.689,-31.557 -44.913,-31.096L-34.198,-24.923C-32.612,-24.014 -31.64,-22.322 -31.64,-20.494L-31.64,10.17C-31.64,11.995 -30.658,13.674 -29.076,14.609L-3.911,29.023C-3.122,29.494 -2.136,29.494 -1.354,29.023C-0.574,28.575 -0.083,27.726 -0.083,26.813L0,-38.822Z" style="fill:rgb(51,51,51);"/>
                </g>
                <g transform="matrix(1,0,0,1,373.109,209.789)">
                    <path d="M0,78.954C0,79.41 -0.244,79.833 -0.64,80.06L-15.188,88.446C-15.583,88.673 -16.07,88.673 -16.465,88.446L-31.013,80.06C-31.41,79.833 -31.653,79.41 -31.653,78.954L-31.653,62.155C-31.653,61.699 -31.41,61.276 -31.014,61.047L-16.467,52.645C-16.07,52.416 -15.583,52.416 -15.186,52.645L-0.639,61.047C-0.244,61.276 0,61.699 0,62.155L0,78.954ZM3.931,-45.449C3.138,-45.889 2.171,-45.88 1.388,-45.42C0.607,-44.961 0.126,-44.121 0.126,-43.214L0.126,21.786C0.126,22.425 -0.216,23.017 -0.768,23.337C-1.322,23.657 -2.005,23.657 -2.559,23.337L-13.168,17.225C-14.75,16.312 -16.697,16.314 -18.28,17.226L-60.651,41.679C-62.235,42.593 -63.21,44.282 -63.21,46.11L-63.21,95.026C-63.21,96.854 -62.235,98.542 -60.653,99.458L-18.283,123.929C-16.699,124.843 -14.749,124.843 -13.165,123.929L29.212,99.458C30.794,98.542 31.77,96.854 31.77,95.026L31.77,-26.91C31.77,-28.764 30.766,-30.474 29.146,-31.378L3.931,-45.449Z" style="fill:rgb(51,51,51);"/>
                </g>
                <g transform="matrix(1,0,0,1,518.131,287.397)">
                    <path d="M0,-15.892C1.576,-16.807 2.546,-18.493 2.546,-20.316L2.546,-32.17C2.546,-33.993 1.576,-35.68 -0.002,-36.595L-42.101,-61.038C-43.685,-61.959 -45.64,-61.96 -47.228,-61.045L-89.584,-36.592C-91.167,-35.678 -92.142,-33.99 -92.142,-32.162L-92.142,16.741C-92.142,18.581 -91.155,20.278 -89.558,21.187L-47.465,45.172C-45.913,46.058 -44.01,46.068 -42.448,45.2L-16.988,31.049C-16.18,30.599 -15.677,29.752 -15.672,28.83C-15.666,27.907 -16.157,27.053 -16.956,26.594L-59.581,2.129C-60.377,1.673 -60.867,0.825 -60.867,-0.09L-60.867,-15.416C-60.867,-16.33 -60.379,-17.176 -59.586,-17.632L-46.32,-25.28C-45.531,-25.736 -44.556,-25.736 -43.766,-25.28L-30.494,-17.632C-29.701,-17.176 -29.214,-16.33 -29.214,-15.416L-29.214,-3.358C-29.214,-2.442 -28.724,-1.596 -27.931,-1.14C-27.138,-0.682 -26.161,-0.686 -25.37,-1.145L0,-15.892Z" style="fill:rgb(51,51,51);"/>
                </g>
                <g transform="matrix(1,0,0,1,472.842,289.685)">
                    <path d="M0,-20.471C0.304,-20.647 0.678,-20.647 0.982,-20.471L9.112,-15.781C9.416,-15.605 9.603,-15.281 9.603,-14.93L9.603,-5.542C9.603,-5.19 9.416,-4.867 9.112,-4.691L0.982,0C0.678,0.176 0.304,0.176 0,0L-8.124,-4.691C-8.428,-4.867 -8.615,-5.19 -8.615,-5.542L-8.615,-14.93C-8.615,-15.281 -8.428,-15.605 -8.124,-15.781L0,-20.471Z" style="fill:rgb(101,159,102);"/>
                </g>
                <g transform="matrix(0.957515,0,0,0.957515,78.306,28.0247)">
                    <path d="M148.915,218.343L167.893,207.4C168.656,206.869 169.543,206.7 170.553,206.692C171.442,206.726 172.372,206.88 173.143,207.359L177.993,210.157L188.373,216.103L197.228,221.254L217.21,232.782C218.833,233.779 219.816,235.468 219.79,237.366L219.827,288.18C219.823,288.494 219.792,288.806 219.736,289.112L219.75,289.137C219.653,289.622 219.495,290.087 219.281,290.521C218.915,291.287 218.377,291.961 217.694,292.463C217.539,292.583 217.376,292.696 217.207,292.8L198.791,303.433L173.208,318.235C172.592,318.594 171.936,318.813 171.272,318.902C171.167,318.929 171.057,318.961 170.936,319C170.354,319.028 169.754,318.953 169.158,318.757C168.717,318.637 168.287,318.463 167.877,318.237L123.81,292.814C123.693,292.742 123.579,292.666 123.469,292.586C123.126,292.36 122.802,292.063 122.518,291.726C121.682,290.77 121.212,289.551 121.229,288.229L121.193,237.416C121.218,235.517 122.214,233.692 123.863,232.79L124.027,232.696L124.014,232.672L148.915,218.343Z" style="fill:rgb(101,159,102);fill-rule:nonzero;"/>
                </g>
            </g>
        </g>
    </g>
</svg>
