<svg version="1.1" id="Layer_1" focusable="false" xmlns="http://www.w3.org/2000/svg" xmlns:xlink="http://www.w3.org/1999/xlink"
	 x="0px" y="0px" viewBox="0 0 1571 1571" style="enable-background:new 0 0 1571 1571;" xml:space="preserve">
<style type="text/css">
	.st0{fill:#FFFFFF;stroke:#FFFFFF;stroke-width:28;stroke-miterlimit:10;}
</style>
<rect width="1571" height="1571"/>
<g>
	<path class="st0" d="M562.2,1111.4c-9,0-13.5-12-13.5-36.1V480.2c0-11.5-2.3-16.9-7-16.2c-28.4,7.2-42.7,10.8-43.1,10.8
		c-7.9,0.7-11.8-7.2-11.8-23.7v-51.7c0-14.3,4.3-22.4,12.9-24.2l142.2-36.6c1.1-0.3,2.7-0.5,4.8-0.5c7.9,0,11.8,8.4,11.8,25.3v712
		c0,24.1-4.7,36.1-14,36.1L562.2,1111.4z M930.5,1112.5c-14.4,0-26.8-1-37.4-3c-10.6-2-21.6-6.5-33.1-13.5s-20.9-16.6-28.3-28.8
		s-13.4-29.3-18-51.2c-4.6-21.9-7-47.9-7-78.1V661.7c0-7.2-2-10.8-5.9-10.8h-33.4c-9,0-13.5-8.6-13.5-25.8V596
		c0-17.6,4.5-26.4,13.5-26.4h33.4c3.9,0,5.9-4.8,5.9-14.5l9.7-209.5c1.1-19,5.7-28.5,14-28.5h53.9c9,0,13.5,9.5,13.5,28.5v209.5
		c0,9.7,2.1,14.5,6.5,14.5H973c9,0,13.5,8.8,13.5,26.4v29.1c0,17.2-4.5,25.8-13.5,25.8h-68.9c-2.5,0-4.2,0.6-5.1,1.9
		c-0.9,1.2-1.3,4.2-1.3,8.9v277.9c0,20.8,1.3,38.2,4,52s6.6,24,11.8,30.4c5.2,6.4,10.4,10.8,15.6,12.9c5.2,2.2,11.6,3.2,19.1,3.2
		h38.2c9.7,0,14.5,6.7,14.5,19.9v32.3c0,14.7-5.2,22.1-15.6,22.1L930.5,1112.5L930.5,1112.5z M1137.2,1177.1
		c8.2,0,15.4-6.7,21.5-20.2s9.2-32.6,9.2-57.4c0-5.8-3.6-25.7-10.8-59.8l-105.6-438.9c-0.7-5-1.1-9-1.1-11.9
		c0-12.9,2.7-19.4,8.1-19.4h65.2c5,0,9.1,1.7,12.4,5.1s5.8,10.3,7.5,20.7l70,370.5c1.4,4.3,2.3,6.5,2.7,6.5c1.4,0,2.2-2,2.2-5.9
		l54.9-369.5c1.4-10.8,3.7-18,6.7-21.8s6.9-5.7,11.6-5.7h45.2c6.1,0,9.2,7,9.2,21c0,3.2-0.4,7.4-1.1,12.4l-95.9,499.3
		c-7.5,41.3-15.8,72.9-24.8,94.8s-19,36.8-30.2,44.7c-11.1,7.9-25.8,12-44.2,12.4h-5.4c-29.1,0-48.8-7.7-59.2-23.2
		c-2.9-3.2-4.3-11.5-4.3-24.8c0-26.6,4.3-39.9,12.9-39.9c0.7,0,7.2,1.8,19.4,5.4C1125.7,1175.3,1133.6,1177.1,1137.2,1177.1
		L1137.2,1177.1z"/>
	<g>
		<path class="st0" d="M291.2,1112.4c-9,0-13.5-12-13.5-36.1V481.2c0-11.5-2.3-16.9-7-16.2c-28.4,7.2-42.7,10.8-43.1,10.8
			c-7.9,0.7-11.8-7.2-11.8-23.7v-51.7c0-14.3,4.3-22.4,12.9-24.2L371,339.5c1.1-0.3,2.7-0.5,4.8-0.5c7.9,0,11.8,8.4,11.8,25.3v712
			c0,24.1-4.7,36.1-14,36.1H291.2L291.2,1112.4z"/>
	</g>
</g>
</svg>
