<?xml version="1.0" encoding="UTF-8" standalone="no"?>
<!DOCTYPE svg PUBLIC "-//W3C//DTD SVG 1.1//EN" "http://www.w3.org/Graphics/SVG/1.1/DTD/svg11.dtd">
<svg width="100%" height="100%" viewBox="0 0 256 256" version="1.1" xmlns="http://www.w3.org/2000/svg" xmlns:xlink="http://www.w3.org/1999/xlink" xml:space="preserve" xmlns:serif="http://www.serif.com/" style="fill-rule:evenodd;clip-rule:evenodd;stroke-linejoin:round;stroke-miterlimit:1.41421;">
    <rect id="Artboard1" x="0" y="0" width="256" height="256" style="fill:none;"/>
    <clipPath id="_clip1">
        <rect id="Artboard11" serif:id="Artboard1" x="0" y="0" width="256" height="256"/>
    </clipPath>
    <g clip-path="url(#_clip1)">
        <g transform="matrix(1,0,0,1,0,17.6)">
            <path d="M204.8,0L256,0L128,220.8L0,0L97.92,0L128,51.2L157.44,0L204.8,0Z" style="fill:rgb(65,184,131);fill-rule:nonzero;"/>
            <path d="M0,0L128,220.8L256,0L204.8,0L128,132.48L50.56,0L0,0Z" style="fill:rgb(65,184,131);fill-rule:nonzero;"/>
            <path d="M50.56,0L128,133.12L204.8,0L157.44,0L128,51.2L97.92,0L50.56,0Z" style="fill:rgb(53,73,94);fill-rule:nonzero;"/>
        </g>
    </g>
</svg>
