<svg width="0" height="0" style="position:absolute"><symbol viewBox="0 0 1200 1200" fill-rule="evenodd" clip-rule="evenodd" stroke-linejoin="round" stroke-miterlimit="1.414" id="icon-gulp" xmlns="http://www.w3.org/2000/svg"><path fill="none" d="M0 0h1200v1200H0z"/><clipPath id="aa"><path d="M0 0h1200v1200H0z"/></clipPath><g fill-rule="nonzero" clip-path="url(#aa)"><path d="M746.717 1163.824l11.513-191.846 31.79-54.267s-72.354 29.598-193.488 29.598c-121.137 0-192.396-29.05-192.396-29.05l35.63 59.196 12.604 186.369c0 19.982 65.891 36.177 147.175 36.177 81.279 0 147.172-16.195 147.172-36.177m-36.318-895.888l24.166-95.52L868.39 31.602 833.118 1.558l-141.68 150.004-28.06 114.12a1878.843 1878.843 0 00-63.375-1.055c-149.216 0-270.182 17.006-270.182 37.978 0 20.975 120.966 37.979 270.182 37.979 149.215 0 270.176-17.004 270.176-37.979.001-15.442-65.603-28.736-159.78-34.67" fill="#d34a47"/><path d="M696.341 321.429s-5.235 1.172-20.63 1.24c-15.4.064-26.332-.1-30.688-4.066-1.172-1.066-1.811-3.18-1.805-4.612.013-2.726 1.947-4.332 4.413-5.338l2.33 3.658c-1.013.35-1.59.764-1.594 1.205-.009 2.07 15.747 3.487 27.798 3.335 12.052-.15 26.614-1.143 26.626-3.184 0-.616-1.1-1.197-3.016-1.656l2.32-3.63c3.123.97 5.849 2.842 5.845 6.084-.034 5.507-7.048 6.346-11.599 6.964" fill="#fff"/><path d="M868.126 31.878c3.366-3.887-1.741-13.829-11.405-22.2-9.669-8.37-20.234-12.007-23.603-8.12-3.369 3.887 1.742 13.827 11.41 22.196 9.664 8.373 20.232 12.013 23.598 8.124M740.28 695.224c-3.17-30.516 66.748-74.709 48.805-76.125-38.629 2.21-57.853 45.27-77.287 90.37-7.121 16.528-31.492 87.008-47.475 78.33-15.978-8.675 20.718-66.63 31.001-101.05-11.867 8.704-55.39 42.516-66.605 10.849-18.033 15.316-56.566 23.613-52.22-16.619-9.592 16.994-31.122 40.718-56.967 30.86-33.938-12.943 19.668-121.056 32.996-115.603 13.33 5.455-2.69 30.08-6.887 39.645-9.228 21.047-19.89 47.505-12.767 52.922 12.201 9.282 45.402-35.103 46.14-36.079 6.21-8.203 23.902-61.874 38.16-55.712 14.258 6.164-35.565 77.026-16.935 91.09 3.758 2.837 19.13-1.75 28.48-11.867 6.052-6.544 3.971-21.043 24.14-69.141 20.168-48.095 38.144-107.994 51.976-103.431 13.833 4.561 2.432 35.303-2.531 46.764-23.284 53.786-63.55 142.652-44.562 135.921 18.99-6.725 28.878-7.118 47.472-28.88 18.595-21.76 17.738-57.602 30.133-56.84 12.397.761 10.317 12.254 7.31 21.006 12.198-13.959 57.823-43.36 68.838-14.24 13.048 34.472-65.276 84.265-45.747 81.724 19.04-2.475 49.887-22.012 63.057-39.775l36.252-325.914s-36.48 30.189-268.557 30.189c-232.078 0-264.783-29.56-264.783-29.56l30.863 297.48c16.382-46.56 55.284-140.737 116.603-137.575 27.893 1.438 65.13 55.148 33.234 56.968-13.5.768-14.872-26.808-30.86-30.858-11.537-2.924-27.597 6.456-37.978 16.618-20.701 20.26-65.224 100.194-59.342 140.046 7.496 50.806 70.11-17.654 80.707-37.978 7.46-14.32 12.5-56.74 28.82-52.29 16.32 4.452-1.423 48.231-13.253 86.936-13.29 43.463-20.277 89.31-36.932 84.037-16.658-5.27 10.476-61.38 9.495-71.21-15.656 14.447-44.5 51.015-81.402 32.915l19.168 184.735s50.942 40.249 204.406 40.249c153.46 0 206.29-39.622 206.29-39.622l23.803-213.969c-19.484 18.967-81.113 52.64-85.059 14.684" fill="#d34a47"/></g></symbol><symbol viewBox="0 0 512 512" fill-rule="evenodd" clip-rule="evenodd" stroke-linejoin="round" stroke-miterlimit="1.414" id="icon-html" xmlns="http://www.w3.org/2000/svg"><path fill="none" d="M0 0h512v512H0z"/><clipPath id="ba"><path d="M0 0h512v512H0z"/></clipPath><g clip-path="url(#ba)" fill-rule="nonzero"><path d="M108.4 0h23v22.8h21.2V0h23v69h-23V46h-21v23h-23.2M206 23h-20.3V0h63.7v23H229v46h-23m53.5-69h24.1l14.8 24.3L313.2 0h24.1v69h-23V34.8l-16.1 24.8-16.1-24.8V69h-22.6m89.2-69h23v46.2h32.6V69h-55.6"/><path d="M107.6 471l-33-370.4h362.8l-33 370.2L255.7 512" fill="#e44d26"/><path d="M256 480.5V131h148.3L376 447" fill="#f16529"/><path d="M142 176.3h114v45.4h-64.2l4.2 46.5h60v45.3H154.4m2 22.8H202l3.2 36.3 50.8 13.6v47.4l-93.2-26" fill="#ebebeb"/><path d="M369.6 176.3H255.8v45.4h109.6m-4.1 46.5H255.8v45.4h56l-5.3 59-50.7 13.6v47.2l93-25.8" fill="#fff"/></g></symbol><symbol viewBox="0 0 462 462" fill-rule="evenodd" clip-rule="evenodd" stroke-linejoin="round" stroke-miterlimit="1.414" id="icon-node" xmlns="http://www.w3.org/2000/svg"><path d="M99.15 236.595a5.335 5.335 0 00-2.672-4.643l-44.234-25.456a5.198 5.198 0 00-2.435-.704h-.457a5.276 5.276 0 00-2.443.704L2.675 231.952A5.36 5.36 0 000 236.595l.097 68.547c0 .953.495 1.84 1.334 2.308a2.57 2.57 0 002.654 0l26.288-15.054c1.663-.987 2.675-2.73 2.675-4.636v-32.024a5.323 5.323 0 012.667-4.626l11.194-6.447a5.318 5.318 0 012.678-.717c.911 0 1.846.236 2.657.717l11.19 6.447a5.327 5.327 0 012.672 4.626v32.024c0 1.906 1.025 3.66 2.677 4.636l26.282 15.054a2.6 2.6 0 002.67 0 2.67 2.67 0 001.328-2.308l.086-68.547zM307.883 272.287c0 .476-.254.918-.668 1.155l-15.193 8.758a1.34 1.34 0 01-1.334 0l-15.194-8.758a1.33 1.33 0 01-.668-1.155v-17.544c0-.477.254-.918.667-1.158l15.193-8.774c.414-.24.923-.24 1.338 0l15.192 8.774c.413.24.667.681.667 1.158v17.544zm4.106-129.923a2.674 2.674 0 00-3.974 2.334v67.884a1.87 1.87 0 01-2.804 1.62l-11.08-6.383a5.342 5.342 0 00-5.339.001l-44.25 25.538a5.342 5.342 0 00-2.673 4.628v51.086a5.349 5.349 0 002.67 4.629l44.25 25.556a5.346 5.346 0 005.345 0l44.258-25.556a5.35 5.35 0 002.671-4.629V161.726a5.345 5.345 0 00-2.74-4.667l-26.334-14.695zM459.34 254.284a5.343 5.343 0 002.659-4.62v-12.38a5.342 5.342 0 00-2.661-4.622l-43.967-25.527a5.344 5.344 0 00-5.354-.007l-44.236 25.538a5.342 5.342 0 00-2.671 4.626v51.073a5.342 5.342 0 002.698 4.643l43.961 25.05a5.34 5.34 0 005.24.029l26.59-14.78a2.67 2.67 0 00.033-4.652l-44.517-25.55a2.672 2.672 0 01-1.343-2.318v-16.006c0-.954.51-1.838 1.338-2.314l13.855-7.987a2.668 2.668 0 012.667 0l13.861 7.987a2.669 2.669 0 011.337 2.314v12.593a2.673 2.673 0 004.014 2.311l26.496-15.4z" fill="#333"/><path d="M412.042 251.891a1.023 1.023 0 011.025 0l8.49 4.899c.318.183.514.522.514.888v9.805c0 .367-.196.705-.513.889l-8.49 4.899a1.023 1.023 0 01-1.026 0l-8.485-4.9a1.025 1.025 0 01-.513-.888v-9.805c0-.366.196-.705.513-.888l8.485-4.899z" fill="#659f66"/><path d="M148.915 218.344l18.978-10.943c.763-.531 1.65-.7 2.66-.708.889.034 1.819.188 2.59.667l4.85 2.798 10.38 5.946 8.855 5.15 19.982 11.529c1.623.997 2.606 2.686 2.58 4.584l.037 50.814a5.574 5.574 0 01-.091.932l.014.025a5.62 5.62 0 01-.469 1.384 5.16 5.16 0 01-1.587 1.942c-.155.12-.318.233-.487.337l-18.416 10.633-25.583 14.802a5.209 5.209 0 01-1.936.667 5.792 5.792 0 00-.336.098 4.918 4.918 0 01-1.778-.243 5.819 5.819 0 01-1.281-.52l-44.067-25.423a5.323 5.323 0 01-.341-.228 4.517 4.517 0 01-.951-.86 5.168 5.168 0 01-1.289-3.497l-.036-50.813c.025-1.9 1.021-3.724 2.67-4.626l.164-.094-.013-.024 24.901-14.33z" fill="#659f66" fill-rule="nonzero"/></symbol><symbol viewBox="0 0 100 100" fill-rule="evenodd" clip-rule="evenodd" stroke-linejoin="round" stroke-miterlimit="1.414" id="icon-php" xmlns="http://www.w3.org/2000/svg"><path fill="none" d="M0 0h100v100H0z"/><clipPath id="da"><path d="M0 0h100v100H0z"/></clipPath><g clip-path="url(#da)"><path d="M7.913 35.446h14.83c4.353.037 7.508 1.292 9.463 3.763 1.956 2.472 2.601 5.847 1.937 10.127-.258 1.955-.83 3.873-1.715 5.755a17.108 17.108 0 01-3.542 5.091c-1.845 1.918-3.818 3.135-5.921 3.652-2.103.517-4.28.775-6.53.775h-6.64L7.692 75.123H0l7.913-39.677m6.475 6.309l-3.32 16.6c.22.037.442.056.664.056h.774c3.542.037 6.493-.313 8.854-1.051 2.36-.775 3.948-3.468 4.76-8.08.663-3.873 0-6.105-1.993-6.695-1.956-.59-4.408-.867-7.36-.83a15.49 15.49 0 01-1.273.055h-1.162l.056-.055M42.905 24.877h7.637l-2.158 10.57h6.861c3.763.073 6.567.848 8.412 2.323 1.881 1.476 2.435 4.28 1.66 8.412l-3.708 18.427h-7.747l3.542-17.597c.368-1.845.257-3.155-.332-3.93-.59-.774-1.863-1.161-3.819-1.161l-6.142-.056-4.538 22.744h-7.636l7.968-39.732M73.517 35.446h14.83c4.353.037 7.508 1.292 9.463 3.763 1.956 2.472 2.601 5.847 1.937 10.127-.258 1.955-.83 3.873-1.715 5.755a17.108 17.108 0 01-3.542 5.091c-1.845 1.918-3.818 3.135-5.921 3.652-2.103.517-4.28.775-6.53.775H75.4l-2.103 10.514h-7.692l7.913-39.677m6.475 6.309l-3.32 16.6c.22.037.442.056.663.056h.775c3.542.037 6.493-.313 8.854-1.051 2.36-.775 3.948-3.468 4.76-8.08.663-3.873 0-6.105-1.993-6.695-1.956-.59-4.408-.867-7.36-.83a15.49 15.49 0 01-1.273.055h-1.162l.056-.055" fill-rule="nonzero"/></g></symbol><symbol id="icon-react" viewBox="0 0 490.6 490.6" xmlns="http://www.w3.org/2000/svg"><defs><style>.ecls-1{fill:#61dafb}</style></defs><path class="ecls-1" d="M490.6 245.35c0-32.5-40.7-63.3-103.1-82.4 14.4-63.6 8-114.2-20.2-130.4A43.84 43.84 0 00344.9 27v22.3a23.16 23.16 0 0111.4 2.6c13.6 7.8 19.5 37.5 14.9 75.7-1.1 9.4-2.9 19.3-5.1 29.4a484.62 484.62 0 00-63.5-10.9 487.8 487.8 0 00-41.6-50c32.6-30.3 63.2-46.9 84-46.9V26.85c-27.5 0-63.5 19.6-99.9 53.6-36.4-33.8-72.4-53.2-99.9-53.2v22.3c20.7 0 51.4 16.5 84 46.6a472.31 472.31 0 00-41.3 49.9 467 467 0 00-63.6 11c-2.3-10-4-19.7-5.2-29-4.7-38.2 1.1-67.9 14.6-75.8 3-1.8 6.9-2.6 11.5-2.6v-22.3A44.59 44.59 0 00122.6 33c-28.1 16.2-34.4 66.7-19.9 130.1C40.5 182.25 0 213 0 245.35s40.7 63.3 103.1 82.4c-14.4 63.6-8 114.2 20.2 130.4 6.5 3.8 14.1 5.6 22.5 5.6 27.5 0 63.5-19.6 99.9-53.6 36.4 33.8 72.4 53.2 99.9 53.2a44.59 44.59 0 0022.6-5.6c28.1-16.2 34.4-66.7 19.9-130.1 62-19.1 102.5-49.9 102.5-82.3zm-130.2-66.7c-3.7 12.9-8.3 26.2-13.5 39.5-4.1-8-8.4-16-13.1-24s-9.5-15.8-14.4-23.4c14.2 2.1 27.9 4.7 41 7.9zm-45.8 106.5c-7.8 13.5-15.8 26.3-24.1 38.2-14.9 1.3-30 2-45.2 2s-30.2-.7-45-1.9q-12.45-17.85-24.2-38-11.4-19.65-20.8-39.8c6.2-13.4 13.2-26.8 20.7-39.9 7.8-13.5 15.8-26.3 24.1-38.2 14.9-1.3 30-2 45.2-2s30.2.7 45 1.9q12.45 17.85 24.2 38 11.4 19.65 20.8 39.8c-6.3 13.4-13.2 26.8-20.7 39.9zm32.3-13c5.4 13.4 10 26.8 13.8 39.8-13.1 3.2-26.9 5.9-41.2 8 4.9-7.7 9.8-15.6 14.4-23.7s8.9-16.1 13-24.1zm-101.4 106.7a412.27 412.27 0 01-27.8-32c9 .4 18.2.7 27.5.7s18.7-.2 27.8-.7a390.33 390.33 0 01-27.5 32zM171.1 320c-14.2-2.1-27.9-4.7-41-7.9 3.7-12.9 8.3-26.2 13.5-39.5 4.1 8 8.4 16 13.1 24s9.5 15.75 14.4 23.4zM245 111.85a412.27 412.27 0 0127.8 32c-9-.4-18.2-.7-27.5-.7s-18.7.2-27.8.7a390.33 390.33 0 0127.5-32zm-74 58.9c-4.9 7.7-9.8 15.6-14.4 23.7s-8.9 16-13 24c-5.4-13.4-10-26.8-13.8-39.8 13.1-3.1 26.9-5.8 41.2-7.9zM80.5 296c-35.4-15.1-58.3-34.9-58.3-50.6s22.9-35.6 58.3-50.6c8.6-3.7 18-7 27.7-10.1a480.28 480.28 0 0022.5 60.9 473.51 473.51 0 00-22.2 60.6c-9.9-3.15-19.3-6.55-28-10.2zm53.8 142.9c-13.6-7.8-19.5-37.5-14.9-75.7 1.1-9.4 2.9-19.3 5.1-29.4a484.62 484.62 0 0063.5 10.9 487.8 487.8 0 0041.6 50c-32.6 30.3-63.2 46.9-84 46.9a23.87 23.87 0 01-11.3-2.75zm237.2-76.2c4.7 38.2-1.1 67.9-14.6 75.8-3 1.8-6.9 2.6-11.5 2.6-20.7 0-51.4-16.5-84-46.6a472.31 472.31 0 0041.3-49.9 467 467 0 0063.6-11 279.94 279.94 0 015.2 29.05zM410 296c-8.6 3.7-18 7-27.7 10.1a480.28 480.28 0 00-22.5-60.9 473.51 473.51 0 0022.2-60.6c9.9 3.1 19.3 6.5 28.1 10.2 35.4 15.1 58.3 34.9 58.3 50.6S445.4 281 410 296z"/><circle class="ecls-1" cx="245.2" cy="245.35" r="45.7"/></symbol><symbol viewBox="0 0 2284 2284" fill-rule="evenodd" clip-rule="evenodd" stroke-linejoin="round" stroke-miterlimit="1.414" id="icon-sass" xmlns="http://www.w3.org/2000/svg"><path fill="none" d="M0 0h2283.33v2283.33H0z"/><clipPath id="fa"><path d="M0 0h2283.33v2283.33H0z"/></clipPath><g clip-path="url(#fa)"><path d="M1614.283 1579.077c-7.242-5.154-6.038-21.812 17.779-73.696 9.35-20.37 30.683-54.666 67.77-87.441 4.297 13.479 6.917 26.404 6.842 38.437-.479 80.275-57.754 110.254-92.391 122.7zm-304.867 69.496c-9.709 5.08-18.609 8.27-22.746 5.808-3.033-1.812 4.004-8.5 4.004-8.5s49.504-53.25 69-77.5c11.342-14.1 24.492-30.837 38.821-49.558.117 1.87.18 3.725.18 5.558-.147 63.8-61.776 106.875-89.26 124.192zm-395.742-188.825c-22.9 55.83-70.83 198.658-100 191.004-25.042-6.57-40.292-115.146-5-222 17.762-53.787 55.708-118.058 78-143.004 35.887-40.142 75.4-53.271 85-36.996 12.237 20.737-43.642 176-58 210.996zm-479 325.634c-65.75 71.729-157.613 98.837-197 76.004-42.534-24.663-25.688-130.263 55-206.38 49.178-46.387 112.662-89.112 154.783-115.429 9.583-5.767 23.666-14.237 40.779-24.492 2.837-1.616 4.437-2.512 4.437-2.512l-.062-.108c3.304-1.975 6.687-4.005 10.183-6.092 29.359 108.342.892 203.725-68.12 279.009zm1530.042-515.826c-79.77.421-148.862 19.571-206.78 48.117-21.182-42.275-42.62-79.467-46.22-107.121-4.204-32.283-9.075-51.542-4-90 5.08-38.459 27.33-92.917 27.004-96.996-.325-4.08-4.991-23.67-51-24.004-46.012-.33-85.37 8.85-90 21-4.633 12.15-13.492 39.491-19.004 68-8.058 41.72-91.863 190.512-139.446 268.354-15.563-30.379-28.796-57.167-31.554-78.35-4.2-32.283-9.075-51.542-4-90.004 5.079-38.454 27.329-92.921 27.004-97-.325-4.08-4.988-23.667-51-24-46.013-.33-85.371 8.85-90 21-4.633 12.15-9.58 40.537-19.004 68-9.425 27.467-120.825 275.67-150 340.004-14.867 32.78-27.805 59.113-36.938 77.1l-.058-.1s-.563 1.196-1.534 3.217c-7.82 15.308-12.47 23.78-12.47 23.78l.137.316c-6.2 11.242-12.846 21.683-16.137 21.683-2.3 0-6.905-29.925 1.004-71 16.575-86.1 56.396-220.375 56-225-.209-2.37 7.4-25.767-26.009-38-32.466-11.883-44.029 7.937-46.991 8-2.871.062-5.005 7.004-5.005 7.004s36.176-151-69-151c-65.754 0-156.866 71.93-201.75 137.13a59197.146 59197.146 0 00-153.246 83.87 67268.73 67268.73 0 00-73.804 40.604c-1.625-1.8-3.246-3.604-4.917-5.387-127.533-136.063-363.287-232.3-353.283-415.221 3.637-66.5 26.75-241.6 453.004-453.996 349.167-173.992 628.693-126.113 677-20 69.01 151.595-149.39 433.35-512.004 473.996-138.158 15.487-210.904-38.054-229-58-19.046-20.992-21.887-21.938-29-18-11.583 6.42-4.242 24.954 0 36 10.83 28.179 55.254 78.146 131 103 66.634 21.866 228.842 33.879 425-42 219.709-84.984 391.268-321.392 340.876-518.996-51.246-200.98-384.484-267.05-699.872-155-187.708 66.683-390.904 171.341-537.004 308C19.002 811.039-8.698 952.46 2.715 1011.552c40.558 209.962 329.954 346.692 445.842 448.025-5.721 3.154-11.084 6.117-15.963 8.808-58.104 28.742-278.7 144.188-333.88 266.167-62.591 138.363 9.963 237.634 58 251 148.826 41.413 301.551-33.074 383.626-155.495 82.058-122.392 72.038-281.759 34.375-354.505-.467-.904-.983-1.787-1.462-2.683 15-8.88 30.3-17.909 45.462-26.813 29.571-17.362 58.596-33.562 83.788-47.27-14.092 38.62-24.417 84.912-29.788 151.766-6.308 78.542 25.88 180.063 68 220.005 18.546 17.583 40.859 17.995 55 17.995 49.013 0 71.38-40.775 96-89 30.205-59.146 57-128 57-128s-33.633 186 58.005 186c33.387 0 66.97-43.296 81.929-65.37.046.241.067.37.067.37s.866-1.437 2.57-4.32c3.467-5.3 5.43-8.676 5.43-8.676s.066-.35.175-.958c13.42-23.304 43.187-76.433 87.829-164.046 57.675-113.196 112.996-255 112.996-255s5.146 34.67 22 92c9.916 33.733 30.983 71.02 47.604 106.78-13.38 18.562-21.604 29.224-21.604 29.224l.225.554c-10.692 14.192-22.68 29.509-35.221 44.442-45.521 54.217-99.742 116.13-107.004 134-8.55 21.054-6.53 36.542 10 49 12.075 9.1 33.57 10.513 56 9 40.908-2.75 69.691-12.896 83.891-19.075 22.138-7.829 47.917-20.141 72.113-37.925 44.654-32.829 71.588-79.791 69-142-1.433-34.283-12.367-68.262-26.196-100.342a2728.913 2728.913 0 0012.192-17.658c70.396-102.913 125-216 125-216s5.146 34.667 22.004 92c8.53 29.02 25.358 60.675 40.492 91.73-66.192 53.778-107.242 116.27-121.496 157.27-26.354 75.821-5.713 110.18 33.004 118 17.538 3.546 42.304-4.491 60.938-12.379 23.183-7.687 51.041-20.492 77.062-39.617 44.654-32.829 87.588-78.8 85-141.004-1.183-28.32-8.862-56.43-19.283-83.433 56.108-23.371 128.754-36.367 221.283-25.563 198.5 23.18 237.442 147.121 230 198.996-7.445 51.88-49.083 80.392-63.004 89.004-13.916 8.609-18.166 11.596-16.995 18 1.691 9.309 8.129 8.95 19.995 6.95 16.342-2.758 104.238-42.195 108-137.95 4.78-121.566-111.691-255.1-318-254z" fill="#cd679a" fill-rule="nonzero"/></g></symbol><symbol viewBox="0 0 256 256" fill-rule="evenodd" clip-rule="evenodd" stroke-linejoin="round" stroke-miterlimit="1.414" id="icon-vue" xmlns="http://www.w3.org/2000/svg"><path fill="none" d="M0 0h256v256H0z"/><clipPath id="ga"><path d="M0 0h256v256H0z"/></clipPath><g fill-rule="nonzero" clip-path="url(#ga)"><path d="M204.8 17.6H256L128 238.4 0 17.6h97.92L128 68.8l29.44-51.2h47.36z" fill="#41b883"/><path d="M0 17.6l128 220.8L256 17.6h-51.2L128 150.08 50.56 17.6H0z" fill="#41b883"/><path d="M50.56 17.6L128 150.72 204.8 17.6h-47.36L128 68.8 97.92 17.6H50.56z" fill="#35495e"/></g></symbol><symbol viewBox="0 0 123 123" fill-rule="evenodd" clip-rule="evenodd" stroke-linejoin="round" stroke-miterlimit="1.414" id="icon-wordpress" xmlns="http://www.w3.org/2000/svg"><path fill="none" d="M0 0h122.527v122.527H0z"/><clipPath id="ha"><path d="M0 0h122.527v122.527H0z"/></clipPath><g fill="#464342" fill-rule="nonzero" clip-path="url(#ha)"><path d="M8.708 61.26c0 20.802 12.089 38.779 29.619 47.298L13.258 39.872a52.354 52.354 0 00-4.55 21.388zM96.74 58.608c0-6.495-2.333-10.993-4.334-14.494-2.664-4.329-5.161-7.995-5.161-12.324 0-4.831 3.664-9.328 8.825-9.328.233 0 .454.029.681.042-9.35-8.566-21.807-13.796-35.489-13.796-18.36 0-34.513 9.42-43.91 23.688 1.233.037 2.395.063 3.382.063 5.497 0 14.006-.667 14.006-.667 2.833-.167 3.167 3.994.337 4.329 0 0-2.847.335-6.015.501L48.2 93.547l11.501-34.493-8.188-22.434c-2.83-.166-5.511-.501-5.511-.501-2.832-.166-2.5-4.496.332-4.329 0 0 8.679.667 13.843.667 5.496 0 14.006-.667 14.006-.667 2.835-.167 3.168 3.994.337 4.329 0 0-2.853.335-6.015.501l18.992 56.494 5.242-17.517c2.272-7.269 4.001-12.49 4.001-16.989z"/><path d="M62.184 65.857l-15.768 45.819a52.552 52.552 0 0014.846 2.141c6.12 0 11.989-1.058 17.452-2.979a4.615 4.615 0 01-.374-.724L62.184 65.857zM107.376 36.046c.226 1.674.354 3.471.354 5.404 0 5.333-.996 11.328-3.996 18.824l-16.053 46.413c15.624-9.111 26.133-26.038 26.133-45.426.001-9.137-2.333-17.729-6.438-25.215z"/><path d="M61.262 0C27.483 0 0 27.481 0 61.26c0 33.783 27.483 61.263 61.262 61.263 33.778 0 61.265-27.48 61.265-61.263C122.526 27.481 95.04 0 61.262 0zm0 119.715c-32.23 0-58.453-26.223-58.453-58.455 0-32.23 26.222-58.451 58.453-58.451 32.229 0 58.45 26.221 58.45 58.451 0 32.232-26.221 58.455-58.45 58.455z"/></g></symbol></svg>