<?xml version="1.0" encoding="UTF-8" standalone="no"?>
<!DOCTYPE svg PUBLIC "-//W3C//DTD SVG 1.1//EN" "http://www.w3.org/Graphics/SVG/1.1/DTD/svg11.dtd">
<svg width="100%" height="100%" viewBox="0 0 434 240" version="1.1" xmlns="http://www.w3.org/2000/svg" xmlns:xlink="http://www.w3.org/1999/xlink" xml:space="preserve" xmlns:serif="http://www.serif.com/" style="fill-rule:evenodd;clip-rule:evenodd;stroke-linejoin:round;stroke-miterlimit:1.41421;">
    <g id="Artboard1" transform="matrix(0.723333,0,0,0.4,0,0)">
        <rect x="0" y="0" width="600" height="600" style="fill:none;"/>
        <clipPath id="_clip1">
            <rect x="0" y="0" width="600" height="600"/>
        </clipPath>
        <g clip-path="url(#_clip1)">
            <g transform="matrix(1.36975,0,0,2.47697,-0.198317,-1.076)">
                <g transform="matrix(1,0,0,1,-52.4178,-60.9648)">
                    <g transform="matrix(1.07457,0,0,0.759546,-83.6072,-70.4509)">
                        <path d="M331.478,173.591L126.72,173.591L196.225,253.32L400.983,253.32L331.478,173.591Z" style="fill:#102046;"/>
                    </g>
                    <g transform="matrix(1.07457,0,0,-0.759546,-83.6072,314.365)">
                        <path d="M331.478,173.591L126.72,173.591L196.225,253.32L400.983,253.32L331.478,173.591Z" style="fill:#1e3c84;"/>
                    </g>
                </g>
                <g transform="matrix(1,0,0,1,-52.4178,60.151)">
                    <g transform="matrix(1.07457,0,0,0.759546,-83.6072,-70.4509)">
                        <path d="M331.478,173.591L126.72,173.591L196.225,253.32L400.983,253.32L331.478,173.591Z" style="fill:#173866;"/>
                    </g>
                    <g transform="matrix(1.07457,0,0,-0.759546,-83.6072,314.365)">
                        <path d="M331.478,173.591L126.72,173.591L196.225,253.32L400.983,253.32L331.478,173.591Z" style="fill:#314064;"/>
                    </g>
                </g>
            </g>
            <g transform="matrix(1.36975,0,0,2.47697,299.802,-1.076)">
                <g transform="matrix(1,0,0,1,-52.4178,60.151)">
                    <g transform="matrix(1.07457,0,0,0.759546,-83.6072,-70.4509)">
                        <path d="M331.478,173.591L126.72,173.591L196.225,253.32L400.983,253.32L331.478,173.591Z" style="fill:#102046;"/>
                    </g>
                    <g transform="matrix(1.07457,0,0,-0.759546,-83.6072,314.365)">
                        <path d="M331.478,173.591L126.72,173.591L196.225,253.32L400.983,253.32L331.478,173.591Z" style="fill:#1e3c84;"/>
                    </g>
                </g>
                <g transform="matrix(1,0,0,1,-52.4178,-60.9648)">
                    <g transform="matrix(1.07457,0,0,0.759546,-83.6072,-70.4509)">
                        <path d="M331.478,173.591L126.72,173.591L196.225,253.32L400.983,253.32L331.478,173.591Z" style="fill:#173866;"/>
                    </g>
                    <g transform="matrix(1.07457,0,0,-0.759546,-83.6072,314.365)">
                        <path d="M331.478,173.591L126.72,173.591L196.225,253.32L400.983,253.32L331.478,173.591Z" style="fill:#314064;"/>
                    </g>
                </g>
            </g>
            <g transform="matrix(1.36975,0,0,2.47697,-300.198,-1.076)">
                <g transform="matrix(1,0,0,1,-52.4178,60.151)">
                    <g transform="matrix(1.07457,0,0,0.759546,-83.6072,-70.4509)">
                        <path d="M331.478,173.591L126.72,173.591L196.225,253.32L400.983,253.32L331.478,173.591Z" style="fill:#102046;"/>
                    </g>
                    <g transform="matrix(1.07457,0,0,-0.759546,-83.6072,314.365)">
                        <path d="M331.478,173.591L126.72,173.591L196.225,253.32L400.983,253.32L331.478,173.591Z" style="fill:#1e3c84;"/>
                    </g>
                </g>
                <g transform="matrix(1,0,0,1,-52.4178,-60.9648)">
                    <g transform="matrix(1.07457,0,0,0.759546,-83.6072,-70.4509)">
                        <path d="M331.478,173.591L126.72,173.591L196.225,253.32L400.983,253.32L331.478,173.591Z" style="fill:#173866;"/>
                    </g>
                    <g transform="matrix(1.07457,0,0,-0.759546,-83.6072,314.365)">
                        <path d="M331.478,173.591L126.72,173.591L196.225,253.32L400.983,253.32L331.478,173.591Z" style="fill:#314064;"/>
                    </g>
                </g>
            </g>
        </g>
    </g>
</svg>
