<svg width="0" height="0" style="position:absolute"><symbol viewBox="0 0 26 28" id="icon-arrow-down" xmlns="http://www.w3.org/2000/svg"><path d="M25.172 13c0 .531-.219 1.047-.578 1.406L14.422 24.593c-.375.359-.891.578-1.422.578s-1.047-.219-1.406-.578L1.422 14.406C1.047 14.047.828 13.531.828 13s.219-1.047.594-1.422l1.156-1.172c.375-.359.891-.578 1.422-.578s1.047.219 1.406.578L10 15V4c0-1.094.906-2 2-2h2c1.094 0 2 .906 2 2v11l4.594-4.594c.359-.359.875-.578 1.406-.578s1.047.219 1.422.578l1.172 1.172c.359.375.578.891.578 1.422z"/></symbol><symbol viewBox="0 0 25 28" id="icon-arrow-left" xmlns="http://www.w3.org/2000/svg"><path d="M24 14v2c0 1.062-.703 2-1.828 2h-11l4.578 4.594a1.96 1.96 0 0 1 0 2.812l-1.172 1.188c-.359.359-.875.578-1.406.578s-1.047-.219-1.422-.578L1.578 16.407C1.219 16.048 1 15.532 1 15.001s.219-1.047.578-1.422L11.75 3.423c.375-.375.891-.594 1.422-.594s1.031.219 1.406.594l1.172 1.156c.375.375.594.891.594 1.422s-.219 1.047-.594 1.422l-4.578 4.578h11c1.125 0 1.828.938 1.828 2z"/></symbol><symbol viewBox="0 0 23 28" id="icon-arrow-right" xmlns="http://www.w3.org/2000/svg"><path d="M23 15a2.01 2.01 0 0 1-.578 1.422L12.25 26.594c-.375.359-.891.578-1.422.578s-1.031-.219-1.406-.578L8.25 25.422c-.375-.375-.594-.891-.594-1.422s.219-1.047.594-1.422L12.828 18h-11C.703 18 0 17.062 0 16v-2c0-1.062.703-2 1.828-2h11L8.25 7.406a1.96 1.96 0 0 1 0-2.812l1.172-1.172c.375-.375.875-.594 1.406-.594s1.047.219 1.422.594l10.172 10.172c.375.359.578.875.578 1.406z"/></symbol><symbol viewBox="0 0 26 28" id="icon-arrow-up" xmlns="http://www.w3.org/2000/svg"><path d="M25.172 15.172c0 .531-.219 1.031-.578 1.406l-1.172 1.172c-.375.375-.891.594-1.422.594s-1.047-.219-1.406-.594L16 13.172v11C16 25.297 15.062 26 14 26h-2c-1.062 0-2-.703-2-1.828v-11L5.406 17.75a1.96 1.96 0 0 1-2.812 0l-1.172-1.172c-.375-.375-.594-.875-.594-1.406s.219-1.047.594-1.422L11.594 3.578C11.953 3.203 12.469 3 13 3s1.047.203 1.422.578L24.594 13.75c.359.375.578.891.578 1.422z"/></symbol><symbol viewBox="0 0 28 32" id="icon-california" xmlns="http://www.w3.org/2000/svg"><path d="M.749 0l.073.005.137.012.026.002.028.001h.002l.073.003.169.009h.022l.031.002.066.002h.006l.189.009.163.008.078.003.034.001h.005l.297.014.079-.01.54.022.145.005.013.001.029.002h.006l.266-.005.041-.001h.007l.074-.004.107-.006.218.026.044.001 1.099.022.189-.002.433.003.009.001.149.005.25.006.042.002.044.002h.004l.058.003.045.002.023.001.577.027.495.015.036.002.014.001.026.002.067.002.028.001.341.01.066.001.296.004.043.001h.007l.044.001.195.004.274.003.263.016h.299l1.14.004.398-.001.204-.002h.291l.103-.001H11.355l.002.152.001.067-.001.077v.022l.002.325.003.309.001.076v.115l.002.972.001.294-.002.142v.183l-.001.149.001.402.001.297.003.297v.041l.001.104v.029l.002.141.002.22.002.242.001.067v.145l.001.067v.035l.002.223.001.067v.173l.001.209.001.045-.001.164V6.333l.001.152V6.602l-.001.074v.051l-.001.033v.01l-.001.039-.003.217-.001.04-.001.053V7.2l-.001.408-.001.041v.007l-.001.042V7.757l-.001.043v.005l-.001.041V8.531l.001.099.001.148-.001.045V8.972l-.001.047v.056l-.001.098-.001.052.001.046v.003l-.001.049V9.379l.002.13.002.084v.15l.001.036.003.182.002.148.004.227.215.187.011.01.245.217.086.074.007.004.094.082.024.021.039.034.066.06.067.058.609.53.316.278.301.263.172.149.033.029.524.459.094.081.142.123.077.067.594.52.381.332.117.102.089.077.101.088.755.66.067.06.604.531h.005l.259.226.154.135.118.101.154.135.019.017.02.018.168.145.017.015.611.535.025.021.061.054.038.032.21.184v.004l.51.445.008.006.039.034.234.203.107.095.148.129.376.327.172.151.101.087.136.119.79.689.479.422.038.033.161.141.278.243.697.611h.009l.056.05.106.094.16.138.041.036.307.267.591.518.009.009.145.126.136.12.053.047.052.046.084.073.048.043.133.117.092.081.042.036.311.273.159.141.061.053.03.029.088.075.051.045.053.047.005.005.046.041.077.067.004.006.009.021.002.021.002.007-.006.032-.005.03.003.016.002.007.004.017.007.022.004.026-.003.024-.002.027.003.02.004.019.002.011-.001.02-.006.019-.003.023-.001.021.002.022.009.022.018.021.027.019.003.002.034.021.032.022.002.002.019.021.017.027.007.026.002.004.01.03.003.008.01.03.02.038.019.032.027.032.023.023.026.018.018.01.017.018.009.015.012.012.019.007.019.006.021.009.005.009.005.009.004.007.019.014.002.001.011.002.016.011.012.024.007.019.001.005.007.024.015.023.012.025.011.018.004.009-.004.009-.005.006-.005.01.002.006.004.009.006.005.008.008.017.014.006.015.005.026.006.021.005.018.009.012.012.008.016.011.009.012.003.012-.005.008-.009.009-.009.007-.009.008-.002.004-.002.005.002.009.009.012.017.012.034.023.012.009.011.009.008.011.009.015.012.02.008.015.012.015.008.018.014.023.012.031.007.026.003.027-.004.033-.001.004-.004.04.001.022v.009l.001.023-.005.025-.001.017.006.017.014.017.017.007.016-.002h.003l.02-.007.003-.001.031-.01.017-.002.013.004.009.007.008.015.008.01.012.009.002.001.012.006.023.01.019.011.018.011.009.012.01.017.006.017.008.013.011.008.014.001h.015l.019.001.015.008.015.013.012.009.022.021.005.004.02.017.015.023.009.011.005.005.012.009.002.001.012.003.003.001.02.006.026.004.002.001.025.008.017.004.012.008.01.013.012.016.014.019.005.007.009.012.02.02.015.013.02.021.011.019.011.015.002.01.003.013.002.011.002.012.008.018v.022l.003.015.005.009.005.013.003.013-.003.007-.009.005h-.012l-.014-.002-.011.002-.012.002-.012.001-.008.003-.002.001-.004.003v.011l-.003.008-.004.006-.005.004-.007.003-.007.007-.007.011-.004.008-.007.01-.024.027-.028.031-.021.026-.014.013-.005.003-.012.012-.009.008-.005.008-.001.009-.002.012.002.011-.002.009-.003.007-.007.006-.002.001-.01.004-.012.011-.009.006-.012.012-.019.013-.013.004-.02.005-.012.004h-.017l-.012-.001-.006.002-.009.006-.01.006-.015.017-.016.027-.022.029-.02.023-.017.015-.022.009-.022.006-.019-.001-.014.006-.004.005-.001.002-.009.012-.009.014-.015.016-.016.009-.023.008-.013.009-.015.006h-.015l-.011-.001h-.003l-.006-.001-.023.01-.013.013-.01.012-.011.019-.011.016-.007.012-.007.017-.001.008-.002.014-.001.006-.004.028-.001.027.002.021.005.021.006.019.001.008.001.009.001.023-.005.022-.007.015-.019.018-.009.007-.008.002-.017-.001-.006-.001-.007.008-.007.008.002.007.006.007.009.008.012.006.004.004-.002.006-.008.005-.006.002-.011.006-.006.008-.007.009-.003.006-.001.002-.004.006-.008.005-.006.007-.002.002-.005.005-.004.005-.007.01-.015.023-.012.019-.006.006-.014.006-.009.003-.014.003-.004.001-.005.002-.011.004-.012.01-.009.015-.006.017-.009.025-.003.019v.005l.002.007.007.007.005.003.008.004.019.01.017.014.014.017.011.018-.004.011-.004.008-.021.001-.009-.005h-.007l-.005.004-.001.009.009.014.012.014.019.017.021.017.009.009.003.017-.004.014-.006.012-.007.006-.002.002-.011.007-.012.004h-.012l-.008-.001-.009-.001-.004.003-.002.008.001.012.005.015.009.021.001.002.009.025.007.017.003.012-.001.009-.008.009-.005.006-.002.005-.001.015.006.013.01.021.009.026.016.033.005.011.006.012.014.029.003.008.006.019.005.027-.005.023-.006.016-.005.012.001.009.005.012.009.008.012.007.009.014.009.016.01.031.001.016-.008.02-.012.008-.005.003-.011.005-.005.002-.012.005-.016.008-.007.005-.004.002-.002.002-.004.003-.005.005-.007.015-.005.017-.002.013.004.012.007.007.011.001.014.002.009.006.002.002.001.006-.008.005-.009.004-.009.005-.01.007-.004.006v.008l.003.01.008.012.007.009.002.01-.001.009-.002.003-.006.009-.002.008-.004.013.001.01.003.008.006.008.005.009.004.008-.001.009-.007.014-.002.004-.015.022-.013.02-.005.006-.001.005.002.006.003.009-.002.009-.001.012.002.008.005.01.007.008.002.011.003.012.008.007.002.002.005.005.008.008.001.011-.005.009-.002.003-.008.009-.007.009-.01.012-.018.01-.013.013-.015.012-.002.007-.009.013-.001.011-.001.012-.001.011-.002.006-.002.005-.006.009-.009.008-.002.001-.006.005-.009.006-.002.001-.006.002-.004.002-.002.001-.011.006-.012.009-.012.013-.009.018-.01.036-.004.008-.007.011-.002.002-.004.006-.008.011-.015.021-.004.007-.004.008-.005.014-.003.012.001.011v.004l-.002.017-.002.018-.005.015-.003.007-.001.002-.009.018-.012.019-.013.01-.009.007-.011.007-.018.009-.009-.003-.005-.001-.027-.006-.013-.004h-.017l-.019.002-.015.008-.013.009-.006.009-.013.006-.012.004-.012.003h-.022l-.011.003-.003.006-.002.011.006.012.018.019.018.017.009.011.004.01.001.003.003.013.002.003.006.01.007.019.001.002.005.013.003.018.002.015.001.003v.003l.001.026-.006.026-.009.02-.022.035-.014.015-.019.017-.008.016-.002.018.009.019.016.024.014.011.017.004.032.002.022.004.026.011.016.014.011.015.009.015v.011l-.001.005-.001.007-.009.009-.009.006-.004.003-.008.007-.009.013-.003.005.003.014.007.01.003.004.013.011.011.013.005.008.003.005.005.018.001.017v.002l-.002.015-.005.014-.003.01-.002.004.002.01.001.007.008.015.003.017-.002.019-.005.02v.017l.001.011.001.004.002.013-.002.017-.005.015-.001.003-.007.02-.034.07-.001.002-.009.023-.006.028-.003.024.001.028v.017l.004.011.008.005.011-.002h.014l.009.002.005.008v.002l.001.006.008.021.008.015.003.006.014.015.008.008.006.009-.002.019.001.011.003.017.007.009.012.017.015.009h.009l.009-.006.005-.014.005-.017.005-.014.011-.005.009.001.01.008.008.01.009.015.017.014.009.009.006.004.019.005h.003l.019.001.029-.002h.023l.013-.009.007-.008.002-.002.009-.009.005-.004.007-.005.016-.005.025.006.03.003.025.001.025.002.016.003.009.002.013.005.007.002.014.011.012.017.004.007.009.015.009.021.009.028.004.017.004.011v.023l.002.017.006.014.01.011.009.001.01-.004.01-.013.009-.004.005.001h.003l.012.01.006.01.003.02.002.023-.003.019-.011.022-.013.015-.004.009-.001.009-.002.014.005.017.019.019.015.012.003.002.01.009.004.013v.003l.001.008.002.011.001.008-.001.026-.001.025-.001.036-.002.099-.036.037-.037.041-.007.009-.02.012-.014.015-.015.015-.009.015-.002.003-.011.018-.01.012-.007.013-.003.015v.005l-.001.006-.001.014.002.017.001.011.004.014.011.037-.014.002-.015.001v.023l-.023.002-.02.001-.03.002.001.025-.048.004-.001.019v.008l-.094.008.002.018-.042-.002-.045-.003-.036-.003-.07-.006-.015-.006-.013-.009-.012-.008-.005-.001-.006-.002-.011.006-.008.011-.001.002-.01.019-.011.024-.014.032-.04.005-.617.085-.327.043-.146.021-.059.008-.089.011-5.554.758-.002-.008-.003-.015-.005-.027-.005-.009-.009-.031-.003-.012v-.017l-.002-.032v-.041l-.003-.034-.005-.032-.006-.025-.006-.023-.011-.022-.011-.02-.009-.025-.014-.021-.014-.025-.008-.006-.008-.009-.005-.011-.006-.014-.011-.011-.006-.008-.006-.005-.008-.005h-.003l-.005-.006-.005-.005-.005-.008-.009-.005-.014-.006-.011-.003-.012-.002h-.015l-.017.003-.015.005-.009.006-.005.005h-.003l-.003-.003-.006-.006-.005-.015.004-.035.012-.022.025-.015.02-.009.025-.002.03.035.017.006.012.005.022.008.02.034-.014.028.003.015.025-.012.008.009-.017.011.014.028.027.046.019.034.019.03h.014l-.005.031.006.023.005.015.008.014.009.009.03.015.008-.008.008-.011.012-.014.002-.003.011-.015-.006-.041-.017-.014-.009-.015-.015-.003-.003-.012-.005-.015.006-.011-.016-.04v-.02l-.014-.012.015-.006-.022-.029-.014-.017-.058-.029-.053-.046-.02-.011.005-.015v-.025l-.02-.017-.034-.002h-.042l-.02.008-.011.025-.026.003-.028.032.002.011.002.008-.009.02.002.023.003.009.012.006v.008l-.006.005-.003.006v.012l.002.005v.008l.002.006-.002.005-.003.012-.003.005-.006.002-.003-.002-.005-.002-.002-.003-.002-.006-.003-.012-.002-.009-.005-.015-.002-.018-.008-.019-.003-.011-.003-.008-.003-.006-.002-.009.002-.008-.002-.014-.002-.019-.003-.02-.003-.008-.002-.008v-.009l.003-.006v-.023l.002-.015.003-.02.001-.017.005-.014.005-.008.005-.002.005.005h.006l.005-.002.003-.003-.002-.008.002-.008.003-.002h.005l.005.003.005.003.006-.003.002-.005v-.003l-.005-.003-.003-.002h-.006l-.005-.002-.002-.005v-.002l.002-.004.002-.002h.006l.005.002.003-.002v-.003l.003-.002h.003l.005.005.003.003.002.003.005-.002h.006l.009.002.011.002h.017l.005-.003.003-.003.002-.006.002-.005-.003-.008-.005-.012-.002-.008-.002-.006.003-.009.001-.017.003-.009v-.009l-.003-.009-.005-.003h-.006l-.005.003.002.003h.005l.003.003-.006.005-.006.002-.008-.002-.003-.003.002-.005-.003-.003-.003-.001-.006.003-.006.006-.002.005-.002.006-.003.002h-.005v.006l-.002.009-.002.009-.003.008-.006.005h-.005l-.003-.002-.006-.005v-.015l-.003-.008-.005-.006-.006-.003h-.008l-.009.003-.003.005-.002.005.005.011.005.003.002.003-.003.003-.002.005v.002h.005l.003.003.003.002-.002.002-.003.001-.005.003-.002.005.003.005.003.003.003-.002.003-.005.003-.002.003.003-.002.008v.003l.005.002v.003l.002.003-.003.006-.002.006-.003.006h-.003l-.002-.003.002-.005-.003-.006-.005.006v.009l.002.005.003.003.003.002.002.003-.003.002-.005.002-.006-.002h-.008v-.041l-.002-.031-.002-.021-.006-.022-.008-.02-.006-.014-.009-.011-.006-.005-.005-.002-.005-.003-.002-.008-.005-.006-.005-.005-.003-.006-.002-.005-.005-.005-.005-.002-.006-.003v-.003l-.002-.008v-.012l-.002-.011-.003-.008-.002-.009v-.008l.002-.011.003-.006.003-.006.005-.006.005-.006.003-.003.006-.003.006-.002.005.002.006.002h.006l.006-.002.008-.006.006-.011.008-.018.003-.017.003-.02.002-.015-.003-.015-.002-.011-.005-.008-.002-.011.003-.012v-.017l-.003-.009-.005-.021-.005-.02-.006-.029-.003-.026-.006-.026-.008-.026-.006-.026-.009-.021v-.014l.002-.012-.005-.022-.006-.026-.006-.025-.003-.017-.003-.006-.005-.011-.003-.008-.003-.011-.002-.015-.005-.015-.006-.019-.006-.014-.015-.024-.011-.019-.005-.017-.005-.015-.006-.017-.006-.018-.011-.026-.014-.046-.005-.012-.008-.017-.019-.044-.014-.035-.011-.023-.011-.026-.006-.012-.011-.017-.005-.012-.005-.014-.006-.011-.008-.008-.008-.011-.005-.008-.012-.022-.011-.02-.014-.015-.014-.022-.017-.021-.023-.03-.011-.012-.009-.012-.015-.021-.024-.03.005-.003.006.003.003-.003-.009-.015-.008.006.002.006-.003.003-.022-.032-.02-.027-.019-.028-.014-.021-.022-.032-.02-.029-.027-.033-.025-.031-.02-.027-.022-.032-.028-.03-.016-.018-.015-.017-.014-.014-.025-.024-.017-.015-.019-.014-.012-.011-.017-.015-.015-.011-.011-.009-.017-.014-.019-.014-.017-.008-.017-.009-.006-.005-.005-.005-.012-.006-.009-.003-.015-.006h-.005l-.006-.002-.005-.005-.009-.005-.005-.006-.006-.005-.003-.003-.003-.005-.003-.008-.008-.012-.009-.018-.006-.009-.012-.015-.005-.009-.006-.005-.009-.008-.003-.006-.003-.003-.003-.005-.005-.009-.009-.006-.006-.006-.005-.006-.002-.003-.006-.006-.011-.011-.011-.012-.009-.006-.008-.008-.012-.009-.011-.008-.009-.009-.014-.008-.012-.008-.017-.008-.011-.009-.008-.003-.005-.003-.003-.003-.005-.002-.006-.002h-.018l-.003.002h-.012l-.009-.006h-.009l-.008.005-.002.005-.008.003h-.008l-.009-.003v-.011l-.005-.008-.003-.008-.003-.009-.005-.003-.002-.006-.005-.008-.005-.009-.003-.008-.003-.005-.006-.002-.005-.002-.005-.003-.003-.002-.003-.003v-.005l-.002-.003-.003.002-.009-.009-.002-.005-.002-.006-.002-.008-.003-.006-.003-.005-.006-.005-.005-.009-.003-.003-.014-.014-.009-.009-.002-.003-.003-.002-.003-.005-.006-.003-.003-.006-.008-.008-.005-.009-.006-.008-.014-.012-.009-.012-.011-.012-.005-.011-.006-.006-.006-.003-.003-.003-.011-.002-.006-.003-.003-.002-.008-.003-.005-.002h-.014l-.003-.002h-.003l-.003-.005-.003-.009-.003-.003-.002-.003h-.006l-.005.005h-.003l-.003-.006-.003-.003-.003-.002-.003.002-.003-.002-.002-.006V28.6l-.003-.005-.005-.011-.008-.003-.011-.003-.008-.006-.006-.008-.006-.006-.008-.008-.008-.005-.008-.006-.005-.005-.009-.005-.006-.003-.005-.003-.003-.002-.006-.005-.005-.003-.006-.005-.006-.002-.006-.005-.009-.005-.006-.008-.003-.005-.006-.003h-.005l-.006.005-.005-.011-.003-.006v-.006l-.002-.005-.002-.005-.006-.009-.003-.003-.003-.009-.008-.008-.006-.005-.008-.001-.012.002h-.008l-.006.002h-.006l-.003-.005-.002-.005.003-.009.005-.006.006-.005.005-.003.008.002.002.003.002.005.002.006.003-.002.005-.006v-.005l-.002-.005-.002-.006.002-.003.003-.005.005-.005.005-.003.003-.003.005-.005-.002-.003-.002-.006.002-.005-.002-.008v-.005l-.003-.008.003-.006.002-.005.005-.012.002-.003.008-.005.005.003.006.002.003-.003-.003-.006-.006-.006-.011-.003h-.012l-.006.003-.006.006-.002.008-.002.006.002.009.002.008v.011l-.002.009-.001.009.002.008v.005l-.003.008-.009.009-.005.002-.008.003-.006.005-.005.006-.005.008-.003.005-.005.005h-.009l-.006-.005-.008-.005-.009-.005-.006-.003-.006-.005h-.006v.011l.003.008.003.005.002.005-.002.003-.003-.003-.003-.002-.005-.003v.003l.003.006.003.003.008.003.008.002h.006l.006.002.011.001.008.002.005.005h.006l.005-.003.006.003.003.003.008.005.008.003.008.003.008.003h.008l.006.002.006.003.005.005.002.008-.017-.004-.019-.006-.02-.005-.025-.007-.022-.006-.014-.002h-.006l-.003-.003-.006-.005-.002-.005-.003-.006-.006-.009-.008-.012-.011-.009-.012-.011-.015-.008-.017-.009-.019-.012-.02-.011-.017-.015-.02-.012-.011-.007-.017-.008-.017-.009-.011-.009-.016-.009-.017-.012-.016-.015-.011-.012-.012-.008-.017-.018-.02-.02-.017-.022-.013-.015-.015-.018-.012-.015-.011-.012-.005-.008-.008-.005-.011-.008-.006-.006-.005-.006-.005-.005-.009-.012-.012-.012-.009-.009-.005-.002-.005-.003-.006-.002.003-.006-.005-.011h.026l.006.005.006.011.002.003.022.015.008.008.012.014.014.014.008.005.005-.005-.006-.008-.022-.017-.003-.005-.011-.015-.003-.008-.015.002-.002-.003-.002-.003.006-.005.005-.017-.003-.003-.006.005-.005.008-.012-.008-.005-.002-.014.005h-.005l-.003-.002h-.011l-.003.002-.005.002-.005-.002-.003-.001-.003-.002-.005-.002-.003-.005-.008-.005h-.005l-.008-.003-.005-.006V27.964l.008-.011.006-.003.005-.003-.003-.002-.012-.008-.005-.005-.011-.009-.013-.015-.015-.015-.006-.005-.003.002v.003l.003.011.005.003.005.001.005.006.003.003v.003h-.003l-.006.002-.005.006V27.942l.008.008.005.003.017.012.003.005v.005h-.003l-.003-.002-.012-.008-.012-.009-.009-.006-.022-.012-.026-.006-.019-.006-.05-.009-.016-.002h-.014l-.003.003-.012.003-.005-.002-.005-.003-.006-.002-.012.002-.011.006-.003.003.009.011.03.015.016.05h-.051l.005-.006h.019l.009-.014-.002-.011-.011-.002v-.011l-.017-.002v.022h-.009v-.019l-.017.012.013.014.002.009-.025-.017.002-.017.011-.009.006-.006.005-.002v-.006l-.003-.002h-.022l-.011-.024.012-.015.019-.008-.002-.006-.028.012-.002-.006.028-.012-.002-.006-.036.019-.053.016-.019.011-.005-.011.003-.005.003-.006.005-.005.005-.006.003-.006-.002-.003-.005.002-.003.003-.012.017-.019.029-.003-.014-.012.002.006.009.002.012-.015.022-.002-.011v-.011l.002-.006.002-.003-.003-.002-.003.002-.005.012.002.005-.002.005-.003.002-.006-.003-.002-.005.002-.009.006-.025-.014.003-.002-.009-.005-.003v.017l.002.006.002.011v.005l-.005.006-.002.003-.005.002-.003-.002h-.003l-.005.002h-.003l-.005.003v.005l.005-.002h.006l.003.002h.008l.003-.002h.008l.005.002v.003l.002.005-.005.005-.003.006v.005l.002.003-.003.008-.003.011v.008l.002.008.003.012.005.014.006.011.005.009v.008l-.003-.002-.003-.002-.002-.006-.002-.005-.005-.005-.003.002.002.006.006.009.002.006v.005l.002.005-.003.005-.003-.003-.002-.006-.002-.006v-.006l-.003-.003v-.003l-.005-.003h-.003l-.003.005.003.009v.006l-.003.003-.005.003-.003.003v.005l.005.012-.002.003-.003.005-.003.006-.003.003-.005.002H16.263l-.005-.002v-.003l-.002-.006-.006-.005v-.003l-.005-.002-.003-.002h-.008l-.011-.005-.006-.003-.005-.003-.005-.003-.005-.002-.005.003h-.003l-.003-.002-.006-.006h-.005l-.006-.005-.005-.002-.011-.005-.012-.006-.014-.005-.015-.009-.005-.003H16.1l-.005-.003-.003-.005-.002-.006-.005-.006-.005-.006-.003-.002-.003-.006-.006-.003-.003-.003h-.006l-.003.002h-.005l-.003.002h-.003l-.006-.001-.005.002-.003.005h-.003v-.008l-.006-.006-.006-.002h-.006l-.006.002-.003.003-.005.002-.003.002-.005.002h-.003l-.006.005-.005.002-.005.003h-.005l-.005-.003-.005-.002-.005-.006-.003-.002-.005-.002-.006-.002-.003.002h-.005l-.003-.006v-.011l-.002-.006v-.005l-.002-.003v-.009l-.002-.005-.003-.005-.003-.005-.002-.008-.002-.003v-.005l-.003-.005h-.003l-.003-.002-.005-.003-.002-.005-.003-.008.002-.003.003-.002v-.003l-.002-.003-.005-.005-.003-.002-.006-.003-.002-.003.002-.005v-.003l.006-.005.003-.008.003-.008.008-.009.009-.005.009-.006.009-.006.008-.008.002-.005-.002-.005v-.008l.003-.002.003-.005.02-.009.012-.011.002-.011.002-.015.002-.022.001-.026-.002-.008-.002-.024-.008-.022-.009-.005-.002-.006.005-.002-.002-.005h-.008l.002-.006-.002-.008-.011-.034-.008-.018-.006-.019-.016-.033-.016-.041-.025-.052-.022-.05-.02-.041-.017-.029-.011-.023-.003-.005-.023-.037-.003-.009-.005-.011-.013-.014-.012-.019-.012-.014-.013-.015-.017-.023-.008-.018-.014-.015-.015-.014-.016-.017-.006-.008-.012-.012-.006-.004-.027-.018-.006-.003-.02-.009-.009-.005-.012-.005-.012-.003-.012-.001-.008.002h-.02l-.008-.003-.006-.003-.009-.002h-.009l-.009.002-.009.002-.003.002-.009.003-.011-.002h-.047l-.005.002-.008.005-.008.003h-.011l-.012-.002-.009-.001-.009-.002-.009-.002-.011.002-.008.002h-.017l-.006-.002h-.043l-.014-.002h-.023l-.008.002-.009.006-.003.005-.005.011h-.003l-.002.003h-.006l-.009-.003-.009-.003-.008-.002-.006.002-.011.002-.008.005-.008.002-.009.002h-.008l-.014-.003-.019-.002-.033-.001-.012.002-.014.003-.025.006-.006.006-.006.005-.008.002-.009.003-.017.003-.019.002-.014.003-.009.005-.006.005-.008.008-.002.005-.005.009-.003.009-.003.006-.005.005-.006.005-.011.005h-.003l-.003.005v.008l-.005.003h-.003l-.006-.005-.006-.009-.008-.011-.009-.014-.016-.014-.015-.014-.019-.012-.016-.012-.017-.014-.016-.006-.009-.005-.009-.002h-.008l-.009-.003-.011-.001-.009-.003h-.03l-.015-.003-.019-.002-.016-.003-.02-.006h-.016l-.006-.002-.008-.002-.003-.003-.006-.003-.008-.004-.011-.002-.008.003-.006.002-.008.005h-.008l-.009-.002-.012-.005-.015-.005-.024-.014-.015-.007-.019-.012-.005-.003-.008-.002-.003-.002-.008-.003-.005-.002-.009-.002-.008-.005-.013-.006-.015-.004-.012-.003-.011-.002h-.006l-.003-.003-.008-.003-.002-.005-.006-.003h-.008l-.008-.005-.003-.003-.009-.009-.008-.006-.013-.008-.011-.008-.009-.003-.012-.003h-.019l-.009.002-.003-.002-.009-.005-.006-.002-.008.002-.015-.015-.014-.005-.008-.004-.009-.005-.012-.006-.009-.008-.006-.003v-.003l.005.002.006.005.009.006h.006v-.008l-.006-.003-.006-.003-.005-.003-.005-.006-.003-.002h-.005l-.003-.003-.002-.005-.003-.003h-.006l-.005-.002-.003-.002-.003.002-.003.009-.003.002-.005.002-.006-.001-.011-.003-.012-.003-.011-.003-.006-.005-.006-.003-.003-.005.002-.005-.002-.003-.003-.003-.005-.003-.003.003v.008l-.002.003-.005.003-.002.003h-.005l-.014-.003-.005.006.02.006h.005l.005.003.006-.002h.006l.006.003.006.005.006.003.011.002.006.003.008-.002.006-.002H13.972l.005-.002h.006l.006.002.002.003v.003h-.015l-.003.002-.009.003-.008.008-.009.003-.017-.005-.012-.005-.02-.006-.009-.005-.023-.019-.014-.008-.009-.006-.014-.014-.02-.011-.013-.011-.006-.006-.03-.024-.011-.011-.017-.014-.014-.012-.011-.006-.012-.005-.006-.002-.012.002h-.008l-.003-.003.002-.003.003-.003.014.001.003-.005-.009-.006-.002-.006-.005-.005-.005-.003-.003.009v.005l-.002.009-.003.003-.006.003-.006-.003-.006-.009-.008-.015-.006-.009v-.008l.003-.003.008-.008-.002-.008v-.006l-.003-.006-.005.002-.003.002-.003.017-.006.006-.011-.022-.006-.009-.011-.027-.021-.044-.008-.026-.009-.02-.009-.02-.005-.008-.005-.015-.011-.026-.008-.023-.003-.019-.003-.011-.003-.021-.002-.003.001-.008.003.003.003.003v.005l.003.006v.009l.003.005.003-.005.006-.002v-.009l-.013-.021h-.005l-.008.002-.003-.011-.009-.017-.003-.008-.011-.015-.008-.012-.009-.006-.012-.006h-.012l-.006.002-.009.002-.019-.003-.011-.002-.006-.005-.012-.005-.009-.006-.014-.007-.009-.006-.011-.006-.008-.005-.012-.011-.008-.011-.009-.012-.006-.006-.011-.012-.008-.008-.014-.012-.02-.018-.011-.009-.005-.003-.008-.003h-.006l-.011.003-.011.002-.005.002h-.005l-.008-.002-.008-.005-.006-.008-.009-.012-.006-.012-.006-.008-.008-.008-.005-.006-.009-.005-.006-.005-.009-.012-.011-.014-.013-.012-.008-.011-.009-.008-.006.002-.003-.002h-.008l-.009-.003-.008-.003-.009-.006-.011-.011-.006-.014-.006-.009-.005-.005-.009-.011-.011-.003-.012-.006-.008.002h-.005l-.008.002h-.012l-.005-.002-.002-.003-.002-.003-.003-.003-.002-.008-.002-.008-.005-.003-.006-.003-.005-.003-.003-.002-.006-.003-.006.002h-.014l-.012-.001-.016-.005-.014-.003-.006-.006-.005-.003-.011-.006-.009-.009-.006-.006-.008-.003-.008.002-.008.002-.005-.008-.003-.006-.005-.003-.008-.003-.005-.003-.011-.003-.009-.009-.012-.011-.002-.003-.008-.008H12.649l-.003.002h-.009l-.019-.003-.015-.004-.014-.006-.011-.006h-.014l-.005.002-.006-.001-.011-.003h-.022l-.011.002h-.008l-.011.003-.011.005-.006.002h-.005l-.008-.002-.006-.003h-.008l-.014-.002h-.008l-.014.003h-.022l-.011.003-.017-.002-.025.011-.017.009-.008.008v.006l.003.005.002.003-.002.003-.006.002-.009.003-.005.003-.005.006-.006.008-.009.003-.006.002h-.012l-.006-.003h-.025l-.008.002-.008-.003-.008-.003-.008-.003-.006-.006-.011-.003-.003-.003-.003-.002-.005-.005h-.011l-.008.002-.003-.003-.003-.005-.008-.003-.009-.008-.009-.002-.008-.003-.011-.002-.025-.013-.006-.003-.014-.006-.028-.003-.008-.001-.006.002h-.009l-.008.002-.011.003h-.009l-.009-.002-.019-.002h-.011l-.008.002-.003.003-.005.002h-.003l-.008.003-.011.014v.006l-.002.008-.006.005-.006-.003-.012-.005-.008-.002-.006-.003-.008-.002h-.022l-.012.002h-.008l-.008.002-.003.002-.005-.002-.002-.003-.002-.005-.006-.009-.003-.009-.003-.005-.009-.005-.008-.006-.009-.005-.009.002-.006-.003-.005-.005-.006-.003-.009-.005-.011-.008-.014-.009-.013-.006-.009-.003h-.008l-.012-.005h-.009l-.008.002h-.008l-.011-.002h-.009l-.011-.003-.014-.003-.019-.009-.019-.012-.017-.009-.008-.005-.003-.005-.005-.005h-.009l-.005-.001h-.005l-.006-.003-.005-.006-.006-.008-.005-.002-.009-.006-.008-.002-.003-.003-.009-.003h-.006l-.006-.002h-.022l-.012.006h-.005l-.008-.001-.005-.003-.008-.002-.008-.005-.009-.003-.009-.002-.015.005-.014.002-.009.002-.009-.003h-.009l-.011-.002-.003-.002h-.005l-.008.003-.005.005-.009.003h-.008l-.008-.002h-.014l-.014-.002h-.011l-.005-.002-.017-.008-.02-.012-.008-.005-.011-.005-.026-.006-.025-.004-.012-.002-.022.002-.014.002h-.012l-.014.003-.009.002h-.017l-.011-.001h-.015l-.008.003H10.923l-.006-.002h-.025l-.016-.001h-.028l-.012-.001-.015.002-.003.002-.014.003-.012.002h-.012l-.02.002-.017-.002-.014.002h-.003l-.017-.003-.008-.002-.014.003h-.006l-.006.003h-.003l-.008-.005-.012-.003-.011-.005-.003-.003-.006-.001-.006.002-.005.002-.005.008-.006.003h-.003l-.005-.002-.006.002-.011.003-.011.005-.02.006-.02-.001-.005.003-.011.003-.009.005-.008.003h-.009l-.009.002h-.006l-.009-.001h-.008l-.012.003h-.034l-.011.003-.011.002-.019.002h-.023l-.023-.002-.015.005-.011.003-.014.006-.009.003-.009.003-.008-.003-.011-.003h-.017l-.012.002-.011.003-.011.005-.003.005-.002.011-.005.003-.003-.002h-.003l-.003-.003h-.003l-.005-.009-.003-.005-.003-.003-.008-.002-.005-.002h-.006l-.005.002-.002-.012-.003-.008-.002-.009-.003-.012v-.012l-.005-.018-.002-.014-.006-.008-.008-.014-.008-.011-.008-.008-.008-.009-.003-.005-.006-.012-.005-.003-.005-.005-.003-.005-.002-.009-.005-.015-.008-.015-.012-.021-.006-.015-.014-.015-.013-.014-.019-.009-.022-.014-.019-.006-.016-.006-.02-.009-.009-.006-.011-.011-.008-.008-.006-.005-.008-.003-.009-.002-.003-.003-.012-.012h-.006l-.013-.001h-.02l-.011-.002-.011-.003-.011.002h-.008l-.005.003-.002.003-.003.002-.008.002-.013-.002-.011.003h-.003l-.005-.002-.002-.005-.005-.005-.003-.003-.006-.008-.003-.002-.003-.003h-.01l-.003-.002-.005-.005-.002-.003.002-.005.002-.006v-.008l-.003-.003-.002-.005-.003-.006-.005-.003-.002-.008-.005-.002h-.003l-.005.003h-.009l.002-.005.003-.003.005-.002.003-.003.005-.003v-.014l-.002-.008.002-.005.006-.003.003-.005.003-.006.002-.006v-.017l-.003-.005-.002-.008v-.006l.005-.005.006-.009.003-.006.005-.014.006-.015.004-.018.006-.011.011-.026.008-.017.009-.031.012-.029.008-.025.006-.014.008-.026.008-.031.005-.015.003-.012.003-.008.002-.017.002-.006-.003-.009-.003-.008-.005-.006-.005-.008-.003-.005-.003-.006-.002-.011-.005-.011-.002-.005-.006-.012-.008-.011-.005-.008-.006-.006-.006-.006h-.008l-.003-.003-.003-.008-.002-.006-.003-.009V24.6l-.002-.009v-.008l-.005-.005-.006-.005-.005-.006-.002-.008v-.003l.003-.015.005-.008.005-.019.008-.018.005-.014.011-.023.008-.029.008-.024.003-.014.009-.037.007-.046.005-.019.002-.02v-.006l.001-.02v-.015l-.003-.012-.006-.014-.012-.014-.014-.012-.009-.008-.009-.006-.008-.006-.006-.006-.006-.003-.005-.006v-.006l-.002-.009v-.015l-.003-.006-.005-.006-.003-.009-.003-.006-.008-.008-.008-.005-.008.002-.019.002h-.009l-.005.002h-.005l-.006-.003h-.005v-.003l.003-.008.001-.008.005-.018.009-.025.003-.019v-.005l-.005-.006-.003-.003v-.003l.008-.015.006-.009.008-.028.007-.037.011-.04.005-.012.011-.036.009-.034.008-.026.009-.039.003-.023.008-.04.003-.026.006-.035.001-.031.003-.017.002-.028-.002-.014-.002-.015.001-.024-.003-.025v-.018l-.002-.011-.006-.047-.003-.011-.008-.027-.005-.017-.011-.017-.013-.017-.009-.011-.006-.008-.012-.006-.009-.003h-.017l-.011.002h-.005l-.005-.003-.008-.012-.003-.006-.006-.002-.003-.002-.005-.001-.005-.003-.008-.008-.005-.008-.012-.012-.008-.009-.036-.015H9.48l-.006.005-.005-.003-.009.002h-.006l-.009-.011-.008-.003-.025-.001-.012.003-.012.002-.009.006-.005.002-.006.012.002.011v.012l.002.006-.003.005-.002.003-.008.002-.005-.001-.008-.003-.012-.006-.003-.003-.011-.011-.012-.008-.005-.008-.005-.008-.011-.008-.005-.006-.005-.003-.011-.003-.003-.002-.008-.005-.009-.008-.008-.005-.006-.002-.008-.003-.005-.002-.006-.006-.014-.008-.009-.008-.011-.006-.005-.003-.005-.002-.006-.003-.011.002-.006-.003-.011-.012-.005-.003-.005-.005-.002-.003-.003-.003h-.006l-.006-.002-.003-.005-.003-.003-.012-.003-.002-.009-.003-.006-.002-.003-.002-.003-.009-.011-.022-.009-.005-.017-.009-.014-.025-.023-.019-.018-.014-.02.009-.011v-.005l-.011-.018.008-.006.002-.003.003-.009.002-.009v-.022l.002-.006.003-.003.008.002.005-.008-.003-.008.002-.006.006-.012.006-.012.011-.024.012-.026.005-.012.006-.02.005-.012.006-.02.005-.019.003-.015.003-.014.003-.027.002-.014.003-.023.003-.017.002-.005-.003-.02.005-.005.005.003.003.008.003.009-.001.009-.003.006-.003.009.004.031-.005.02.002.018-.008.009.002.025-.008.009-.009.023.002.008.008-.009.014-.006.012-.005.009-.008.015-.003.006-.005v-.005l-.006-.005-.005-.006v-.008l.006-.003.012.003.009-.002.012-.012.006-.005-.005-.006-.009-.003-.012-.003-.008-.002-.008-.005-.002-.005h.006l.003-.005-.006-.005-.002-.009-.01-.034-.009-.008v-.011l-.005-.017-.008-.008-.006-.003-.014.009-.011.008-.003-.006v-.006l.008-.005.006-.002.002-.005v-.014l.002-.009v-.017l-.002-.018-.005-.015-.007-.025-.006-.015-.008-.015-.006-.017-.006-.011-.009-.018-.01-.018-.009-.018-.016-.017-.017-.015-.006-.006h-.017l-.009.002-.003-.005h-.003l-.003-.002-.005.005h-.041l-.014.005-.006-.002-.005-.003h-.008l-.006.002-.003.002-.005-.003v-.005l-.002-.006-.002-.003-.006-.003-.012-.006-.008-.005-.006-.002-.008-.002-.003-.009-.02-.001-.012-.002-.015-.002-.008-.003-.005-.003-.003-.005-.008-.001-.005.003-.005.005-.005.002-.005.005h-.006l-.008-.006-.008-.007-.003-.009-.009-.011-.006-.011-.009-.012-.016-.018-.003-.008-.008-.003-.012-.015-.011-.002-.005-.008-.002-.006-.008-.003-.002-.006-.008-.006-.006-.011-.005-.009-.009-.003-.009-.012H8.55L8.539 22l-.003-.008-.008-.008-.022-.023-.005-.009-.025-.029-.005-.002-.005-.008-.006-.008-.017-.02-.015-.018-.005-.017.002-.011-.006-.006-.008-.012-.005-.011-.005-.009-.002-.011-.006-.015-.012-.011-.005-.014-.008-.023-.006-.011-.015-.017-.006-.003-.008-.008-.012-.011-.006-.011-.002-.006-.003-.014-.009-.003-.006-.008-.002-.003-.008-.015-.017-.027-.023-.02-.008-.006-.012-.006-.016-.003h-.005l-.008-.002-.011.002-.003.008.005.015h-.005l-.012-.011-.005-.012-.012.002-.003-.002-.005-.008-.003-.008-.003-.005-.012-.009-.028-.007-.014.003-.013-.006H8.06l-.009-.003-.009-.005-.011-.011-.011-.009-.014-.012L8 21.473l-.009.005-.008-.003v-.003l-.006-.006-.009.002-.008-.003-.008-.005-.006.006-.003.006-.005.002-.003-.005.003-.012.002-.011-.006-.015-.005-.003.003-.006-.002-.005v-.012l-.008-.017-.005-.011-.008-.011-.005-.008-.016-.012-.008-.012-.005-.009-.003-.006-.005-.002-.006-.006-.003-.003-.003-.006.006-.014-.002-.015-.003-.009-.008-.012-.002-.005-.002-.009.001-.014-.006-.014v-.006l.005-.009.002-.006v-.006l-.002-.008-.003-.006-.003-.005-.003-.003h-.008l-.006-.003-.003-.006-.002-.005.003-.003.005-.006v-.021l-.005-.009-.008-.011-.003-.005-.003-.003-.002-.005-.002-.008-.002-.005-.006-.006-.005-.002-.006-.009-.003-.006-.008-.011-.006-.005-.005-.006-.009-.012-.006-.006-.008-.005-.003-.005-.005-.002-.005-.006-.003-.002-.003-.005-.005-.002-.003-.002-.005-.003-.002-.003-.008-.002-.005-.003v-.006l-.002-.005-.008-.005-.014-.009-.011-.009-.006-.006-.006-.011-.006-.009-.008-.014-.009-.011-.008-.009-.002-.009-.009-.009v-.003l-.003-.008-.005-.008-.003-.008-.005-.005-.003-.006-.006-.005-.006-.003-.008-.003-.008-.002-.008-.003-.006-.006-.003-.002-.006-.009-.006-.003-.006-.003h-.005l-.003-.006-.002-.005-.006-.006h-.005l-.002-.003-.003-.003-.005-.009-.005-.005-.008-.009-.006-.005-.005-.003-.009-.007-.002-.005-.002-.006-.002-.005v-.011l.003-.009-.002-.006-.003-.006-.003-.005-.002-.006v-.003l.003-.008v-.005l-.005-.005-.009-.009-.005-.011-.003-.006-.002-.008-.003-.009.003-.005.006-.005.002-.005.003-.005v-.003l-.002-.005-.003-.005-.014-.006v-.014l.002-.005v-.008l-.002-.005-.005-.008-.003-.008-.002-.006-.002-.009-.005-.005-.002-.006v-.008l-.002-.009-.002-.011-.002-.012-.003-.017-.005-.019-.006-.018-.002-.011-.008-.012-.006-.006-.003-.008-.003-.009-.006-.014-.006-.011-.006-.008-.009-.008-.011-.006-.006-.002-.009-.002-.005-.003-.006-.005-.003-.005-.005-.002-.012-.009-.005-.005-.006-.002H7.24l-.006-.003-.008-.008-.006-.002-.011-.002-.011-.003h-.009l-.005-.003-.006.002h-.005l-.008-.002-.005-.005-.006-.005-.003-.006-.005-.011-.005-.015-.006-.012-.005-.014-.009-.012-.006-.008-.005-.005-.005-.005-.002-.005v-.003l.003-.003.003-.002v-.006l-.002-.005-.002-.003-.005-.006v-.015l-.002-.008-.006-.002-.008-.009-.006-.006-.009-.002-.006-.006-.003-.008-.005-.003-.008-.012-.003-.003-.002-.006-.003-.006-.005-.005-.003-.003v-.003l-.005-.012-.002-.003.002-.003-.003-.009-.002-.009-.003-.012-.002-.006-.005-.008-.002-.005-.003-.006-.003-.003-.005-.008-.005-.011-.002-.006v-.003l-.002-.006-.002-.005-.005-.005-.011-.006-.014-.014-.005-.008-.005-.006-.006-.012-.006-.009-.003-.006-.003-.008-.008-.008-.006-.008-.008-.008-.005-.005-.008-.008-.008-.009-.005-.006-.005-.008-.005-.009-.003-.006-.008-.008-.006-.005-.005-.003-.005-.002-.003-.002-.008-.006-.022-.02-.006-.009-.006-.015-.011-.011-.005-.008-.003-.006-.006-.005-.006-.003-.006-.009-.003-.003-.003-.005-.006-.005-.006-.003h-.005l-.005-.001-.006-.003-.005-.002v-.003l-.005-.003-.005-.005-.005-.002h-.003l-.003-.003v-.003l-.005-.005-.006-.005-.006-.005-.003-.002-.008-.003h-.009l-.008-.006-.009-.009-.011-.012-.011-.008-.006-.006-.008-.004-.006-.003-.006-.005-.006-.005h-.008l-.008-.003-.008-.008-.009-.005-.005-.003-.009-.002-.006-.005-.005.002-.009.002-.006.002-.003-.002h-.003l-.005-.002-.003-.002-.005-.002-.002-.003-.003-.005-.003-.006-.005-.003-.003-.003-.006-.003-.008-.005h-.003l-.003-.002-.003-.005-.002-.006-.003-.005-.003-.002-.003-.002-.005-.001-.002-.003v-.003l-.003-.012-.002-.003-.005-.012-.01-.02-.011-.026-.005-.009-.008-.008-.005-.006-.006-.006-.006-.003-.003.002H6.37l-.006-.009-.006-.006-.005-.006-.013-.006-.002-.003-.003-.003v-.005l-.003-.003-.005-.003h-.003l-.003-.005-.005-.005-.003-.011-.003-.006-.005-.006-.011-.003-.008-.002-.008.002-.005.002-.005-.001-.006-.008-.003-.005.012-.003.003-.009.006-.009.003-.017v-.014l-.002-.008v-.014l.003-.005.002-.005v-.009l.002-.006v-.008l-.002-.009-.003-.009-.005-.005-.005-.005-.011-.018-.003-.003-.005-.012v-.003l.005-.005.002-.005-.002-.003v-.005l.005-.009v-.011l-.002-.006-.003-.003-.003-.003v-.003l.002-.008v-.003l.008-.015.002-.011v-.005l-.003-.009-.002-.006v-.015l-.005-.009-.002-.005-.002-.005-.006-.006-.003-.002h-.003l-.003-.002-.003-.005v-.005l-.002-.008v-.005l-.002-.008v-.008l-.003-.009v-.005l.002-.009.003-.006.002-.008v-.009l-.005-.008-.005-.006-.005-.011-.003-.015-.005-.008-.006-.014-.003-.011-.003-.005-.003-.003v-.006l.002-.006.003-.002.002-.003.003-.003v-.008l-.003-.012-.008-.012-.006-.008-.003-.008-.006-.006-.003-.011v-.015l-.002-.006-.003-.011v-.003l-.003-.009-.002-.003-.002-.005-.003-.005-.002-.003v-.003l.003-.002.005-.006.005-.005.005-.005v-.005l-.003-.002-.003-.009.002-.008-.002-.003-.002-.005-.005-.006v-.003l-.002-.006-.002-.005-.003-.003h-.005l-.003-.003-.003-.005-.005-.005-.003-.002-.005-.005v-.003l-.002-.003-.002-.006.002-.005.003-.002h.003l.003.003h.005l.005-.002h.005l.002.003.013.006h.008l.002-.003.006-.003.005-.002.006-.002.008-.002.003-.003.003-.009-.002-.008-.003-.011-.002-.006-.003-.008-.006-.003-.002-.003-.002-.005v-.008l.002-.003.003-.005.003-.008.003-.006-.005-.024-.002-.008-.005-.003-.003-.003h-.008l-.003.002-.003-.005v-.005l-.002-.005-.003-.002h-.005l-.003-.003-.003-.002-.003.002-.005.003-.003.003-.005.009-.006-.001-.008-.005-.014-.011-.006-.005-.009-.005-.008-.003-.003-.006-.005-.012-.006-.012-.003-.003v-.008l.002-.003.005-.005h.005l.003-.002h.012l.006-.006.002-.003.002-.009.003-.008.003-.009v-.016l.003-.012.006-.015.005-.008.002-.005h.006l.006.005h.006l.006-.003.005-.006.006-.009.003-.009.003-.009.002-.006v-.006l.002-.006.005-.005h.003l.002-.003v-.008l-.002-.006v-.005l.005-.006.002-.005h.011l.014.006.008.005.008.006.002.005.005.008.016.006.009.006.009.009.017.015.003.003.005.008.006.015.003.011.005.012.003.008.006.001.008.002.011.002.011-.003.006-.003.011-.008.009-.006.011-.008.006-.006.008-.005.009-.011.014-.015.015-.023.005-.006.015-.028.012-.023.011-.015.006-.011.008-.017.011-.032.003-.008.006-.021.008-.017.003-.006.003-.014.001-.02.008-.02.001-.012.002-.017.005-.023.001-.024.002-.014v-.081l.006-.003.003.006.005.017h.005l.002-.005v-.003l-.005-.015-.003-.006v-.003l-.002-.008v-.005l.002-.006.002-.005.006-.009-.002-.003.002-.006v-.015l.003-.015.005-.011.003-.009.004-.026.006-.02.006-.017.002-.011.003-.008.005-.005.005-.003.006-.005h.005l.008-.005.014-.003.009-.003v-.008l-.005-.002-.008.002-.016.005-.009.005-.006.005-.009.002v-.005l-.002-.008-.003-.011-.006-.014-.003-.009-.008-.012-.006-.014-.006-.021-.005-.015-.005-.011-.002-.009-.002-.005.002-.006.003-.006.003-.003v-.006l-.009.002-.005.003-.003-.002-.003-.003-.003-.005-.006-.012-.005-.014-.005-.012-.005-.011-.003-.009-.013-.025-.016-.033-.008-.014-.008-.011-.008-.017-.008-.018-.008-.017-.01-.021-.014-.024-.014-.024-.029-.039-.011-.015-.019-.023-.017-.018-.014-.012-.013-.011-.014-.009-.022-.011-.012-.008-.006-.003-.006-.001-.003-.002-.009-.003-.008-.002-.008-.002-.009.003-.005.005-.006.005-.009.005-.008.006-.006.003-.005.002-.009.006-.003.005-.006.008-.003.005-.006.009-.008.006-.006.002-.003.005-.005.002-.005.003h-.006l-.006-.002-.009-.005-.003-.003-.006-.009-.005-.002-.006.002-.012.002-.011-.006-.014-.005-.008-.005-.006-.002h-.019l-.022.011-.006.014v.006l-.003.009-.003.003h-.012l-.006.002-.006-.002-.005-.002-.005-.002-.006.002-.006.003-.022.006h-.011l-.003-.002-.006-.002h-.006l-.003.002-.005.002-.005-.002h-.003l-.008-.002-.005-.002-.008-.004-.006-.006-.005-.003-.005.002h-.006l-.005.002-.005-.002-.003-.003-.008-.002-.011-.003-.008-.003-.014-.003-.009-.003-.009-.006-.006-.005-.006-.005-.003-.002h-.003l-.003-.003-.003-.002-.003-.003-.005-.002-.003-.002H5.706l-.005-.005-.005-.003-.006-.002h-.003l-.003-.002-.002-.005-.005-.008-.005-.006-.006-.006-.005-.003-.005-.003-.006-.002-.009.003-.005-.002-.003-.003-.002-.006-.002-.003-.002-.005-.003-.005-.005-.006-.005-.005-.009-.006-.011-.003-.008-.012-.009-.009-.019-.009-.011-.011-.006-.011-.011-.009-.006-.006-.005-.003-.003-.005-.008-.003-.003-.003-.005-.003h-.003l-.003-.003-.005-.003v-.003l-.003-.003-.003-.006-.003-.003-.009-.008-.003-.002-.003-.006-.003-.003h-.008l-.008-.005-.003-.008-.003-.009-.003-.008-.003-.011-.002-.008-.002-.008-.005-.001-.005-.005-.005-.006-.008-.008-.008-.011-.009-.012-.003-.009-.005-.003-.008-.005-.008-.008-.003-.006-.003-.005-.003-.006v-.005l-.003-.005-.002-.003-.005-.005-.003-.012-.002-.005-.002-.003-.005-.003-.003-.002-.005-.005-.003-.009.002-.006-.002-.005-.003-.002-.005-.006-.003-.003-.006-.003-.002-.003-.003-.009-.005-.009-.008-.011-.006-.006-.006-.008-.026-.026-.014-.012-.028-.017-.016.005-.006.002-.005.003-.006.003-.006.005-.003-.002-.005-.002-.002-.008-.003-.005-.005-.003h-.008l-.003-.005-.002-.003v-.008l.003-.006.002-.006.002-.009v-.019l-.002-.006-.003-.008-.009-.008-.003-.006v-.003l-.003-.006-.006-.006-.006-.002h-.008l-.003-.002-.005-.005-.005-.006-.005-.002-.003-.002-.003-.003.002-.003.002-.006-.002-.006-.002-.014-.002-.008-.006-.017-.003-.008-.005-.006-.003-.006-.006-.006-.008-.006-.005-.008-.014-.008-.003-.005H5.013l-.005.003-.003.003-.003.002h-.003l-.005-.005-.003-.006-.005-.012-.002-.011-.011-.012-.003-.008-.005-.005-.002-.005-.002-.005v-.015l.002-.009-.002-.009-.002-.003-.003-.005v-.006l.003.002.005-.002v-.012l-.005-.009-.002-.015-.005-.008-.005-.005-.005-.012-.003-.012v-.011l-.002-.009.005-.027.002-.006.005-.014.001-.008.006-.011v-.015l.002-.005.003-.008.002-.003-.002-.003.003-.011.003-.008.003-.025.003-.021.001-.017-.002-.008.002-.006v-.008l.003-.015.006-.022-.002-.014.002-.006.003-.008-.002-.008v-.008l.005-.008.001-.011.002-.006.002-.012v-.014l-.002-.008.001-.011.002-.009.002-.012-.002-.011-.002-.005-.002-.008-.005-.005-.005-.005-.005-.008-.002-.008-.003-.014.002-.005-.002-.009-.002-.006-.005-.005-.003-.006-.002-.005-.003-.003-.002-.003-.002-.008v-.003l-.005-.003-.003-.005-.003-.003-.003-.002V15.5l-.002-.005.002-.008v-.011l-.002-.005-.002-.008-.005-.005-.005-.006v-.005l-.002-.009-.003-.008-.003-.003-.005-.003-.003-.005-.003-.009-.002-.014-.002-.008-.003-.006-.003-.003-.005-.008.003-.009-.006-.009-.005-.006-.003-.009v-.008l.002-.008v-.014l-.002-.017-.002-.028-.003-.026-.003-.02-.003-.017-.005-.012-.013-.024-.008-.011-.014-.02-.014-.009-.017-.006-.012-.008-.016-.002-.009.003-.006.002-.006.008-.003.005v.008l-.002.003-.003-.002-.003-.005v-.017l-.003-.008-.002-.006-.009-.009-.006-.006-.005-.005-.008-.012-.006-.014-.005-.006v-.017l-.002-.003v-.008l-.002-.005-.003-.005v-.005l-.002-.003v-.005l.005-.005.002-.003v-.011l.002-.005.003-.005.003-.011.003-.011.002-.008v-.012l-.002-.005-.002-.006.002-.006v-.005l.002-.005-.002-.003-.002-.006-.006-.003v-.003l.002-.005v-.003l-.003-.006-.003-.003v-.005l.002-.005.002-.003.003-.003v-.023l.002-.008v-.006l-.002-.006-.005-.008.005-.008.006-.002.005-.002.002-.005.005-.003.003.003.003.003h.005l.005-.002.006-.003.003-.003.005-.003.003-.008-.003-.009v-.005l.003-.003.009-.005v-.005l-.003-.009.003-.014-.003-.008.002-.003.005-.005.002-.003.002-.015.003-.034.001-.034.002-.017v-.02l-.002-.017-.003-.008-.002-.008.002-.006.003-.008v-.011l-.002-.012-.002-.017-.002-.017-.005-.022-.005-.033-.002-.008-.002-.009v-.012l-.006-.021-.002-.023-.003-.033v-.034l-.003-.012-.002-.014-.003-.009.001-.022v-.029l-.003-.015-.005-.018.003-.008.009-.008.006-.002.006-.008.012-.002.011.004.006.002.011-.003.009-.005.006-.008.005-.009.003-.008.003-.009.008-.019v-.005l-.003-.008.002-.006.005.003h.003l.003.005.011.001.011.011.006.003h.012l.012-.002.025-.006.005.002h.011l.006-.002.008.006.003-.003h.005l.008-.002h.006l.006.002.009-.003.011-.005.012.003.008.002.011.006.006.008.006.006.005.006.014.023.009.011.005.009.005.072.005.017v.006l.002.014v.003l-.003.006.005.003v.003l-.008.009-.005.003.002.003.009.003.002.003-.003.003.002.008.008.005.003.008.002.009.002.006.003.008.011.002.006-.003.008.002.006.003.011.008.003.003-.008.011-.009.009v.012l-.006.008H5.11l-.005-.003-.006-.003-.005.002-.008-.005.002-.008.002-.009-.003-.003-.005-.002-.008.009H5.061l-.002.005v.009l-.006.006.005.008.003.006-.005.003-.008.005v.006l.002.023.003.017.006.018.005.023v.015l-.006.018v.005l-.008.015-.006.009.003.006.016-.009.003.006-.009.006-.003.008.002.009.008.006.008.002v.006l-.005.009-.012.003-.006-.002-.008.003-.003.008v.012l.003.009-.005.002-.002.003.003.005.008-.003.011.002.005.008.005.009.005.011.005.003.006.003.009.003.009.004.003.006-.003.005-.001.012.006.006v.006l-.005.009-.005.003-.006-.005-.008.005-.005.008.005.014.006.006.009.008.003.003.005.003.014.017.017.017.011.005.022.006.019.001.014-.003.014-.005.008-.002.005.009.003.011.006.009.006.006.005.003.008.008.011.006.006.006.006.006.008.003.003.003.003.012.011.005.002.006.006-.003.003-.003-.003-.005-.005-.005-.008-.002v-.006l.005-.003h.016l.019.003.012-.002.008-.005.008-.002.006.002.009.005.012.011.006.006.009.012.005.012.003.008v.015l-.011.003-.008.008-.003.014v.014l.002.009.006.002.006-.008-.002-.008-.002-.006.006-.011.009-.008.005-.005h.014l.012-.002.008.003.008.006.006.008-.005.009-.006.015-.005.012.006-.002.006-.006.005-.009.005-.003.006-.003.009.006.005.005h.012l.008.002.008.003.009-.003.008.008.01.018-.002.008-.012.009-.012.009-.009-.002v.015l-.009.011-.008.015v.015l.006-.002.009-.015.003-.003.012-.002h.009l.009.004.005.003.012-.003-.009-.009h-.011l-.013-.005-.005-.005.005-.008.008-.005.011.003.009.008.006.006h.006l.005-.005v-.003l.006-.002.003.011.003.014.008.014.016.015.006.004.003.012.005.006h.008l.009.003.006-.002.003.003-.003.012.005.009.005.005h.006l.009-.002.006-.002v-.006h-.005l-.016-.006.002-.006.005-.005-.002-.006-.003-.002v-.003l.003-.003.005-.005.009-.008.011-.006.008-.003.012.006.005.005.009.012.005.011.002.005.002.011.002.009.002.023-.001.025.006.017.003.009.009.006.009.012.019.009.012.006.008.006.009.011v.008l.009.002.009.003.011.002.003.002.005-.002h.005l.003.003.008.006.011-.002h.006l.006.002.005.009.006.005.009-.003.011-.006.009.001h.012l.014-.005.012-.008.009.008h.012l-.017-.012-.005-.008.006-.012.014-.008.009-.003.012.006.002.008.008.02-.002-.023.003-.005.008-.005.012-.003.026-.002.02.008.009-.005-.002-.012-.012-.007-.023-.002-.028.002-.022-.002-.025-.001-.023-.002-.012.008-.012.002-.006-.009-.002-.008-.003-.012.003-.006.002-.005v-.009l-.003-.012-.003-.009v-.009l.005-.005.006-.002-.002-.005-.009-.006-.012-.008-.008-.003-.014-.003-.016-.003-.017-.008-.011-.009-.002-.006-.006.002-.008.011-.012.002h-.014l-.016-.002-.003-.002-.006-.003-.005-.008-.002-.018.003-.044-.005-.015-.013-.043-.009-.017-.008-.014-.012-.02-.002-.011v-.005l-.002-.006-.006-.002-.005-.014-.009-.02-.011-.021-.009-.015-.002-.019-.002-.014v-.006l.002-.011.006-.008.002-.008-.005-.006-.002-.008-.003-.008-.002-.014v-.005l-.002-.009v-.018l-.003-.018-.003-.003-.003-.006.002-.006.002-.011-.002-.009-.003-.008-.003-.011.002-.006-.002-.012v-.012l-.008-.02-.005-.02-.003-.017-.008-.009-.006-.015-.003-.003-.008-.005-.003-.006-.005-.006h-.005l-.006-.005-.005-.011-.006-.015-.009-.021-.006-.023-.014.003-.016-.012-.002-.006.008-.012.003-.005-.005-.003-.016.003-.011.005-.005.008-.002.009v.012l-.005.011-.008.002-.008-.005-.006-.008-.011-.009-.009-.014-.011-.007-.014-.011-.005-.011-.003-.005.003-.005.006.002h.005l.005-.003.006-.008.008-.006-.002-.008-.008-.002-.009-.003-.011-.008h-.003l-.014-.006-.009-.012-.006-.008-.002-.008.002-.005.003-.003.003.003.002.008.005.006h.011l.009.003.006-.005.002-.012.003-.011.005-.006.006-.003h.012l.009.003h.008l.009.006.003.008.008.015.006.015.006.005.005-.008-.008-.011-.006-.015-.003-.008v-.006l.003.005.008.008.006.002.002-.008-.003-.005-.005-.009-.002-.006-.005-.006-.008-.012v-.008l-.005-.008-.003.003-.005.003H5.49l-.003-.002-.005-.017-.009-.014-.011-.008-.012-.008-.011-.011-.005-.014-.005-.012-.009-.009-.009-.005-.016.008-.006-.005-.006-.006-.006-.006h-.012l-.005-.003-.008-.009-.016-.008-.012-.003-.016.002-.014.008-.017-.003-.022-.003-.019-.006-.014-.001v-.003l.003-.011-.002-.008-.002-.005-.006-.005-.003-.003-.011-.003-.002-.006.003-.002.008-.002h.008l.008-.003.008-.006.005-.009.008-.011h.005l.009.001v-.003l-.003-.003-.008-.003-.008.002-.003.005-.006.003-.005-.003H5.208l-.005-.006.002-.005.014-.008.009-.002.009-.005.003-.003.006-.003.005.003.006.002h.006l.02-.005.005-.005v-.005l-.003-.012-.005-.005-.003-.005.005-.006.003-.002.002-.008-.003-.015-.005-.024-.008-.025-.005-.009-.008-.003-.008-.009.005-.003.006-.003.006-.005-.002-.015-.003-.015-.006-.009-.003-.012-.006-.009-.002-.005.006-.002.005.002.008-.003-.003-.011-.008-.011-.008-.003h-.008v-.005l.003-.011-.005-.008-.012-.011-.014-.006-.014.002-.011.003-.014.002-.006-.003.005-.005.002-.012-.009-.005-.011.003v.008l-.011.008-.005-.005-.009-.011-.009-.002.003.012.002.003.003.006-.002.009h-.012l-.011-.009.006-.014-.011.002-.011-.006-.008.003-.005.005-.003.006-.006-.002.002-.006.006-.011.003-.005v-.006l-.005-.009-.008-.006-.006-.006-.003-.017-.011-.003-.022-.006-.009.002-.006-.005L5 13.629l-.002-.005v-.006L5 13.613l.003-.008-.002-.008-.005-.006-.003-.006-.006-.003h-.011l.002-.005.003-.009v-.008l-.006-.006-.008-.006-.002-.006-.002-.005-.005-.005-.002-.003v-.006l.005-.002.006.002.003.005.006.002h.005l.008-.002h.005l.008.003.003.009.006.011.009.005.009.006h.006l.006-.002.003-.008-.008-.004.006-.002.006-.003.002-.005-.005-.005.014-.011h.006l.005-.008v-.008l-.002-.011.008-.008.014.002.014.003.008-.005.006-.008.006-.008.006-.012.006-.009.003-.011.002-.014-.005-.005-.006-.003-.002-.006-.005-.009-.002-.009-.003-.008.003-.012.003-.005.006-.002.005.005.008.006h.011l.012.002.006.008.009.009.016.006h.019l.025-.017.016-.009.011-.003.016.002h.012l.011-.006.012-.011.008-.006.003-.008.002-.008.005.002.008-.003.006-.009.006-.006.006-.008.005-.012.003-.014.009-.003.011-.006.008-.005.003-.011.001-.012.008-.009.008-.002.009-.003.006-.003.009-.006.009-.006.017-.003.022.003.026.001.025.003.02.007.024.006.02.005.014.014.011.017.014.029.014.018.017.009.016.008.016.006h.012l.009-.006.008-.002.009-.002.009-.005.014-.011.019-.015.017-.012.026-.006.036-.012.029-.008.012-.005.002-.008.005-.006.005.002h.019l.016.006.011.002.009-.006.016-.006.014-.003.014-.006.017-.002.011.003.02.003.011.005.017.008h.011l.014-.002h.008l.008.005.008.006.011.008.009.003.011.001.012-.002h.043l.003-.005.012.002.008.003.005.006.009.004.016.005.042.009.011.005.011.003.016.002.016-.002.017-.002.009.002.005.009.009.008.019.008.011.009.016.003.014.002.008.002.008-.002.011.006.006.002.011.006.006.003h.014l.006.003.009.001.009.002.009.003.013.011.048.01.042.007h.011l.014-.002.009-.005.011-.005.008-.005.011-.003.016.003.003-.003.016.005.03.017.022.009.014.011.016.005h.009l.006-.008.005-.005h.003l.006.005.002.006.009-.002h.003l.002.006.009-.002.005-.005.009-.012.006-.006.008-.002.006-.005-.008-.006-.006-.008-.003-.011-.005-.008-.011-.005-.014-.003-.012.006-.006.006-.008.005-.011-.006-.011-.003-.008-.003-.005-.005.003-.009.005-.006.019-.002.011-.003.009-.003.009-.006.011-.008.006-.006.009-.006.006-.015.005-.008.006-.005.016-.017.009-.003h.012l.002-.005.002-.003-.005-.005v-.037l-.005-.018-.002-.019.002-.015.014-.011.008-.005.017-.005.019.009.011.009.022.011.019-.003.014-.002.014-.003.006-.009.001-.011v-.014l.006-.003.02-.005.014-.003.011.003.008.001.012.008.009.009.017.006.014.005.003.003v.031l.003.011.008.015-.006.006-.012.006-.003.008v.014l-.011.002-.019-.005-.014.005-.014.006-.011.008-.011.003h-.008l-.003-.005-.003-.012-.011.003-.008.009-.005.015-.006.011h-.003l-.008.011-.011.008.003.006.005.014.008-.003.006.005.005.012.009.008.014.011.009.015.017.023.006.005.012-.014.014-.011.012-.006.011-.003.009-.003.003-.009-.006-.015v-.009l.002-.008.006-.018.003-.032.005-.023.006-.011.002-.009.008-.003.017.006.009.006.003.012.006.018.013.008.011.002.019-.002.017.006v.011l.002.018.005.005.006.009.005.009.005.008.003.011.006.012-.003.012-.001.011.005.006.008.006h.003v.012l.002.008v.008h.006l.001-.008.003-.017.003-.005.008-.005.008-.005.017-.008v-.006l-.009.002-.011.003-.009.008-.012.002-.011-.002-.002-.008.005-.011v-.02l-.003-.009-.002-.014-.002-.008.008-.011.006-.011.006-.006.005-.003.009.004.008.005.005.008.002.011-.003.017.009.009.008.003.003-.003-.005-.008-.005-.008v-.006l.005-.002.005.005.011.006.011.011.012.006.014-.008.011-.011.002-.003.009-.003.009-.008.009-.011.008-.002.006-.002h.006l.029.033.008.006.014.003.008-.006.017-.002.034-.005.006.003.017.003.002-.011-.025-.003v-.006l-.009.002-.023.006-.016-.005-.012-.001h-.019l-.003-.006-.005-.008-.003-.011-.005-.003-.017-.008-.008.005-.022.015-.014.006v.005l-.006.006-.005.005-.012.011-.013-.003-.005-.014-.02-.009-.008-.002-.005-.006-.005-.008-.006-.011h-.008l-.011-.005h-.014l-.017-.002-.008-.005v-.014l-.002-.011-.002-.008-.008-.006h-.009l-.009.006-.011.008-.006.005-.009.005-.006.003-.005-.005.003-.009.003-.003-.005-.014-.005-.008-.009-.009-.011-.006-.006-.008-.003-.011.002-.008.002-.008-.003-.011-.008-.015.012-.003.008-.008-.012-.006-.017-.006-.016-.006-.017-.005-.017-.004-.008-.006-.019-.006-.012.002-.009.002-.006.002-.006.005-.008.003h-.008l-.017.005-.012.009-.005.011-.001.011v.009l-.008.003-.005-.002-.014-.01-.02-.012-.019-.006-.022.002-.022.012-.012.011-.005.011-.008.008-.003.009.005.014.002.012v.019l-.002.014-.006.009-.009.012-.009.009-.009.006-.008.012-.014.008-.016.008-.012.005-.023.012-.014.008-.022.015-.016.008-.029.006-.014-.002-.012-.005-.016-.003-.012-.011-.012-.006-.014-.006-.005-.006-.002-.012-.002-.012.003-.011.006-.009-.005-.008h-.005l-.008.002.002-.006.008-.009.009-.008.019-.008.016-.012.012-.005.014-.011.012-.005.025-.012.016-.012.003-.003h.006l.005.003.012.006.019.001.02-.002.009-.003.009-.003.005-.008.011-.011.003-.015-.002-.018v-.014l.008-.017.005-.011.015-.028.011-.019.008-.02.006-.04.014-.037.006-.012.014-.014.009-.022.012-.019.017-.005.005-.008-.009-.006-.011-.005-.008.002-.009.012-.019.014-.008.012-.005.008-.009.012-.008.015-.006.018-.006.019-.009.025-.011.033-.008.015-.012.022-.09.086h-.011l-.005.002-.009.008-.016.012-.008.005-.012.006-.017.012-.014.005-.009.006h-.003l-.011.011-.019.014-.019.011-.019.002-.012-.008-.017-.004-.022-.009-.008-.005-.017-.006-.026-.009-.019-.002-.019.002-.016.003-.006.008-.003.012-.003.009-.012.011-.014.006-.016.012-.014.002-.012.002-.006.006-.012.008h-.019l-.026-.006h-.028l-.009-.003-.006-.003-.002-.008.003-.002.009-.002.017-.008h.008l.002-.005v-.006l-.002-.009v-.006l.003-.009.005-.005.009-.002.006-.002.003-.005.002-.005.006-.006-.003-.005-.003-.009-.003-.005-.006-.003h-.023l-.02.005-.014.003h-.006l-.006.005-.014.003-.011.003-.011.002-.003-.005-.012-.006-.006.005-.011.006-.009.003h-.011l-.005-.005-.006-.011-.006-.005-.006-.005-.005-.005-.006-.009-.008-.001h-.014l-.005-.002-.008-.005-.006-.006-.012-.005-.012-.009-.009-.003-.008-.004v-.005l.008-.002.008-.003.011-.008.006-.002h.005l.006-.002.009-.008.006-.002.009-.003v-.008l.002-.005.005-.005.008-.005.009-.006.006-.002.003-.009-.003-.011-.002-.011-.008-.012-.008-.012-.013-.018-.008-.008-.008-.008-.013-.003-.009-.002-.012.005-.02.006-.008.003-.014-.002-.014-.002-.009.005-.012-.002h-.008l-.011.003-.009.005h-.009l-.008-.002-.002-.008-.002-.008.002-.008.003-.009.006-.008.014-.025.012-.021.011-.015.011-.012.011-.003.009.002.008.002h.008l.008-.002.012-.009.008-.008.009-.005.009-.003.009-.002.005-.003.003-.006.005-.011.003-.011-.005-.005-.008.009-.005.009-.011.006-.008.008-.006.003-.011.011-.012.009-.014-.002-.014-.005-.016.005-.014.012-.009.017-.014.02-.015.026-.005.002-.008.015v.023l.002.012.002.015-.002.009-.008.006-.011.003-.006.002-.005.005.005.005.003.005.006.002.003.002v.005l-.001.011-.002.008-.006.012-.011.018-.012.009-.011.015-.017.015-.016.012-.019.02-.011.011-.022.02-.017.017-.022.037-.006.009v.009l-.009.009v.005l-.017.006h-.028l-.014-.003-.016-.001-.006-.002-.003-.005.003-.008-.002-.008-.003-.006-.005-.006-.005-.002-.005-.005-.005-.006h-.006l-.005-.006-.003-.008-.005-.003-.009-.001-.003-.008-.003-.009-.006-.008-.008-.002-.006.002-.003.011-.003.009-.006.008h-.008l-.006-.008-.008-.008-.008-.008-.005.003-.003.003-.008-.002-.009.003h-.033l-.008-.008-.002-.005-.012-.008-.006-.009-.003-.006-.003-.012-.005-.003-.005-.005v-.003l-.006-.006-.003-.008-.016-.021-.011-.014-.008-.017-.008-.012-.005-.009-.009-.011-.005-.015-.006-.009-.003-.012.003-.006.002-.008.002-.006.006-.009.002-.005v-.011l.005-.003.005-.006.002-.008-.003-.008.006-.003.002-.006-.009-.014-.009-.005-.011-.008-.016-.002-.014-.003-.003-.006.003-.009.008-.015.002-.012v-.009h.005l.002-.008-.003-.008.003-.006.006-.009-.005-.008-.006-.002-.003-.002-.005-.008-.005-.005-.008-.006-.011-.001-.012.003-.006.003-.008-.002-.002-.006-.005-.009-.005-.015v-.012l.005-.009.005-.008.009-.012.002-.008v-.008l-.005-.012-.005-.014.003-.014.008-.006.009-.006.006-.006.011-.008.014-.006.008-.009.005-.009.002-.011.005-.012.003-.011-.008-.002-.002.006-.003.006-.006.021-.005.011-.008.006-.011.006-.009.006-.016.008-.009.011-.002.008v.017l.006.017-.003.014-.006.011-.005.006-.006.011.002.011v.008l-.003.003-.005.002.002.006-.001.012-.005.002h-.011l.009.009.009.002.005.006.011.018.006.003.012.005.014.003.005.005.002.009-.002.006-.002.009-.005.008-.002.015v.006l.005.017.012.012.011.008.009.014.002.017-.005.02-.003.014.008.023.002.012.016.027.017.029.019.023.006.006v.011l.006.006.005.002.005.008.008.02v.009l-.005.012-.006.002-.005-.006-.005.008-.005.006-.012.003-.012.002.002-.009-.005-.009-.005-.008-.008-.009-.008-.006-.006-.008-.011-.014-.009-.018-.021-.027-.003-.012-.006-.006-.009-.012-.009-.009-.008-.009-.009-.008-.014-.007-.016-.011-.017-.014-.009-.011-.009-.008-.014-.011-.017-.012-.02-.012-.023-.01-.03-.017-.02-.009-.019-.005-.022-.006-.009-.006-.003.006.003.006-.002.012-.003.008-.009.018-.011.014-.011.011-.016.012-.014.006-.011.012-.014.008-.012.002-.014.006-.006.002-.005-.008.002-.005-.002-.005-.003-.006-.008.008-.006.008-.006.003-.019.003-.019.002-.036.006-.012.003-.009.003v.005l.008.006.013.012-.003.009v.026l.002.003.008.008v.045l.002.012-.003.014-.005.015-.006.012-.008.014-.005.015-.002.006v.005l.005.006-.002.003-.005.006-.011.023-.005.018-.002.009.002.009.003.015.002.009.005.012.006.005.008.005.008.005.006.008.006.006.009.005.011.006.011.003.009.011.016.005.002.006.008.003.005.008.002.008.009.006.003.011v.009l-.003.011-.005.005-.011.003h-.008l-.008-.004-.008-.008-.011-.003-.005.006-.008.009-.003.006-.002.009-.005.006H4.82l-.003-.002-.006.005-.011.008-.014-.003-.006.002-.003.005-.003.005-.003.012-.002.009.003.005h.008l.006.003.003.011.003.009.003.011v.006l.008.006.014.005.002.005v.006l-.002.005-.009.003-.009.003-.008.006h-.008l-.009-.004-.006-.009-.009-.002-.006-.008-.006-.005-.006.002.002.006.008.006.002.006-.002.005v.02l.008.017.009.011.012.008.012.001.011.003.008.009.008.006.003.009.002.008.005.008-.005.005-.002.005.005.008.008.005.008.006.005.011.008.002.006.003.008.008.006.001h.017l.003.003.006.008.008.017.008.006.003.006-.002.006-.006.002-.005.005-.005.009-.008.008-.009.006-.009-.002-.009.003-.005-.003-.006.002-.003.006-.002.005.006.005.006.009v.005l-.006-.002-.008-.005-.011-.009-.006-.009-.005-.009-.002-.008.003-.012.003-.011-.005-.008-.005-.006-.008-.008-.006-.005-.005-.005-.011-.009-.003-.005-.006-.002-.009.002-.014.002-.008.003-.005.005.003.008.005.015.005.009v.009l-.008.002-.005-.002-.008.003-.003.003v.009l.006.006.005.003.008.003.005.006.002.006.006.008.006.005.011.008.012.009.011.003.003.006v.006l-.003.02-.002.005.003.006.002.006.005.006.005.009.002.006.002.005-.005.009-.005.002-.005.002-.002.005v.006l.002.006-.002.008H4.8l-.005-.002-.005-.003-.008-.003-.012.005-.002.006-.006.005-.011.005-.012.002-.012-.014-.008-.001-.025-.003-.006.002-.002.008-.005.003-.008.003-.002.005v.014l-.003-.002-.003-.015-.006-.006v-.003l-.003-.006.002-.008-.002-.005-.003-.003-.002-.005-.008-.005-.011-.006-.009-.003-.003-.005v-.003l-.005-.009-.002-.005-.002-.003-.003-.003-.003-.002-.003-.003-.002-.003-.005-.003.002-.003-.002-.005-.002-.003-.005-.003-.003-.003-.002-.005-.003-.002-.003-.003-.006-.002h-.005l-.003-.003-.005-.003-.003-.005-.002-.003-.005-.005-.005-.002h-.005l-.006.005-.008-.003-.003-.008-.006-.003-.005-.002-.003-.009-.006-.012-.006-.009-.006-.006-.006-.005-.003-.002-.003-.003-.005-.002-.003-.003-.008-.002-.005-.003-.006-.002-.003.002h-.005l-.005.002-.005-.003-.003-.003v-.003l-.002-.003-.003-.002h-.009l-.005-.002v-.005l-.002-.003-.002-.005v-.005l-.003-.005-.005-.005-.008-.011-.011-.012-.006-.005-.005-.005-.005-.005-.006-.003-.017-.008-.017-.008-.017-.004-.011-.002-.008-.002h-.008l-.009.002-.011.006-.014.006-.012.011-.008.003-.005.003-.002.005v.003l-.005.002-.003-.002h-.005l-.008-.005-.003-.006-.006-.003-.005-.006-.005-.003-.009-.003h-.003l-.009-.002-.006-.003-.005-.009-.002-.011.002-.009-.006-.012v-.005l-.002-.008-.005-.012-.012-.012-.008-.008-.006-.006-.012-.005-.006-.006-.006-.006-.006-.003-.005-.002h-.011l-.006-.002-.003-.002-.005-.005-.002-.003-.002-.003-.003-.008-.005-.005-.005-.002h-.011l-.002-.003.002-.006-.002-.003-.003-.005-.005.002-.006.002L4 13.517v-.008l.002-.003L4 13.495l-.003-.011-.006-.015-.008-.017-.011-.02-.009-.015-.005-.006-.009-.006-.006-.009-.005-.006-.006.002-.006-.003-.003-.006-.006-.015-.008-.011-.005-.006-.016-.008-.002-.008-.006-.003-.008-.008-.014-.012-.027-.018-.02-.014-.02-.012-.015-.008-.02-.008-.019-.006-.02-.004-.014-.003-.014-.002-.027-.001-.014-.002-.012-.002-.011-.003-.006-.008v-.005h.005l.008.006.017.009h.027l.019.002.006.001.006.001h.008l.006-.002.002-.003-.003-.012-.003-.006-.002-.003-.002.005v.005l-.002.005-.008.003h-.008l-.008-.002-.008-.002-.005-.006-.002-.003v-.005l.009-.009v-.029l-.008-.006-.002-.003-.003.003-.002.005-.002.008v.006l-.002.005-.002.006-.003.008v.011l-.006.005-.005-.003-.003.003-.011.002-.006-.008-.008-.002h-.006l-.002-.005v-.003l.002-.003-.002-.003-.002-.008-.008-.003-.006-.006-.002-.005.005-.006.003-.009.003-.008.005-.006.006-.002.008-.009.006-.005.008-.002.003-.009.002-.003-.002-.008.006-.003.009-.005.008-.006.003-.005.005.001.006-.005-.003-.005-.005.002h-.005l-.003.003-.009.008-.006.005-.003-.008h-.008v.005l-.005.006-.005.009-.006.003-.009.003-.002-.006v-.009l-.005-.026.003-.008.003-.005.002-.009-.003-.005v-.009l.008-.006.003-.005-.003-.006-.006.003-.005.005-.003.003.002.005v.003l-.003.006h-.003v.006l-.002.006-.003.003-.002.005.002.003v.008l-.005.014-.002.011-.003.012-.005.008h-.008l-.009-.002-.006-.001-.002-.005v-.016l-.002-.009.002-.008-.002-.008-.003-.003h-.003v.019l-.002.009-.003.005.002.008.002.009.005.006.008.005.003.003.005.015-.002.006-.005.003-.003-.003-.011-.009-.008-.005H3.53v.005l.003.003.006.008.014.011.011.011.008.012.011.012.006.005h.003l.002.005-.003.002-.005.006-.012.002-.011.002-.023.008-.025.011-.022.019-.014.02-.009.019-.003.015.003.015.005.003.005.002.006.005h.006l.008.003.009.006.003.003.003.008-.002.003-.008-.004-.008.002-.003-.003-.003-.002-.005-.003-.003-.003-.011.002h-.008l-.008-.002-.005-.002-.003-.003H3.44l-.003.002-.006-.002h-.009l-.006.002H3.41l-.003-.002-.006-.003-.002-.003-.006-.001-.003.002-.003.003-.005.002h-.009l-.008-.003H3.36l-.002-.003v-.003l.003-.003.003-.005.008-.003.005-.003.005-.001.003-.001.005-.005.003-.006.008-.014.006-.018.008-.019.009-.017.012-.026.008-.019.011-.029.011-.029.012-.028.011-.032.015-.04.017-.041.012-.04.003-.011.014-.035.011-.032.008-.026.003-.022.003-.015-.002-.017v-.022l-.003-.011-.002-.008-.002-.005-.005-.005.002-.003v-.012l-.005-.005-.005-.006-.009-.006-.005-.003-.005-.002-.005-.002v-.005l.003-.012.002-.005-.002-.006v-.011l.002-.008-.003-.009-.002-.009-.005-.008-.006-.009-.005-.006-.008-.01-.007-.008-.003-.009v-.019l-.003-.005-.003-.005-.003-.002-.005-.003-.003-.008-.003-.003-.003-.009-.005-.014-.006-.006-.002-.009.005-.003.002.003.011.006.012.009.006.003.003.015.008.008.003.009.006.003.011.011.049.061.003.009h.005l.005.017-.005.003-.005.002-.005.003.002.003h.008l.005.001h.006l.003-.002.002.003.006.005.002.005.003.006.005.002h.003l.003.003.011.032.002.006h.005l.003.006.002.003v.006l.002.003.005.006.006.003.003.008.005.017.003.005h.003l.009.005.002.005.003.002-.005.006v.009l.006.004.005.005.002.008.002.005.005.005.003.003.006.009.003.005.002.005-.002.005v.009l.006.006h.003l.008.002.005.003.003.009.006.005.008.011.002.006.011.012.101.108.005-.002.017.006.005-.005.002-.006-.003-.006-.01-.015L3.864 13l-.006-.011-.002-.003-.002-.005-.005-.002-.009.005-.009-.004v-.026l-.003-.002-.003-.002-.006-.003h-.006l-.003-.002h-.003l-.006-.006-.002-.005.002-.006.003-.006.002-.008-.006-.009-.003-.003-.008-.006-.005-.003-.003-.006-.002-.011-.002-.005-.002-.005-.006-.006-.005-.003-.006-.002-.005-.005-.003-.003v-.006l-.002-.005-.005-.003-.008-.001-.002-.008-.006-.009-.003-.008-.002-.008-.002-.003-.002-.006-.002-.005-.006-.003-.006-.006-.003-.006-.003-.011-.005-.009v-.005l-.003-.005-.003-.003-.012-.035-.011-.012-.005-.003-.01-.036-.003-.008-.002-.003-.002-.006v-.012l.002-.009.005-.017.002-.005v-.005l-.009.009-.006.008-.005.009-.006.003-.006-.006-.006-.008-.003-.005-.006-.005-.003-.003-.006-.003-.006.003-.008.012-.006.002-.002-.008.002-.009v-.005l.003-.011-.002-.009-.003-.017-.008-.008H3.56l-.006.002-.006.008-.008-.006-.006.002-.005.003-.002-.003-.002-.003.005-.012.003-.008.003-.011.002-.008.002-.011v-.008l-.002-.006-.002-.009-.003-.009-.008-.017-.003-.008-.005-.008-.002-.003v-.005l-.011-.008-.008-.008-.003-.002-.005-.008v-.005l-.002-.008-.002-.006-.004-.002-.006-.004-.005-.002-.016-.046-.008-.002h-.003l-.005-.005-.005-.006-.006-.009-.008-.006-.008-.005-.011-.011-.014-.011-.019-.004-.019-.002-.012.003-.009.003-.012.008-.011.006.002.006.002.003.003.001.003-.002.003.002.003.003v.008l-.003.005-.003.002h-.009l-.005-.002-.006-.003-.002-.003-.005-.006-.002-.005v-.006l-.002-.003-.005-.005-.002-.006-.003-.006-.002-.008.003-.006-.006-.003-.003-.003-.005-.005-.003-.005-.005-.006-.003-.003.003-.005.005.003h.005l.003-.006.003-.008.002-.012.006-.027.005-.026v-.021l-.003-.023-.005-.018-.005-.012-.011-.015-.006-.011-.003-.015-.008-.02-.003-.011-.006-.008-.005-.003-.005-.003-.002.005h-.003l-.006-.002-.002-.008.002-.003v-.008l-.002-.006-.003-.017-.003-.009-.005-.014-.008-.014-.008-.005-.013-.012-.005-.006-.003-.006-.002-.008-.002-.005-.006-.002-.003-.003v-.009l-.003-.02-.005-.006h-.009l.002-.005v-.005l.002-.009-.002-.006-.002-.008-.002-.005-.005-.005-.008-.009-.008-.003-.006-.002h-.006l-.005-.002-.002-.005-.003-.003-.003-.005-.006-.005-.008-.003-.002-.003v-.005l-.006-.002-.005-.006-.002-.003-.003-.003h-.008l-.003-.008-.008-.009-.005-.006-.005-.005-.009-.003-.008-.009-.019-.017-.014-.011-.009-.005-.011-.006-.008-.004-.005-.005-.005-.003-.003-.003-.006-.002-.006-.003-.006-.002-.003-.003-.008-.002-.005-.003-.005-.002-.013-.006-.006-.006-.005-.003h-.008l-.002-.006.003-.005-.005-.002-.003-.005-.002-.003-.002-.005-.008-.002h-.006l-.003-.002-.005-.003-.002-.003-.006-.001-.003.002-.002.005-.006.003-.002-.005-.005-.002-.002-.005-.003-.005.003-.008-.002-.003-.006.002-.006-.005-.011-.011-.005-.009-.006-.005-.002-.009.002-.005-.005-.005-.002-.003-.005-.005h-.008l-.006.002-.003-.008-.002-.003-.003-.002-.005-.003-.006-.008-.002-.005-.005-.002-.005-.003h-.005l-.008-.006-.005-.005-.005-.006-.002-.005h-.008l-.003-.002-.005-.002-.002-.008.002-.008-.002-.011-.005-.003-.009-.001-.006-.005-.009-.008-.011-.002-.003-.003-.005-.002-.002-.006-.005-.006-.003-.003h-.014l-.003-.003-.006-.009-.003-.008-.002-.005.002-.003-.003-.009.002-.005.005-.008.003-.006-.005-.003-.005-.006-.003-.006-.003-.006-.003-.009-.005-.008-.005-.006-.008-.006-.008-.003-.005-.002-.008.003-.003-.005-.003-.006-.003-.003-.006-.006-.009-.005-.005-.005-.003-.005.003-.005.005-.002.003-.002.002-.006v-.005l-.002-.006-.008-.005-.008-.003-.009-.011-.009-.015-.009-.011-.005-.008-.003-.005-.002-.006-.002-.008-.003-.005-.005-.005-.002-.006-.002-.005-.006-.008-.005-.005-.003-.005-.003-.006v-.005l-.009-.012-.003-.003-.003-.003-.005-.005.002-.003.005-.005-.006-.014-.005-.009-.003-.003-.005-.005-.002-.009-.003-.006-.003-.006-.006-.006-.006-.005-.006-.005-.011-.003-.006-.006-.005-.006-.003-.008.006-.002.002-.008-.002-.005-.002-.008-.002-.005-.003-.002-.006-.005-.005-.014-.002-.008-.006-.009-.003-.003-.006-.005-.013-.009-.008-.006.002-.005-.005-.008-.005-.006-.002-.003-.006-.005-.005-.006-.003-.006-.008-.003-.016-.009-.009-.005-.005-.006-.005-.003h-.005l-.006-.003-.005-.006-.005-.005-.003-.003v-.006l-.003-.006-.006-.006-.005-.005-.011-.006-.006-.005-.009-.003h-.005l-.009.002-.006-.003-.008-.009-.006-.011-.005-.005-.005-.005H2.11l-.005-.002-.003-.005v-.003l.003-.009-.002-.006-.003-.003-.008-.005-.005-.006v-.006l-.002-.009-.003-.009-.002-.003-.003-.005-.009-.008-.005-.005-.002-.003-.002-.006v-.005l-.006-.003-.003-.003-.005-.002-.003-.003-.002-.005-.003-.002-.006-.005-.005-.003-.006-.005-.005.002-.003.002-.003-.002v-.008l.002-.006.002-.003-.003-.002-.014-.014-.019-.018-.008-.008-.003-.003h-.005l-.003.002-.005.002-.011-.006-.008-.008-.002-.005-.005-.005h-.006l-.006-.002h-.003l-.005-.002v-.003l.008-.003.003-.005-.002-.003-.003-.003-.003-.008-.002-.009-.005-.006-.002-.005-.006-.006-.009-.009-.006-.005-.006-.003-.009-.002-.003-.003-.002-.006-.005-.002-.006-.003-.005-.008-.008-.009-.003-.003-.005-.006-.005-.005-.005-.008-.009-.003-.005-.006-.003-.002-.006-.006-.006-.012-.003-.006-.003-.009-.002-.008-.003-.009-.002-.012-.002-.006-.003-.009-.005-.008-.008-.008-.005-.006-.006-.005-.005-.003-.006-.003-.005-.005-.003-.003-.003-.005-.003-.002h-.006l-.006-.006-.002-.003-.002-.006-.005-.009-.005-.009-.005-.008-.006-.008-.006-.005-.012-.011-.012-.014-.006-.008-.005-.009-.005-.003-.003-.006.002-.003.002-.006-.003-.005-.008-.003-.005-.002-.005-.006-.005-.002h-.008l-.003.002h-.006l-.003-.003-.002-.005-.002-.006v-.008l-.002-.006-.002-.006v-.005l.005-.003.003-.002.002-.003.002-.006-.002-.006-.002-.006-.005-.005-.003-.005-.005-.009-.003-.012-.005-.011-.005-.009-.006-.008-.003-.005.003-.006.005.001.005.002.008.002h.005l.006-.002.006-.005.014-.015.014-.02.014-.023.015-.037.016-.028.011-.028.012-.032.005-.017.005-.011v-.009l.002-.006v-.009l.002-.005v-.003l.003-.006v-.005l-.003-.006-.002-.006-.003-.006-.003-.005.002-.006.003-.005.003-.002-.002-.005v-.006l.002-.005v-.009l-.003-.006-.005-.005.002-.009.002-.005.002-.003-.006-.008-.003-.008-.003-.005-.002-.006-.003-.008-.003-.006-.002-.011v-.006l-.002-.006-.003-.008v-.005l.002-.003v-.005l-.003-.012-.002-.008-.005-.011-.003-.011.002-.008.002-.005.002-.006-.002-.008-.006-.003-.005-.008-.003-.006v-.012l.005-.009-.005-.008-.005-.006-.003-.006v-.011l.003-.005-.003-.008-.003-.005-.002-.006.002-.006-.002-.006-.009-.009-.006-.006-.006-.006-.003-.002h-.006l-.005.002-.005-.002-.003-.012.002-.003.002-.005h.003l.002-.005-.003-.006-.003-.003-.002-.005.002-.006.003-.002.003-.005.003-.003v-.008l-.003-.002-.003-.003-.003-.003v-.005l-.002-.006-.006-.003-.005-.005-.003-.005-.005-.011-.005-.006-.006-.006-.002-.003-.002-.003v-.009l-.003-.005-.003-.003-.003-.006-.002-.008-.002-.008-.003-.003-.003-.008-.005-.006-.006-.005-.005-.002-.005-.001-.006-.005-.002-.003-.002-.006.002-.003.003-.003.002-.003v-.006l-.002-.006-.006-.015-.002-.006-.003-.008v-.005l.006-.003.003.002h.005l.002-.003-.002-.003-.003-.006-.003-.008-.005-.003-.003-.005-.003-.006.002-.003.003-.003h.006l.006-.003v-.003l-.003-.003-.005-.005-.008-.005-.003-.003v-.003l.006-.015.003-.005v-.003l-.002-.003-.006-.002-.003-.003-.003-.012-.005-.018-.005-.005-.003-.002-.002-.003v-.003l.003-.003.005-.002.002-.006-.003-.003-.003-.002-.002-.003-.005-.003-.002-.003v-.009l-.002-.005-.002-.006v-.008l-.002-.008-.003-.003-.003-.002-.006.003-.003.003h-.005l-.003-.006-.005-.009-.002-.008.002-.006V8.85l.003-.009-.002-.003v-.003l-.002-.003V8.82l.003-.005.003-.002.003.002.003.002.002.003.003.003.003-.006-.002-.005-.002-.006.002-.008v-.003l.005-.005v-.009l-.003-.003-.003.002-.003.002-.003-.002-.006.002-.003.002h-.006l-.006-.003-.008-.006-.002-.008.003-.011.003-.006.006-.003.006-.002.008-.002.003-.005.002-.005-.002-.006-.003-.008-.002-.003-.003-.003-.005-.003.002-.005.003-.006v-.003l-.002-.003-.003-.003-.003.002-.006.002-.003-.005-.002-.003-.003-.005-.003-.003-.003-.003V8.67l-.002-.003v-.008l-.003-.005-.005-.008-.002-.005-.006-.008-.006-.009-.002-.008.002-.005.002-.003.005-.003.003-.003.003-.002-.002-.005-.002-.008-.002-.008.001-.006.003.002.005.005h.006l-.002-.006-.003-.006-.005-.005-.005-.003-.003-.003.002-.008.003-.002.005-.003.006-.006.002-.003-.003-.003v-.005h.003l.002-.005-.002-.003-.003-.005v-.005l-.002-.003v-.005l.003-.009.003-.003.002-.005.002-.003v-.003l-.003-.005.002-.005h.003l.002-.003-.002-.005-.002-.003-.005-.005-.002-.005.003-.003v-.018l-.002-.005.002-.003.002-.003.005-.005.005-.002.003-.003.002-.006.002-.011v-.009l-.002-.008-.005-.003-.003-.005V8.36l.005-.006h.012l.005-.003v-.005l-.002-.003-.003-.005-.005-.002-.003-.002-.002-.003-.003-.002v-.008l-.002-.005-.003-.003-.002-.003.002-.005h.005l.003.002.002-.003h.003l.005-.005-.002-.003-.003-.005-.002-.006.002-.003.002-.006.003-.006v-.006l-.002-.003.002-.005.005-.002.002-.006.003-.005.002-.005V8.23l.002-.003.002-.003.005-.005v-.006l-.002-.005v-.006l.002-.005.006-.002.003-.003v-.008l.002-.011v-.009l.002-.006.002-.006.002-.005-.002-.003-.005-.006v-.003l.005-.002h.016l.003-.006.006-.009.005-.009.006-.009.002-.009.011-.02.011-.025.008-.017.009-.021.012-.043.006-.03.006-.017v-.029l-.002-.008-.005-.006-.003-.008-.002-.005-.003-.011-.003-.002-.003-.003-.003-.006v-.011l.003-.011-.002-.005-.005-.008-.006-.009-.006-.011-.003-.006-.007-.035.005-.009.003-.003.005-.006.003-.011.002-.018-.002-.009V7.68l-.003-.001-.002-.002-.002-.003.002-.003.003-.003.002-.006-.003-.009-.003-.011v-.008l.003-.008.003-.011.003-.009-.005-.014v-.017l-.002-.006-.002-.009v-.009l-.003-.006-.003-.005-.005-.005v-.006l.002-.012.003-.011-.003-.014-.002-.014-.002-.014-.003-.011-.003-.006-.008-.011-.005-.005-.005-.006V7.42l-.002-.008v-.009L1.5 7.397l-.003-.008-.006-.008-.011-.011-.02-.015-.013-.011-.006-.008-.002-.006-.002-.008.003-.008.002-.006.002-.003v-.008l-.003-.006-.008-.003.003-.003.005-.009v-.005l-.002-.005-.003-.012-.002-.008-.006-.008-.002-.009-.002-.009-.002-.012.001-.011.003-.012.003-.016v-.011l-.002-.012v-.012l-.002-.018-.002-.017-.002-.006-.002-.012-.003-.02-.003-.008-.003-.006-.002-.003.002-.003.002-.003.002-.009-.002-.005v-.009l-.003-.006-.002-.014-.002-.009-.003-.011-.005-.009-.003-.008-.008-.006-.009-.008-.012-.005-.023-.011-.019-.015-.017-.012-.006-.009-.005-.005-.003-.005-.006-.005-.005-.002-.003-.002-.003-.003v-.006l-.005-.005-.003-.002-.005-.003-.003-.008-.006-.009-.002-.008-.005-.016-.003-.008-.002-.006v-.005l-.003-.014-.002-.003-.005-.012-.003-.005-.003-.005-.008-.026-.003-.015-.003-.016-.002-.008-.008-.008-.008-.006-.009-.006-.014-.009-.016-.014-.009-.008-.005-.006-.008-.02-.003-.009-.002-.011-.005-.008-.008-.014-.006-.012-.005-.012-.005-.009-.003-.006-.005-.016-.006-.008-.013-.017-.012-.011-.003-.002-.005-.003-.008-.008-.005-.008-.006-.011-.003-.008-.011-.015-.008-.009-.006-.008-.011-.012-.008-.006-.002-.005-.002-.008-.003-.009-.008-.009-.012-.014-.019-.021-.006-.011-.006-.005-.003-.003-.026-.02-.012-.005-.009-.002-.006.002-.005.006-.003.008H.86l-.005-.002-.008-.014-.006-.011-.006-.008-.003-.006.002-.003.003-.008.002-.006-.006-.003.002-.009-.002-.005.002-.008v-.014l.002-.014.003-.018.002-.014v-.003l-.003-.014-.006-.02-.008-.018-.003-.006-.005-.006-.005-.003-.002-.003-.002-.006-.006-.009-.008-.012-.012-.015-.006-.014-.003-.009-.006-.008-.006-.001-.008-.006-.008-.003-.005-.006-.003-.003-.009-.006-.012-.009-.017-.006-.014-.006-.011-.003-.006-.002-.008-.005-.011-.006-.009-.006-.014-.006-.012-.003-.009-.004-.008-.008-.008-.006-.012-.002-.008-.011-.008-.012-.009-.014-.009-.012-.003-.011-.006-.008-.006-.012-.006-.009-.008-.011-.009-.012-.008-.008-.009-.005-.009-.008-.005-.009-.011-.011-.019-.014-.023-.012-.009-.008-.009-.003-.005-.006-.006-.008-.005-.008-.008-.006-.006-.008-.011-.011-.009-.008-.011-.008-.006-.005-.008-.006-.009-.008-.008-.009-.008-.011-.019-.018-.016-.015-.013-.011-.003-.005-.003-.003-.003-.006-.002-.008-.003-.008-.005-.009-.005-.008-.008-.006-.011-.008-.016-.008-.009-.006-.005-.003-.003-.003-.005-.006-.002-.003-.005-.008-.005-.006-.002-.003-.002-.005-.009-.006-.005-.006-.003-.006-.002-.005.002-.005.003-.003v-.005l.002-.011-.003-.008.003-.017v-.009l.006-.017.008-.02.005-.009.003-.012.002-.012.002-.003.002-.006.003-.011.003-.008.003-.006.005-.008.002-.008.002-.012-.003-.009-.002-.014-.003-.009-.002-.009L.18 5.2l-.008-.009-.003-.006-.003-.006-.002-.008V5.16l-.002-.011V5.078L.159 5.06l-.003-.017-.002-.009L.146 5l-.017-.021-.019-.021-.008-.003L.1 4.95l-.006-.009-.002-.005L.09 4.93l-.005-.009-.006-.008-.003-.008v-.003l-.002-.005-.003-.008V4.88l.002-.009-.002-.008-.005-.014-.006-.005-.006-.005-.003-.003.002-.008.002-.009.009-.017.014-.028.014-.023.012-.029.006-.018.006-.016.008-.025.005-.018.003-.006.002-.008-.002-.005-.005-.009-.002-.008v-.003l.002-.005v-.012l.011-.02.003-.006.003-.009.012-.018.012-.019.017-.032.008-.02.011-.028.009-.021.005-.012.008-.015.011-.02.009-.022.008-.02.002-.005.011-.024.011-.019.006-.017.003-.012.005-.008.005-.009.006-.006.005-.005.003-.008.003-.003.006-.003h.008l.006.002H.35l.003.003.002.005.002.006.005.003.008.003h.006v-.003l.002-.009.016-.016.003-.006v-.003l.006-.002.006-.005-.014-.005-.005-.003-.009-.001-.006-.005-.009-.002-.005.002-.005-.005.003-.005.005-.012.006-.02.02-.031.02-.017-.008-.002-.006-.008-.042.069-.006.014-.008.011-.009.016-.003.008-.002.006-.005.003-.002-.005.002-.006.008-.012.006-.014.009-.016.017-.028.006-.014.029-.052.012-.026.006-.012.014-.022.016-.02.006-.011.025-.04.031-.05.014-.023.022-.034.006-.015.003-.011.005-.011.009.009.005.012v.003l.005.005.002.012-.006-.002H.565l-.019.017-.023.035-.039.058-.002.009.003.008-.014.009-.002.006.006.008.011.009.011.003.006.003.012.005.009.005.023.006.002.005.011.014.014.006-.008-.026.006-.012.006-.003.003-.009.011-.005.003-.002.006-.002.005-.012-.005-.009-.003-.005-.01-.031-.006-.012v-.005l.003-.005.002-.005.003-.005.003-.008.002-.005.009-.016-.002-.003-.008.003-.005-.008v-.008l.006-.002.019-.005.015-.008.008-.017.009-.018-.002-.011-.006-.031v-.006l.006-.006.002.005v.006l.005.003.003-.012.005-.023.008-.014.011-.02.003-.014v-.008l.015-.026.029-.011.015-.014.014-.005.005.003-.003.009.034-.006.02.012.025.003.012-.008.006-.002.005-.008.003-.003.008-.003.006-.002.008-.003.006-.005.036-.025.011-.012.006-.017v-.048H.927v-.009l-.002-.015-.002-.006-.014-.005-.011-.005-.011.008-.009.005-.014.011-.003-.003-.009-.005-.009-.014H.831L.826 3.43v-.005L.82 3.417H.808l-.014-.001-.003-.006H.782l-.003.012-.005.012-.008.011-.002.006-.005.006-.008.019-.011.017-.005.011-.005.019-.005.018-.005.009-.011.014-.017.012-.008.011-.009.009-.002.012-.006.008-.005.017v.02l-.002.011-.012.022-.005.005-.006.005-.005.006-.006.012-.019.012-.005.008-.008.009-.003.011-.005.006H.577l-.014-.009-.003-.009.009-.008.022-.037.009-.014.008-.012.006-.023.039-.063.011-.017.019-.035.019-.034.012-.026.009-.017.005-.011.019-.037.011-.02.005-.009.003-.009.002-.008.003-.008.005-.006.006-.014.009-.028.009-.028.011-.029.006-.019.009-.032.009-.028.005-.02.002-.005.012-.04.009-.032.009-.034.005-.029.005-.014.002-.008v-.003l.005-.009v-.011l.002-.015.003-.019.001-.015.003-.012v-.009L.9 2.889V2.88l.002-.006v-.008l.002-.005v-.005l-.003-.003-.002-.005-.005-.003-.003-.005-.003-.006-.002-.006v-.009l-.003-.005-.003-.009-.005-.006-.002-.002-.003-.009-.011-.009-.008-.008-.012-.009-.005-.005-.008.002-.005.005-.005.003v.008l-.003.005-.005.002-.002-.002-.003-.005-.002-.006.003-.003.002-.005.006-.011.002-.006-.002-.008-.003-.008-.003-.003-.005-.002H.795l-.002-.002-.002-.003-.002-.005v-.008l.002-.006.005-.008.002-.008v-.014l-.002-.003-.005-.003.002-.005h.005l.003-.002.003-.002v-.003l-.002-.005-.005-.006-.002-.003-.005-.009V2.62l-.003-.008-.006-.006v-.003l.003-.002.002-.005.005-.003v-.006l-.002-.006v-.003l.003-.006.002-.005v-.011l.002-.003-.003-.008.005-.008v-.005l-.005-.006-.008-.011-.002-.006.002-.005.003-.003.003-.005.002-.006-.002-.006-.002-.005.002-.006.005-.003.003-.003h.01l.005.002.006.003.006.002.006-.002.005-.003.008-.009.006-.012.006-.015.006-.019.008-.025.005-.017.011-.025.009-.031.015-.039.002-.006.003-.008.008-.02.008-.026.009-.024.005-.017v-.015l-.002-.009.002-.006.003-.002.005-.011.008-.022.006-.022.005-.015v-.02l.003-.008.002-.011.005-.008.003-.008.005-.015.005-.017.003-.014v-.019l.002-.008.002-.006.003-.006.003-.011.003-.009.003-.022.006-.015.002-.009-.006-.006.005-.005.003-.003.003-.009.003-.015.006-.025.002-.003.008-.029.003-.023.003-.017.008-.02.002-.02.002-.015v-.003l.003-.012.002-.009.003-.012.003-.011.003-.019v-.015l.002-.011.002-.008.002-.014.005-.022.003-.029.003-.035.002-.021-.003-.02v-.02l.002-.012.002-.017V1.36l-.002-.006-.005-.017-.003-.017-.002-.015-.005-.014-.005-.011.002-.015-.002-.011-.003-.009-.005-.009-.002-.011-.003-.009v-.009l.002-.011.002-.003-.003-.009-.003-.005.003-.003.003-.002-.003-.008.005-.006v-.006l.002-.017v-.028l.006.003.003.005v.014l-.002.005v.003l.003.002.005-.009.002-.006.003-.003.005-.002.003.003.008.005.017.008.011.011.005.002.005.003.005.006.006-.002.003-.005-.002-.003v-.005l-.006-.006-.003-.005-.008-.005-.008-.005-.006-.003-.008-.008-.006-.002-.005-.003-.008.002-.005-.003-.006-.002-.003-.002-.008-.003-.008-.002-.009-.009-.013-.012-.008-.008-.002-.014-.003-.008-.003-.011-.005-.011v-.017l.002-.005.002-.005V.992L1.028.987V.982l.006-.003.003-.005V.961L1.031.946 1.025.938V.933L1.03.924l.002-.005.002-.008-.002-.008-.003-.006-.005-.005-.002-.003-.003-.008-.003-.005-.003-.009-.005-.006H1V.853l.002-.006V.844L1 .838l.002-.006L1 .817.997.808.991.785.989.776.986.77.981.759.973.741.965.729.96.723.957.707.952.695.947.678.942.666.945.658.947.653V.644L.945.635V.624L.939.613.942.61.94.594.938.585.941.58.939.557.933.526.93.509.924.491.913.471.91.466.897.448.886.431.872.422.864.417.859.415H.856L.854.413.849.411.846.406.841.401.835.398.827.395.822.393.817.395.814.4.808.405.805.407.799.405.791.402.78.396.771.39.768.387.765.381.763.376.757.37.752.368.75.363.747.357.733.343.722.332.714.324.708.316.703.313.698.311.693.313H.688L.685.311.683.306.678.301.672.293.669.285.666.282.664.276V.271L.667.266.672.263.677.258.683.255.688.25.691.245.696.239.702.23.71.216.722.191.731.17.736.158l.006-.02.015-.041.012-.04L.775.03.78.008l.005-.023.006-.014.006-.028.006-.034.008-.029v-.009l.002-.014.002-.022.002-.012.002-.017.002-.014v-.011l.002-.009.002-.011.002-.009V-.26l.002-.006.003-.005.002.003.002.008-.003.015-.002.012-.002.011.005.005.002-.003h.005l.003.002.003.006.002.005.003-.003v-.008L.849-.23.846-.235.844-.24l.002-.005h.003L.852-.25.85-.253v-.003L.847-.265.842-.274.836-.28.827-.282.819-.28.816-.289v-.005l.002-.011.002-.012.003-.008.005-.015.003-.011.001-.015v-.02L.83-.403v-.012L.828-.42.825-.426.823-.435.821-.446z"/><path d="M.685 4.013l-.012.009-.014.006-.003-.002.002-.005.006-.016.006-.011.008-.002.005.002.009-.002.005-.002h.008l.005.005-.002.006-.006.005-.006.003zM6.821 13.38l-.005.005-.012.008-.009.005-.014-.003-.014-.006.031-.031.014-.012.016-.014.002.02-.002.012-.003.009zM6.051 13.382l.003.009.002.009-.005.005-.002.006h-.017l-.003.003-.006.002-.003-.003-.014-.002-.013-.008v-.011l-.003-.015-.012-.009-.023.008v-.018l-.008-.012.008-.005.027.012.037.012.02.011zM6.553 13.555l.012.009.011.007.014.005.006-.003.006.002.011-.002.011.003.006.003.016.015-.012.009-.014.003-.02-.003-.023-.006h-.03l-.02-.014-.011-.012-.009-.029-.008-.018-.006-.021v-.023l-.006-.018.047.015h.006l.011.003.014.005.016.003.009.008-.003.008-.005-.005-.006.002-.008.008-.02.006-.003.008-.014.014.002.009.005.015.011.003zM6.464 13.528l.005.014.003.009.008.015-.005.006-.011-.003-.013-.006-.016-.003-.023-.001-.025-.009-.014-.012v-.008l.028-.009.025-.008.006-.011.003-.024.005-.011.012.011.005.015.002.009.003.012zM4.865 14.132l-.008-.003-.008-.003-.002-.006.002-.008.003-.011.008-.009.009-.006.006-.008.011-.008h.006l.006.006.006.012.006.008.006.018-.005.012-.008.009-.008.002H4.89l-.016-.003-.006-.003zM5.063 14.297l-.009.003-.006-.006-.006-.006-.005-.005.002-.014-.017-.046.008-.011.017-.005.022.041-.022.019.002.008h.011l.006-.006.008-.002.005.002.002.009-.008.008v.011zM5.143 14.342v-.008l.089.021.032-.002.017-.002.006.003.014.006.011.009.002.011.017.009.009-.003.003.008.014.006.012.011h.009l.016.012.017.009.012.023.002.017-.012.015-.023.006-.028-.009-.019-.008-.023-.015-.022-.006-.014-.024-.009-.008-.023.003-.025-.006-.003-.011.008-.011-.002-.009-.025-.003-.003.015-.017-.005-.008-.009-.014-.002-.023-.006zM2.905 14.326l-.016-.007-.006-.011v-.006l.006-.002.006.002.014.009v.005l.008.002v.008h-.005zM3.086 14.345l.005.003.003.006v.005l-.014.003-.005-.002-.002-.006.005-.005zM3.092 14.387h.006l.011.003v.003l-.006.003-.008.002-.003-.005zM3.271 14.512l.002-.003v-.005l.008.003.003.002.002.003-.005.002-.005-.003-.002.001zM3.345 14.6l.006.012h-.005l-.005-.002h-.003l-.005-.008.005-.008zM3.362 14.599l.011.002.002.006-.009.011-.003-.008-.002-.008zM11.735 27.165l.001-.017.009-.009.003-.012.009-.006.005-.019v-.006l.002-.009.002-.008-.003-.006-.006-.009-.02-.009-.003-.019-.017-.014-.006-.005-.008-.005-.006-.006-.008-.003-.011-.009-.011-.006-.014-.007-.022.008-.012-.004-.005-.011.019.002.008-.006.006-.005-.005-.009-.008-.006.008-.014.003-.017.031.005.026.006.012-.003.005.008.014-.005h.014l.005.003h.014l.017.006.015.003.012-.003.022.01.028.011.025.009.019.01.016.015.008.009.011-.006.009.008.036-.009.008-.008.019.004.011-.006.017.006.033.001.017-.009.014.006.005.011.015.002.003.006h.009l.008.005.02.01.015-.006.029.017h.019l.022.02.003.012.011.006.014.006.02.032.014.001h.012l.011.003.012.009.022-.005.02-.006.009.012.028-.003.008.009.014.003.017-.006.012-.006.011.001.037-.046-.009-.018.003-.015.011-.006.011-.011.011-.012.031-.017.012.011.019.003.003-.011.014.002.012-.011.012.006.009.017.03.014h.015l.028.009.012.017.011.008-.006.014-.008.005-.006.009-.011.006-.026.005-.011.015.005.014-.012.009.003.014-.003.008-.008.011-.003.005-.002.006h-.009l-.008.005-.023.002-.012.002-.015.009-.034.015h-.02l-.015.005-.015-.005-.022.005-.028-.003-.017.003-.019.006-.019-.004h-.034l-.02.014-.017.009-.009.003-.006.008-.019.002-.008.008-.02.011-.017.005-.005.014-.016-.009-.02.017-.022.017-.016-.003-.014-.005h-.017l-.023-.009-.008.005-.005-.003-.011.006-.008.002-.005.006-.019-.002-.014-.007-.008-.002h-.008l-.009.006-.026.005-.014-.014h-.012l-.037.003-.022.014-.009-.02-.017-.012h-.009l-.008-.005-.026-.001-.009.012-.014-.006-.011-.014-.005-.005-.002-.003-.017-.014-.036-.006v-.011l.002-.011-.006-.011-.006-.009v-.003l-.009-.018-.005-.018zM10.399 26.928l.005.021.009.008v.012l.005.012-.014.015.011.015.022.008h.017l.026-.006.011.002.011.015.015.008.023.017.003.014.003.012.006.011.03.009-.005.006-.031.003-.02.006-.027-.003-.02-.003-.025.002-.02.002-.019.003-.008.012-.022-.002-.014-.008-.016-.01-.019-.014-.015-.005-.022-.008-.028-.012-.014-.003h-.008l-.008.006-.012.012-.019.002-.015-.012-.014-.004-.014.002-.022.005.011-.012-.002-.014.012-.003h.009l.011-.003.028-.034.023-.009.014-.015.006.009.014.003.014.007.019-.002.014-.005.008-.006.009-.006.011-.006.008-.006.009-.009.011-.011.006-.012-.002-.02.005-.003zM10.478 26.97l.006-.008h.017l.006.011-.002.009-.006.002-.012.002-.008-.002-.006-.008zM10.946 27.462l-.006-.009-.006-.008-.023-.012.002-.012-.008-.017-.005-.017-.008-.012-.003-.014-.008-.009-.011-.006-.008-.002-.003-.011-.008-.017-.009-.012-.003-.012-.005-.015-.014-.014-.014-.012-.009-.011-.003-.019-.008-.008-.009-.006-.015-.003-.009-.004-.005-.011-.008-.009-.016-.001-.008-.009.011-.002.009-.003.008-.008.005-.009.017.002.012-.005h.023l.034.013.03.005.036-.009.016.004.008-.002.008-.005h.006l.016.001.04-.036.011-.017.017-.006.02-.002.022.01h.019l.014.009.022.001.014-.002.02.003.025-.005.015-.003.02-.009.006-.011.009-.005.009-.005.012-.015.009-.006.011-.002.008.005.008-.002.009.003.002.006-.002.012v.017l-.012.022-.005.017.003.012.005.015.002.023.022.021.039.023.03.009.006.006.019.008.033-.009.029-.005.012.002v.008l-.003.015.002.02.003.02.003.024.008.005.008.014v.02l.008.014-.009.002-.017-.001-.02-.002-.031.002-.029.005-.006.008-.03.008-.012.015-.017.014-.028.011-.008.012-.015.006-.005.012-.023.005-.025.002-.019.005-.017.011-.033-.005-.019.005-.015.006-.019.019.002.012-.005.006-.014.003-.008-.002-.008-.002-.008-.008-.009-.003-.012-.009-.011-.003-.008-.009-.012-.006-.011-.008-.009-.008-.006-.006-.011.003-.005-.006-.003-.006-.006-.005-.008.002zM13.172 27.125l.008-.006.017-.005.014-.002.011-.002.003.011-.005.005-.006.002-.009.002-.028.002zM13.004 27.132l-.014-.005v-.005l.023-.005.012-.003.017.002.016.009.003.006.014.012.005.002-.006.003-.031.003-.015-.006-.012-.009zM13.113 27.142h.011l.015-.002.014-.009.012.003v.003l-.006.005-.005.006-.006.005-.023.009-.019-.003-.014-.012.015-.008zM16.34 27.986l.003.008-.015.009-.012.012-.001.015-.011-.014-.008.003.014.049-.008.002-.021-.06.002-.005.002-.008.009-.012.006-.008.011-.009.011-.02.008-.011.023-.008.067-.017.002.005.013.024.003.017-.012.006-.011-.015-.014.005-.036.014.009.021.003.005.026.003.032-.009v.006l-.028.011-.032-.003-.006-.006-.013-.026-.009.005zM14.11 28.903l.023.002.014-.009.003-.009.008-.003h.005v.009l-.003.011.006.015-.008.02-.005.012-.005.012-.009.003-.008-.006-.006-.011-.003-.02-.009-.017zM15.718 29.346l-.014-.009-.012-.017-.002-.023.009-.009.011-.015-.005-.02.014-.022.008-.002.008-.005-.003-.009-.009-.017-.013-.026-.006-.032-.005-.035-.015-.017h-.026l-.017-.017.02-.023h-.014l-.019.014-.02.009-.012-.005-.022-.004-.019-.006-.02-.003-.042.006-.005-.001-.02-.02-.017-.009.005-.022-.022-.008-.038-.039-.027-.035-.006-.018.016-.003.031.006.014.003.02-.005.023.005.019.001.011-.002.036-.002.016-.005.017.011.008.014.005.011.02.003-.005.011.036.017.012.009.014.021.008.02.014.002.017-.006.017-.011.015-.002.009.017.017.001.009.011.031.017.014.005.027.017.026-.003.022.002.056.024.031.006.009.012.022.017H16.036l-.003.014-.009.029.049.067.063.052.021.044.036.024.009.032.019.027-.004.042-.019.002-.003.02-.015.003-.017.009-.025-.008-.042-.022-.012-.02-.02-.007-.015-.002-.046-.001-.025-.012-.039.008h-.026l-.033.009-.027-.008h-.033l-.023.002-.015-.011-.014-.014-.014-.017-.014-.014-.005-.02zM12.783 29.78l-.023-.006-.028-.006-.029-.009-.011-.008-.008-.009-.022-.017-.016-.031-.012-.011-.008-.015.003-.019-.014-.023-.008-.019.002-.003.019.006.009.009.023.012.019-.009.009-.019.015-.003.022-.002.014-.015.012.003.015.006.009.009.014.006.019.014.019.011.013.015h.026l.012.011h.019l.008.005.019.005.017.007.014.014.013.014.012.011.014.026.011.011.022.012.019.008-.008.011-.008.002-.008.002v.008l-.006.009-.008.011-.022-.003-.017.006-.012.005-.017.002-.029.003-.025-.012-.026-.008-.012.005-.017-.005-.033-.007zM15.366 30.376l.009-.002.005.005.003.002.003.005v.006l-.008.006h-.005l-.006-.003-.006-.009.002-.005zM15.673 30.96l.001-.025-.017-.02-.025-.015-.021-.038-.016-.029-.019.003-.02-.04-.005-.05-.011-.043-.017-.027-.016-.02-.019-.017-.013-.02-.008-.023-.002-.031-.012-.02-.009-.037-.011-.02-.011-.009-.012-.011h-.028v-.012l.002-.022-.002-.023.017-.006.025-.002.006.017.022-.005.017-.014.014.015.008.005.008.006.009.009-.011.014.013.022.008.027h.012l.017.014.005.02.016.044.023.015.014.027.028.023.029.047.025.038.023.023.028.029.033.015.022.018.014.015.013.017.02.018.03.023.05.046.036.029.041.035.039.04.038.023.03.044.023.015-.005.012-.016-.005-.009-.012-.019-.005-.022.006-.011-.014-.02-.008-.025.006-.011.012-.019.009.005.025-.019.003-.015.003-.037.034-.014-.041-.014-.012-.015-.003-.011-.014-.012.005-.009-.011-.025-.026-.019-.009-.012-.023-.015-.014-.037-.001-.002-.018-.02-.006-.01-.028zM19.336 31.183l.003-.015.006-.011.003-.011.003-.005.006-.003.005.002.002.006-.005.006-.003.005-.002.005v.008l.002.005.003.003.002.003-.005.002-.005-.002-.003-.002v.005l.003.003.003.005.006.003.005.003.005.003v.012l-.003.002-.005.003-.006-.002-.002-.005v-.003l-.005-.003-.003-.003-.006-.002v.008l-.005.002-.008-.002-.005-.002-.003-.005.002-.003h.003l.005-.005.002-.006z"/></symbol><symbol viewBox="0 0 21 28" id="icon-chevron-left" xmlns="http://www.w3.org/2000/svg"><path d="M18.297 4.703L10 13l8.297 8.297a.99.99 0 0 1 0 1.406l-2.594 2.594a.99.99 0 0 1-1.406 0L2.703 13.703a.99.99 0 0 1 0-1.406L14.297.703a.99.99 0 0 1 1.406 0l2.594 2.594a.99.99 0 0 1 0 1.406z"/></symbol><symbol viewBox="0 0 19 28" id="icon-chevron-right" xmlns="http://www.w3.org/2000/svg"><path d="M17.297 13.703L5.703 25.297a.99.99 0 0 1-1.406 0l-2.594-2.594a.99.99 0 0 1 0-1.406L10 13 1.703 4.703a.99.99 0 0 1 0-1.406L4.297.703a.99.99 0 0 1 1.406 0l11.594 11.594a.99.99 0 0 1 0 1.406z"/></symbol><symbol viewBox="0 0 32 32" id="icon-codepen" xmlns="http://www.w3.org/2000/svg"><path d="M29.555 11.501l-14-9.333a1 1 0 0 0-1.109 0l-14 9.333a1 1 0 0 0-.445.832v9.333a1 1 0 0 0 .445.832l14 9.333a.998.998 0 0 0 1.11 0l14-9.333a1 1 0 0 0 .445-.832v-9.333a1 1 0 0 0-.445-.832h-.001zM15 20.465L9.803 17 15 13.535 20.197 17 15 20.465zm1-8.667v-6.93l11.197 7.465L22 15.798l-6-4zm-2 0l-6 4-5.197-3.465L14 4.868v6.93zM6.197 17L2 19.798v-5.596L6.197 17zM8 18.202l6 4v6.93L2.803 21.667 8 18.202zm8 4l6-4 5.197 3.465L16 29.132v-6.93zM23.803 17L28 14.202v5.596L23.803 17z"/></symbol><symbol viewBox="0 0 32 32" id="icon-dribbble" xmlns="http://www.w3.org/2000/svg"><path d="M16 32C7.175 32 0 24.825 0 16S7.175 0 16 0s16 7.175 16 16-7.175 16-16 16zm13.494-13.812c-.469-.15-4.231-1.269-8.512-.581 1.788 4.912 2.512 8.912 2.656 9.744 3.063-2.075 5.25-5.356 5.856-9.163zM21.337 28.6c-.206-1.2-.994-5.375-2.913-10.363-.031.012-.063.019-.087.031-7.713 2.688-10.481 8.031-10.725 8.531a13.612 13.612 0 0 0 8.387 2.887c1.894 0 3.7-.387 5.338-1.087v.001zM5.844 25.156c.313-.531 4.063-6.738 11.106-9.019.175-.056.356-.113.538-.162a50.041 50.041 0 0 0-1.106-2.319C9.563 15.7 2.938 15.612 2.338 15.606c-.006.137-.006.275-.006.419 0 3.506 1.331 6.712 3.512 9.131zM2.625 13.219c.612.006 6.244.031 12.637-1.662a86.017 86.017 0 0 0-5.069-7.906C6.368 5.457 3.505 8.982 2.624 13.22l.001-.001zM12.8 2.731a73.225 73.225 0 0 1 5.1 8c4.863-1.819 6.919-4.588 7.163-4.938A13.598 13.598 0 0 0 16 2.349a14.22 14.22 0 0 0-3.2.381v.001zm13.781 4.65c-.288.388-2.581 3.325-7.631 5.388.319.65.625 1.313.906 1.981.1.238.2.469.294.706 4.55-.569 9.069.344 9.519.438a13.628 13.628 0 0 0-3.087-8.512l-.001-.001z"/></symbol><symbol viewBox="0 0 32 32" id="icon-email" xmlns="http://www.w3.org/2000/svg"><path d="M31.501.197c.375.267.553.696.482 1.143l-4.571 27.429a1.145 1.145 0 0 1-1.124.946 1.22 1.22 0 0 1-.429-.089l-8.089-3.304-4.321 5.267c-.214.267-.536.41-.875.41-.125 0-.267-.018-.393-.072a1.14 1.14 0 0 1-.75-1.072v-6.232L26.86 5.712 7.771 22.23.717 19.337a1.132 1.132 0 0 1-.714-.982 1.156 1.156 0 0 1 .571-1.054L30.288.158c.178-.107.375-.161.571-.161.232 0 .464.072.642.197v.002z"/></symbol><symbol viewBox="0 0 32 32" id="icon-github" xmlns="http://www.w3.org/2000/svg"><path d="M16 .395c-8.836 0-16 7.163-16 16 0 7.069 4.585 13.067 10.942 15.182.8.148 1.094-.347 1.094-.77 0-.381-.015-1.642-.022-2.979-4.452.968-5.391-1.888-5.391-1.888-.728-1.849-1.776-2.341-1.776-2.341-1.452-.993.11-.973.11-.973 1.606.113 2.452 1.649 2.452 1.649 1.427 2.446 3.743 1.739 4.656 1.33.143-1.034.558-1.74 1.016-2.14-3.554-.404-7.29-1.777-7.29-7.907 0-1.747.625-3.174 1.649-4.295-.166-.403-.714-2.03.155-4.234 0 0 1.344-.43 4.401 1.64a15.353 15.353 0 0 1 4.005-.539c1.359.006 2.729.184 4.008.539 3.054-2.07 4.395-1.64 4.395-1.64.871 2.204.323 3.831.157 4.234 1.026 1.12 1.647 2.548 1.647 4.295 0 6.145-3.743 7.498-7.306 7.895.574.497 1.085 1.47 1.085 2.963 0 2.141-.019 3.864-.019 4.391 0 .426.288.925 1.099.768C27.421 29.457 32 23.462 32 16.395c0-8.837-7.164-16-16-16z"/></symbol><symbol viewBox="0 0 32 32" id="icon-hamburger-icon" xmlns="http://www.w3.org/2000/svg"><path d="M0 0h32v6.666H0V0zM0 12.667h32v6.666H0v-6.666zM0 25.334h32V32H0v-6.666z"/></symbol><symbol viewBox="0 0 24 28" id="icon-linkedin-square" xmlns="http://www.w3.org/2000/svg"><path d="M3.703 22.094h3.609V11.25H3.703v10.844zM7.547 7.906c-.016-1.062-.781-1.875-2.016-1.875s-2.047.812-2.047 1.875c0 1.031.781 1.875 2 1.875H5.5c1.266 0 2.047-.844 2.047-1.875zm9.141 14.188h3.609v-6.219c0-3.328-1.781-4.875-4.156-4.875-1.937 0-2.797 1.078-3.266 1.828h.031V11.25H9.297s.047 1.016 0 10.844h3.609v-6.062c0-.313.016-.641.109-.875.266-.641.859-1.313 1.859-1.313 1.297 0 1.813.984 1.813 2.453v5.797zM24 6.5v15c0 2.484-2.016 4.5-4.5 4.5h-15A4.502 4.502 0 0 1 0 21.5v-15C0 4.016 2.016 2 4.5 2h15C21.984 2 24 4.016 24 6.5z"/></symbol><symbol viewBox="0 0 24 28" id="icon-minus-circle" xmlns="http://www.w3.org/2000/svg"><path d="M19 15v-2c0-.547-.453-1-1-1H6c-.547 0-1 .453-1 1v2c0 .547.453 1 1 1h12c.547 0 1-.453 1-1zm5-1c0 6.625-5.375 12-12 12S0 20.625 0 14 5.375 2 12 2s12 5.375 12 12z"/></symbol><symbol viewBox="0 0 24 28" id="icon-plus-circle" xmlns="http://www.w3.org/2000/svg"><path d="M19 15v-2c0-.547-.453-1-1-1h-4V8c0-.547-.453-1-1-1h-2c-.547 0-1 .453-1 1v4H6c-.547 0-1 .453-1 1v2c0 .547.453 1 1 1h4v4c0 .547.453 1 1 1h2c.547 0 1-.453 1-1v-4h4c.547 0 1-.453 1-1zm5-1c0 6.625-5.375 12-12 12S0 20.625 0 14 5.375 2 12 2s12 5.375 12 12z"/></symbol><symbol class="psvg-inline--fa pfa-rss-square pfa-w-14" viewBox="0 0 448 512" id="icon-rss" xmlns="http://www.w3.org/2000/svg"><path fill="currentColor" d="M400 32H48C21.49 32 0 53.49 0 80v352c0 26.51 21.49 48 48 48h352c26.51 0 48-21.49 48-48V80c0-26.51-21.49-48-48-48zM112 416c-26.51 0-48-21.49-48-48s21.49-48 48-48 48 21.49 48 48-21.49 48-48 48zm157.533 0h-34.335c-6.011 0-11.051-4.636-11.442-10.634-5.214-80.05-69.243-143.92-149.123-149.123-5.997-.39-10.633-5.431-10.633-11.441v-34.335c0-6.535 5.468-11.777 11.994-11.425 110.546 5.974 198.997 94.536 204.964 204.964.352 6.526-4.89 11.994-11.425 11.994zm103.027 0h-34.334c-6.161 0-11.175-4.882-11.427-11.038-5.598-136.535-115.204-246.161-251.76-251.76C68.882 152.949 64 147.935 64 141.774V107.44c0-6.454 5.338-11.664 11.787-11.432 167.83 6.025 302.21 141.191 308.205 308.205.232 6.449-4.978 11.787-11.432 11.787z"/></symbol><symbol viewBox="0 0 600 600" fill-rule="evenodd" clip-rule="evenodd" stroke-linejoin="round" stroke-miterlimit="1.414" id="icon-s-mark" xmlns="http://www.w3.org/2000/svg"><circle cx="300" cy="300" r="300" fill="#e6621a"/><path d="M195.981 212.255c0 65.079 45.432 85.953 88.409 106.213 39.907 19.033 74.902 35.61 74.902 78.586 0 51.572-37.451 67.535-90.865 67.535-25.172 0-53.413-7.368-65.692-15.349l12.892-56.483c1.228-7.368 0-9.21-7.98-9.21h-33.154c-7.982 0-9.823 1.842-11.665 9.21l-15.963 97.618c-1.842 7.367 0 9.823 7.367 12.279 27.628 8.595 65.693 14.735 108.056 14.735 98.232 0 163.31-51.572 163.31-135.684 0-69.376-51.571-95.776-91.478-116.036-38.065-19.647-71.832-33.154-71.832-73.06 0-33.768 26.4-56.484 76.744-56.484 19.032 0 44.204 6.753 57.097 14.735l-9.823 41.748c-1.842 7.368-.614 9.21 7.367 9.21h33.154c7.981 0 10.437-1.842 11.665-9.21l14.735-84.11c1.841-7.368 0-9.824-7.368-12.28-27.628-7.981-58.94-13.507-93.934-13.507-103.144 0-155.944 60.167-155.944 129.544z" fill="#fff" fill-rule="nonzero"/></symbol><symbol viewBox="0 0 32 32" id="icon-x-icon" xmlns="http://www.w3.org/2000/svg"><path d="M15.996 20.718l-8.953 8.953-4.713-4.713 8.957-8.957L2.33 7.044l4.713-4.713L16 11.288l8.957-8.957 4.713 4.713-8.938 8.938-.001.019-.004.015 8.942 8.942-4.713 4.713-8.961-8.953z"/></symbol></svg>