<svg id="Layer_1" data-name="Layer 1" xmlns="http://www.w3.org/2000/svg" viewBox="0 0 300 300"><defs><style>.cls-1{fill:none;stroke:#0e1f48;stroke-miterlimit:10;stroke-width:6px;}</style></defs><title>waves</title><path class="cls-1" d="M0,2C75,2,75,62,150,62S225,2,300,2"/><path class="cls-1" d="M0-18c75,0,75,60,150,60s75-60,150-60"/><path class="cls-1" d="M0-38c75,0,75,60,150,60s75-60,150-60"/><path class="cls-1" d="M0-58C75-58,75,2,150,2s75-60,150-60"/><path class="cls-1" d="M0,22c75,0,75,60,150,60s75-60,150-60"/><path class="cls-1" d="M0,42c75,0,75,60,150,60s75-60,150-60"/><path class="cls-1" d="M0,62c75,0,75,60,150,60s75-60,150-60"/><path class="cls-1" d="M0,82c75,0,75,60,150,60s75-60,150-60"/><path class="cls-1" d="M0,102c75,0,75,60,150,60s75-60,150-60"/><path class="cls-1" d="M0,122c75,0,75,60,150,60s75-60,150-60"/><path class="cls-1" d="M0,142c75,0,75,60,150,60s75-60,150-60"/><path class="cls-1" d="M0,162c75,0,75,60,150,60s75-60,150-60"/><path class="cls-1" d="M0,182c75,0,75,60,150,60s75-60,150-60"/><path class="cls-1" d="M0,202c75,0,75,60,150,60s75-60,150-60"/><path class="cls-1" d="M0,222c75,0,75,60,150,60s75-60,150-60"/><path class="cls-1" d="M0,242c75,0,75,60,150,60s75-60,150-60"/><path class="cls-1" d="M0,262c75,0,75,60,150,60s75-60,150-60"/><path class="cls-1" d="M0,282c75,0,75,60,150,60s75-60,150-60"/><path class="cls-1" d="M0,302c75,0,75,60,150,60s75-60,150-60"/></svg>